<?xml version="1.0" encoding="utf-8" standalone="no"?>
<!DOCTYPE svg PUBLIC "-//W3C//DTD SVG 1.1//EN"
  "http://www.w3.org/Graphics/SVG/1.1/DTD/svg11.dtd">
<svg xmlns:xlink="http://www.w3.org/1999/xlink" width="1008.306406pt" height="712.72625pt" viewBox="0 0 1008.306406 712.72625" xmlns="http://www.w3.org/2000/svg" version="1.1">
 <metadata>
  <rdf:RDF xmlns:dc="http://purl.org/dc/elements/1.1/" xmlns:cc="http://creativecommons.org/ns#" xmlns:rdf="http://www.w3.org/1999/02/22-rdf-syntax-ns#">
   <cc:Work>
    <dc:type rdf:resource="http://purl.org/dc/dcmitype/StillImage"/>
    <dc:date>2024-11-21T13:34:10.638310</dc:date>
    <dc:format>image/svg+xml</dc:format>
    <dc:creator>
     <cc:Agent>
      <dc:title>Matplotlib v3.9.2, https://matplotlib.org/</dc:title>
     </cc:Agent>
    </dc:creator>
   </cc:Work>
  </rdf:RDF>
 </metadata>
 <defs>
  <style type="text/css">*{stroke-linejoin: round; stroke-linecap: butt}</style>
 </defs>
 <g id="figure_1">
  <g id="patch_1">
   <path d="M 0 712.72625 
L 1008.306406 712.72625 
L 1008.306406 0 
L 0 0 
z
" style="fill: #ffffff"/>
  </g>
  <g id="axes_1">
   <g id="patch_2">
    <path d="M 117.503281 647.7 
L 850.523281 647.7 
L 850.523281 7.2 
L 117.503281 7.2 
z
" style="fill: #ffffff"/>
   </g>
   <g id="matplotlib.axis_1">
    <g id="xtick_1">
     <g id="line2d_1">
      <defs>
       <path id="m52fbff193c" d="M 0 0 
L 0 -10 
" style="stroke: #000000; stroke-width: 1.4"/>
      </defs>
      <g>
       <use xlink:href="#m52fbff193c" x="117.503281" y="647.7" style="stroke: #000000; stroke-width: 1.4"/>
      </g>
     </g>
     <g id="text_1">
      <!-- 0 -->
      <g transform="translate(109.550156 670.196094) scale(0.25 -0.25)">
       <defs>
        <path id="DejaVuSans-30" d="M 2034 4250 
Q 1547 4250 1301 3770 
Q 1056 3291 1056 2328 
Q 1056 1369 1301 889 
Q 1547 409 2034 409 
Q 2525 409 2770 889 
Q 3016 1369 3016 2328 
Q 3016 3291 2770 3770 
Q 2525 4250 2034 4250 
z
M 2034 4750 
Q 2819 4750 3233 4129 
Q 3647 3509 3647 2328 
Q 3647 1150 3233 529 
Q 2819 -91 2034 -91 
Q 1250 -91 836 529 
Q 422 1150 422 2328 
Q 422 3509 836 4129 
Q 1250 4750 2034 4750 
z
" transform="scale(0.015625)"/>
       </defs>
       <use xlink:href="#DejaVuSans-30"/>
      </g>
     </g>
    </g>
    <g id="xtick_2">
     <g id="line2d_2">
      <g>
       <use xlink:href="#m52fbff193c" x="166.371281" y="647.7" style="stroke: #000000; stroke-width: 1.4"/>
      </g>
     </g>
     <g id="text_2">
      <!-- 1 -->
      <g transform="translate(158.418156 670.196094) scale(0.25 -0.25)">
       <defs>
        <path id="DejaVuSans-31" d="M 794 531 
L 1825 531 
L 1825 4091 
L 703 3866 
L 703 4441 
L 1819 4666 
L 2450 4666 
L 2450 531 
L 3481 531 
L 3481 0 
L 794 0 
L 794 531 
z
" transform="scale(0.015625)"/>
       </defs>
       <use xlink:href="#DejaVuSans-31"/>
      </g>
     </g>
    </g>
    <g id="xtick_3">
     <g id="line2d_3">
      <g>
       <use xlink:href="#m52fbff193c" x="215.239281" y="647.7" style="stroke: #000000; stroke-width: 1.4"/>
      </g>
     </g>
     <g id="text_3">
      <!-- 2 -->
      <g transform="translate(207.286156 670.196094) scale(0.25 -0.25)">
       <defs>
        <path id="DejaVuSans-32" d="M 1228 531 
L 3431 531 
L 3431 0 
L 469 0 
L 469 531 
Q 828 903 1448 1529 
Q 2069 2156 2228 2338 
Q 2531 2678 2651 2914 
Q 2772 3150 2772 3378 
Q 2772 3750 2511 3984 
Q 2250 4219 1831 4219 
Q 1534 4219 1204 4116 
Q 875 4013 500 3803 
L 500 4441 
Q 881 4594 1212 4672 
Q 1544 4750 1819 4750 
Q 2544 4750 2975 4387 
Q 3406 4025 3406 3419 
Q 3406 3131 3298 2873 
Q 3191 2616 2906 2266 
Q 2828 2175 2409 1742 
Q 1991 1309 1228 531 
z
" transform="scale(0.015625)"/>
       </defs>
       <use xlink:href="#DejaVuSans-32"/>
      </g>
     </g>
    </g>
    <g id="xtick_4">
     <g id="line2d_4">
      <g>
       <use xlink:href="#m52fbff193c" x="264.107281" y="647.7" style="stroke: #000000; stroke-width: 1.4"/>
      </g>
     </g>
     <g id="text_4">
      <!-- 3 -->
      <g transform="translate(256.154156 670.196094) scale(0.25 -0.25)">
       <defs>
        <path id="DejaVuSans-33" d="M 2597 2516 
Q 3050 2419 3304 2112 
Q 3559 1806 3559 1356 
Q 3559 666 3084 287 
Q 2609 -91 1734 -91 
Q 1441 -91 1130 -33 
Q 819 25 488 141 
L 488 750 
Q 750 597 1062 519 
Q 1375 441 1716 441 
Q 2309 441 2620 675 
Q 2931 909 2931 1356 
Q 2931 1769 2642 2001 
Q 2353 2234 1838 2234 
L 1294 2234 
L 1294 2753 
L 1863 2753 
Q 2328 2753 2575 2939 
Q 2822 3125 2822 3475 
Q 2822 3834 2567 4026 
Q 2313 4219 1838 4219 
Q 1578 4219 1281 4162 
Q 984 4106 628 3988 
L 628 4550 
Q 988 4650 1302 4700 
Q 1616 4750 1894 4750 
Q 2613 4750 3031 4423 
Q 3450 4097 3450 3541 
Q 3450 3153 3228 2886 
Q 3006 2619 2597 2516 
z
" transform="scale(0.015625)"/>
       </defs>
       <use xlink:href="#DejaVuSans-33"/>
      </g>
     </g>
    </g>
    <g id="xtick_5">
     <g id="line2d_5">
      <g>
       <use xlink:href="#m52fbff193c" x="312.975281" y="647.7" style="stroke: #000000; stroke-width: 1.4"/>
      </g>
     </g>
     <g id="text_5">
      <!-- 4 -->
      <g transform="translate(305.022156 670.196094) scale(0.25 -0.25)">
       <defs>
        <path id="DejaVuSans-34" d="M 2419 4116 
L 825 1625 
L 2419 1625 
L 2419 4116 
z
M 2253 4666 
L 3047 4666 
L 3047 1625 
L 3713 1625 
L 3713 1100 
L 3047 1100 
L 3047 0 
L 2419 0 
L 2419 1100 
L 313 1100 
L 313 1709 
L 2253 4666 
z
" transform="scale(0.015625)"/>
       </defs>
       <use xlink:href="#DejaVuSans-34"/>
      </g>
     </g>
    </g>
    <g id="xtick_6">
     <g id="line2d_6">
      <g>
       <use xlink:href="#m52fbff193c" x="361.843281" y="647.7" style="stroke: #000000; stroke-width: 1.4"/>
      </g>
     </g>
     <g id="text_6">
      <!-- 5 -->
      <g transform="translate(353.890156 670.196094) scale(0.25 -0.25)">
       <defs>
        <path id="DejaVuSans-35" d="M 691 4666 
L 3169 4666 
L 3169 4134 
L 1269 4134 
L 1269 2991 
Q 1406 3038 1543 3061 
Q 1681 3084 1819 3084 
Q 2600 3084 3056 2656 
Q 3513 2228 3513 1497 
Q 3513 744 3044 326 
Q 2575 -91 1722 -91 
Q 1428 -91 1123 -41 
Q 819 9 494 109 
L 494 744 
Q 775 591 1075 516 
Q 1375 441 1709 441 
Q 2250 441 2565 725 
Q 2881 1009 2881 1497 
Q 2881 1984 2565 2268 
Q 2250 2553 1709 2553 
Q 1456 2553 1204 2497 
Q 953 2441 691 2322 
L 691 4666 
z
" transform="scale(0.015625)"/>
       </defs>
       <use xlink:href="#DejaVuSans-35"/>
      </g>
     </g>
    </g>
    <g id="xtick_7">
     <g id="line2d_7">
      <g>
       <use xlink:href="#m52fbff193c" x="410.711281" y="647.7" style="stroke: #000000; stroke-width: 1.4"/>
      </g>
     </g>
     <g id="text_7">
      <!-- 6 -->
      <g transform="translate(402.758156 670.196094) scale(0.25 -0.25)">
       <defs>
        <path id="DejaVuSans-36" d="M 2113 2584 
Q 1688 2584 1439 2293 
Q 1191 2003 1191 1497 
Q 1191 994 1439 701 
Q 1688 409 2113 409 
Q 2538 409 2786 701 
Q 3034 994 3034 1497 
Q 3034 2003 2786 2293 
Q 2538 2584 2113 2584 
z
M 3366 4563 
L 3366 3988 
Q 3128 4100 2886 4159 
Q 2644 4219 2406 4219 
Q 1781 4219 1451 3797 
Q 1122 3375 1075 2522 
Q 1259 2794 1537 2939 
Q 1816 3084 2150 3084 
Q 2853 3084 3261 2657 
Q 3669 2231 3669 1497 
Q 3669 778 3244 343 
Q 2819 -91 2113 -91 
Q 1303 -91 875 529 
Q 447 1150 447 2328 
Q 447 3434 972 4092 
Q 1497 4750 2381 4750 
Q 2619 4750 2861 4703 
Q 3103 4656 3366 4563 
z
" transform="scale(0.015625)"/>
       </defs>
       <use xlink:href="#DejaVuSans-36"/>
      </g>
     </g>
    </g>
    <g id="xtick_8">
     <g id="line2d_8">
      <g>
       <use xlink:href="#m52fbff193c" x="459.579281" y="647.7" style="stroke: #000000; stroke-width: 1.4"/>
      </g>
     </g>
     <g id="text_8">
      <!-- 7 -->
      <g transform="translate(451.626156 670.196094) scale(0.25 -0.25)">
       <defs>
        <path id="DejaVuSans-37" d="M 525 4666 
L 3525 4666 
L 3525 4397 
L 1831 0 
L 1172 0 
L 2766 4134 
L 525 4134 
L 525 4666 
z
" transform="scale(0.015625)"/>
       </defs>
       <use xlink:href="#DejaVuSans-37"/>
      </g>
     </g>
    </g>
    <g id="xtick_9">
     <g id="line2d_9">
      <g>
       <use xlink:href="#m52fbff193c" x="508.447281" y="647.7" style="stroke: #000000; stroke-width: 1.4"/>
      </g>
     </g>
     <g id="text_9">
      <!-- 8 -->
      <g transform="translate(500.494156 670.196094) scale(0.25 -0.25)">
       <defs>
        <path id="DejaVuSans-38" d="M 2034 2216 
Q 1584 2216 1326 1975 
Q 1069 1734 1069 1313 
Q 1069 891 1326 650 
Q 1584 409 2034 409 
Q 2484 409 2743 651 
Q 3003 894 3003 1313 
Q 3003 1734 2745 1975 
Q 2488 2216 2034 2216 
z
M 1403 2484 
Q 997 2584 770 2862 
Q 544 3141 544 3541 
Q 544 4100 942 4425 
Q 1341 4750 2034 4750 
Q 2731 4750 3128 4425 
Q 3525 4100 3525 3541 
Q 3525 3141 3298 2862 
Q 3072 2584 2669 2484 
Q 3125 2378 3379 2068 
Q 3634 1759 3634 1313 
Q 3634 634 3220 271 
Q 2806 -91 2034 -91 
Q 1263 -91 848 271 
Q 434 634 434 1313 
Q 434 1759 690 2068 
Q 947 2378 1403 2484 
z
M 1172 3481 
Q 1172 3119 1398 2916 
Q 1625 2713 2034 2713 
Q 2441 2713 2670 2916 
Q 2900 3119 2900 3481 
Q 2900 3844 2670 4047 
Q 2441 4250 2034 4250 
Q 1625 4250 1398 4047 
Q 1172 3844 1172 3481 
z
" transform="scale(0.015625)"/>
       </defs>
       <use xlink:href="#DejaVuSans-38"/>
      </g>
     </g>
    </g>
    <g id="xtick_10">
     <g id="line2d_10">
      <g>
       <use xlink:href="#m52fbff193c" x="557.315281" y="647.7" style="stroke: #000000; stroke-width: 1.4"/>
      </g>
     </g>
     <g id="text_10">
      <!-- 9 -->
      <g transform="translate(549.362156 670.196094) scale(0.25 -0.25)">
       <defs>
        <path id="DejaVuSans-39" d="M 703 97 
L 703 672 
Q 941 559 1184 500 
Q 1428 441 1663 441 
Q 2288 441 2617 861 
Q 2947 1281 2994 2138 
Q 2813 1869 2534 1725 
Q 2256 1581 1919 1581 
Q 1219 1581 811 2004 
Q 403 2428 403 3163 
Q 403 3881 828 4315 
Q 1253 4750 1959 4750 
Q 2769 4750 3195 4129 
Q 3622 3509 3622 2328 
Q 3622 1225 3098 567 
Q 2575 -91 1691 -91 
Q 1453 -91 1209 -44 
Q 966 3 703 97 
z
M 1959 2075 
Q 2384 2075 2632 2365 
Q 2881 2656 2881 3163 
Q 2881 3666 2632 3958 
Q 2384 4250 1959 4250 
Q 1534 4250 1286 3958 
Q 1038 3666 1038 3163 
Q 1038 2656 1286 2365 
Q 1534 2075 1959 2075 
z
" transform="scale(0.015625)"/>
       </defs>
       <use xlink:href="#DejaVuSans-39"/>
      </g>
     </g>
    </g>
    <g id="xtick_11">
     <g id="line2d_11">
      <g>
       <use xlink:href="#m52fbff193c" x="606.183281" y="647.7" style="stroke: #000000; stroke-width: 1.4"/>
      </g>
     </g>
     <g id="text_11">
      <!-- 10 -->
      <g transform="translate(590.277031 670.196094) scale(0.25 -0.25)">
       <use xlink:href="#DejaVuSans-31"/>
       <use xlink:href="#DejaVuSans-30" x="63.623047"/>
      </g>
     </g>
    </g>
    <g id="xtick_12">
     <g id="line2d_12">
      <g>
       <use xlink:href="#m52fbff193c" x="655.051281" y="647.7" style="stroke: #000000; stroke-width: 1.4"/>
      </g>
     </g>
     <g id="text_12">
      <!-- 11 -->
      <g transform="translate(639.145031 670.196094) scale(0.25 -0.25)">
       <use xlink:href="#DejaVuSans-31"/>
       <use xlink:href="#DejaVuSans-31" x="63.623047"/>
      </g>
     </g>
    </g>
    <g id="xtick_13">
     <g id="line2d_13">
      <g>
       <use xlink:href="#m52fbff193c" x="703.919281" y="647.7" style="stroke: #000000; stroke-width: 1.4"/>
      </g>
     </g>
     <g id="text_13">
      <!-- 12 -->
      <g transform="translate(688.013031 670.196094) scale(0.25 -0.25)">
       <use xlink:href="#DejaVuSans-31"/>
       <use xlink:href="#DejaVuSans-32" x="63.623047"/>
      </g>
     </g>
    </g>
    <g id="xtick_14">
     <g id="line2d_14">
      <g>
       <use xlink:href="#m52fbff193c" x="752.787281" y="647.7" style="stroke: #000000; stroke-width: 1.4"/>
      </g>
     </g>
     <g id="text_14">
      <!-- 13 -->
      <g transform="translate(736.881031 670.196094) scale(0.25 -0.25)">
       <use xlink:href="#DejaVuSans-31"/>
       <use xlink:href="#DejaVuSans-33" x="63.623047"/>
      </g>
     </g>
    </g>
    <g id="xtick_15">
     <g id="line2d_15">
      <g>
       <use xlink:href="#m52fbff193c" x="801.655281" y="647.7" style="stroke: #000000; stroke-width: 1.4"/>
      </g>
     </g>
     <g id="text_15">
      <!-- 14 -->
      <g transform="translate(785.749031 670.196094) scale(0.25 -0.25)">
       <use xlink:href="#DejaVuSans-31"/>
       <use xlink:href="#DejaVuSans-34" x="63.623047"/>
      </g>
     </g>
    </g>
    <g id="xtick_16">
     <g id="line2d_16">
      <g>
       <use xlink:href="#m52fbff193c" x="850.523281" y="647.7" style="stroke: #000000; stroke-width: 1.4"/>
      </g>
     </g>
     <g id="text_16">
      <!-- 15 -->
      <g transform="translate(834.617031 670.196094) scale(0.25 -0.25)">
       <use xlink:href="#DejaVuSans-31"/>
       <use xlink:href="#DejaVuSans-35" x="63.623047"/>
      </g>
     </g>
    </g>
    <g id="text_17">
     <!-- $\alpha_a$ -->
     <g transform="translate(468.893281 699.911094) scale(0.27 -0.27)">
      <defs>
       <path id="DejaVuSans-Oblique-3b1" d="M 2619 1628 
L 2622 2350 
Q 2625 3088 2069 3091 
Q 1653 3094 1394 2747 
Q 1069 2319 959 1747 
Q 825 1059 994 731 
Q 1169 397 1547 397 
Q 1966 397 2319 1063 
L 2619 1628 
z
M 2166 3578 
Q 3141 3594 3128 2584 
Q 3128 2584 3616 3500 
L 4128 3500 
L 3119 1603 
L 3109 919 
Q 3109 766 3194 638 
Q 3291 488 3391 488 
L 3669 488 
L 3575 0 
L 3228 0 
Q 2934 0 2722 263 
Q 2622 394 2619 669 
Q 2416 334 2066 50 
Q 1900 -81 1453 -78 
Q 722 -72 456 397 
Q 184 884 353 1747 
Q 534 2675 1009 3097 
Q 1544 3569 2166 3578 
z
" transform="scale(0.015625)"/>
       <path id="DejaVuSans-Oblique-61" d="M 3438 1997 
L 3047 0 
L 2472 0 
L 2578 531 
Q 2325 219 2001 64 
Q 1678 -91 1281 -91 
Q 834 -91 548 182 
Q 263 456 263 884 
Q 263 1497 752 1853 
Q 1241 2209 2100 2209 
L 2900 2209 
L 2931 2363 
Q 2938 2388 2941 2417 
Q 2944 2447 2944 2509 
Q 2944 2788 2717 2942 
Q 2491 3097 2081 3097 
Q 1800 3097 1504 3025 
Q 1209 2953 897 2809 
L 997 3341 
Q 1322 3463 1633 3523 
Q 1944 3584 2234 3584 
Q 2853 3584 3176 3315 
Q 3500 3047 3500 2534 
Q 3500 2431 3484 2292 
Q 3469 2153 3438 1997 
z
M 2816 1759 
L 2241 1759 
Q 1534 1759 1195 1570 
Q 856 1381 856 984 
Q 856 709 1029 553 
Q 1203 397 1509 397 
Q 1978 397 2328 733 
Q 2678 1069 2791 1631 
L 2816 1759 
z
" transform="scale(0.015625)"/>
      </defs>
      <use xlink:href="#DejaVuSans-Oblique-3b1" transform="translate(0 0.84375)"/>
      <use xlink:href="#DejaVuSans-Oblique-61" transform="translate(65.917969 -15.5625) scale(0.7)"/>
     </g>
    </g>
   </g>
   <g id="matplotlib.axis_2">
    <g id="ytick_1">
     <g id="line2d_17">
      <defs>
       <path id="m1e76b584b3" d="M 0 0 
L 10 0 
" style="stroke: #000000; stroke-width: 1.4"/>
      </defs>
      <g>
       <use xlink:href="#m1e76b584b3" x="117.503281" y="601.76555" style="stroke: #000000; stroke-width: 1.4"/>
      </g>
     </g>
     <g id="text_18">
      <!-- −0.10 -->
      <g transform="translate(37.39 611.263597) scale(0.25 -0.25)">
       <defs>
        <path id="DejaVuSans-2212" d="M 678 2272 
L 4684 2272 
L 4684 1741 
L 678 1741 
L 678 2272 
z
" transform="scale(0.015625)"/>
        <path id="DejaVuSans-2e" d="M 684 794 
L 1344 794 
L 1344 0 
L 684 0 
L 684 794 
z
" transform="scale(0.015625)"/>
       </defs>
       <use xlink:href="#DejaVuSans-2212"/>
       <use xlink:href="#DejaVuSans-30" x="83.789062"/>
       <use xlink:href="#DejaVuSans-2e" x="147.412109"/>
       <use xlink:href="#DejaVuSans-31" x="179.199219"/>
       <use xlink:href="#DejaVuSans-30" x="242.822266"/>
      </g>
     </g>
    </g>
    <g id="ytick_2">
     <g id="line2d_18">
      <g>
       <use xlink:href="#m1e76b584b3" x="117.503281" y="482.310726" style="stroke: #000000; stroke-width: 1.4"/>
      </g>
     </g>
     <g id="text_19">
      <!-- −0.05 -->
      <g transform="translate(37.39 491.808773) scale(0.25 -0.25)">
       <use xlink:href="#DejaVuSans-2212"/>
       <use xlink:href="#DejaVuSans-30" x="83.789062"/>
       <use xlink:href="#DejaVuSans-2e" x="147.412109"/>
       <use xlink:href="#DejaVuSans-30" x="179.199219"/>
       <use xlink:href="#DejaVuSans-35" x="242.822266"/>
      </g>
     </g>
    </g>
    <g id="ytick_3">
     <g id="line2d_19">
      <g>
       <use xlink:href="#m1e76b584b3" x="117.503281" y="362.855902" style="stroke: #000000; stroke-width: 1.4"/>
      </g>
     </g>
     <g id="text_20">
      <!-- 0.00 -->
      <g transform="translate(58.339219 372.353949) scale(0.25 -0.25)">
       <use xlink:href="#DejaVuSans-30"/>
       <use xlink:href="#DejaVuSans-2e" x="63.623047"/>
       <use xlink:href="#DejaVuSans-30" x="95.410156"/>
       <use xlink:href="#DejaVuSans-30" x="159.033203"/>
      </g>
     </g>
    </g>
    <g id="ytick_4">
     <g id="line2d_20">
      <g>
       <use xlink:href="#m1e76b584b3" x="117.503281" y="243.401078" style="stroke: #000000; stroke-width: 1.4"/>
      </g>
     </g>
     <g id="text_21">
      <!-- 0.05 -->
      <g transform="translate(58.339219 252.899125) scale(0.25 -0.25)">
       <use xlink:href="#DejaVuSans-30"/>
       <use xlink:href="#DejaVuSans-2e" x="63.623047"/>
       <use xlink:href="#DejaVuSans-30" x="95.410156"/>
       <use xlink:href="#DejaVuSans-35" x="159.033203"/>
      </g>
     </g>
    </g>
    <g id="ytick_5">
     <g id="line2d_21">
      <g>
       <use xlink:href="#m1e76b584b3" x="117.503281" y="123.946253" style="stroke: #000000; stroke-width: 1.4"/>
      </g>
     </g>
     <g id="text_22">
      <!-- 0.10 -->
      <g transform="translate(58.339219 133.4443) scale(0.25 -0.25)">
       <use xlink:href="#DejaVuSans-30"/>
       <use xlink:href="#DejaVuSans-2e" x="63.623047"/>
       <use xlink:href="#DejaVuSans-31" x="95.410156"/>
       <use xlink:href="#DejaVuSans-30" x="159.033203"/>
      </g>
     </g>
    </g>
    <g id="text_23">
     <!-- $ \xi_R $ -->
     <g transform="translate(27.72 342.03) rotate(-90) scale(0.27 -0.27)">
      <defs>
       <path id="DejaVuSans-Oblique-3be" d="M 2016 397 
Q 2428 394 2628 159 
Q 2844 -88 2772 -463 
Q 2700 -822 2422 -1072 
Q 2119 -1344 1609 -1344 
Q 1656 -1109 1700 -872 
Q 1913 -888 2072 -750 
Q 2194 -641 2216 -525 
Q 2247 -359 2175 -222 
Q 2100 -91 1922 -91 
Q -25 -91 241 1275 
Q 422 2213 1516 2488 
Q 663 2600 822 3413 
Q 941 4028 1678 4284 
L 1028 4284 
L 1141 4863 
L 3606 4863 
L 3494 4284 
Q 1528 4284 1350 3375 
Q 1234 2778 2881 2750 
L 2778 2219 
Q 1009 2288 819 1275 
Q 659 428 2016 397 
z
" transform="scale(0.015625)"/>
       <path id="DejaVuSans-Oblique-52" d="M 1613 4147 
L 1294 2491 
L 2106 2491 
Q 2584 2491 2879 2755 
Q 3175 3019 3175 3444 
Q 3175 3784 2976 3965 
Q 2778 4147 2406 4147 
L 1613 4147 
z
M 2772 2241 
Q 2972 2194 3105 2009 
Q 3238 1825 3413 1275 
L 3809 0 
L 3144 0 
L 2778 1197 
Q 2638 1659 2453 1815 
Q 2269 1972 1888 1972 
L 1191 1972 
L 806 0 
L 172 0 
L 1081 4666 
L 2503 4666 
Q 3150 4666 3495 4373 
Q 3841 4081 3841 3531 
Q 3841 3044 3547 2687 
Q 3253 2331 2772 2241 
z
" transform="scale(0.015625)"/>
      </defs>
      <use xlink:href="#DejaVuSans-Oblique-3be" transform="translate(0 0.015625)"/>
      <use xlink:href="#DejaVuSans-Oblique-52" transform="translate(55.761719 -16.390625) scale(0.7)"/>
     </g>
    </g>
   </g>
   <g id="LineCollection_1">
    <path d="M 117.503281 618.586364 
L 117.503281 36.313636 
" clip-path="url(#p98b07fe218)" style="fill: none; stroke: #03ac13; stroke-width: 1.4"/>
    <path d="M 166.371281 514.778508 
L 166.371281 148.394524 
" clip-path="url(#p98b07fe218)" style="fill: none; stroke: #03ac13; stroke-width: 1.4"/>
    <path d="M 264.107281 468.03654 
L 264.107281 235.74624 
" clip-path="url(#p98b07fe218)" style="fill: none; stroke: #03ac13; stroke-width: 1.4"/>
    <path d="M 312.975281 450.624949 
L 312.975281 257.267206 
" clip-path="url(#p98b07fe218)" style="fill: none; stroke: #03ac13; stroke-width: 1.4"/>
    <path d="M 361.843281 408.187731 
L 361.843281 304.677734 
" clip-path="url(#p98b07fe218)" style="fill: none; stroke: #03ac13; stroke-width: 1.4"/>
    <path d="M 410.711281 435.041088 
L 410.711281 275.230737 
" clip-path="url(#p98b07fe218)" style="fill: none; stroke: #03ac13; stroke-width: 1.4"/>
    <path d="M 459.579281 443.033143 
L 459.579281 267.264691 
" clip-path="url(#p98b07fe218)" style="fill: none; stroke: #03ac13; stroke-width: 1.4"/>
    <path d="M 508.447281 443.8276 
L 508.447281 266.919454 
" clip-path="url(#p98b07fe218)" style="fill: none; stroke: #03ac13; stroke-width: 1.4"/>
    <path d="M 557.315281 430.888537 
L 557.315281 281.551327 
" clip-path="url(#p98b07fe218)" style="fill: none; stroke: #03ac13; stroke-width: 1.4"/>
    <path d="M 606.183281 462.909218 
L 606.183281 248.972185 
" clip-path="url(#p98b07fe218)" style="fill: none; stroke: #03ac13; stroke-width: 1.4"/>
    <path d="M 655.051281 465.264677 
L 655.051281 247.94202 
" clip-path="url(#p98b07fe218)" style="fill: none; stroke: #03ac13; stroke-width: 1.4"/>
    <path d="M 703.919281 431.91106 
L 703.919281 281.454573 
" clip-path="url(#p98b07fe218)" style="fill: none; stroke: #03ac13; stroke-width: 1.4"/>
    <path d="M 752.787281 475.48703 
L 752.787281 237.459404 
" clip-path="url(#p98b07fe218)" style="fill: none; stroke: #03ac13; stroke-width: 1.4"/>
    <path d="M 801.655281 462.084719 
L 801.655281 250.821037 
" clip-path="url(#p98b07fe218)" style="fill: none; stroke: #03ac13; stroke-width: 1.4"/>
    <path d="M 850.523281 443.169394 
L 850.523281 270.18934 
" clip-path="url(#p98b07fe218)" style="fill: none; stroke: #03ac13; stroke-width: 1.4"/>
   </g>
   <g id="LineCollection_2">
    <path d="M 117.503281 496.660228 
L 117.503281 164.57233 
" clip-path="url(#p98b07fe218)" style="fill: none; stroke: #00019a; stroke-width: 1.4"/>
    <path d="M 166.371281 527.337494 
L 166.371281 122.687305 
" clip-path="url(#p98b07fe218)" style="fill: none; stroke: #00019a; stroke-width: 1.4"/>
    <path d="M 264.107281 497.687995 
L 264.107281 179.110459 
" clip-path="url(#p98b07fe218)" style="fill: none; stroke: #00019a; stroke-width: 1.4"/>
    <path d="M 312.975281 483.35584 
L 312.975281 212.396624 
" clip-path="url(#p98b07fe218)" style="fill: none; stroke: #00019a; stroke-width: 1.4"/>
    <path d="M 361.843281 476.740802 
L 361.843281 225.700365 
" clip-path="url(#p98b07fe218)" style="fill: none; stroke: #00019a; stroke-width: 1.4"/>
    <path d="M 410.711281 472.170861 
L 410.711281 233.744678 
" clip-path="url(#p98b07fe218)" style="fill: none; stroke: #00019a; stroke-width: 1.4"/>
    <path d="M 459.579281 457.97972 
L 459.579281 248.570513 
" clip-path="url(#p98b07fe218)" style="fill: none; stroke: #00019a; stroke-width: 1.4"/>
    <path d="M 508.447281 459.652114 
L 508.447281 248.059283 
" clip-path="url(#p98b07fe218)" style="fill: none; stroke: #00019a; stroke-width: 1.4"/>
    <path d="M 557.315281 450.976156 
L 557.315281 257.116401 
" clip-path="url(#p98b07fe218)" style="fill: none; stroke: #00019a; stroke-width: 1.4"/>
    <path d="M 606.183281 434.012984 
L 606.183281 275.622586 
" clip-path="url(#p98b07fe218)" style="fill: none; stroke: #00019a; stroke-width: 1.4"/>
    <path d="M 655.051281 503.244612 
L 655.051281 203.004335 
" clip-path="url(#p98b07fe218)" style="fill: none; stroke: #00019a; stroke-width: 1.4"/>
    <path d="M 703.919281 430.390532 
L 703.919281 279.897847 
" clip-path="url(#p98b07fe218)" style="fill: none; stroke: #00019a; stroke-width: 1.4"/>
    <path d="M 752.787281 503.76776 
L 752.787281 203.681143 
" clip-path="url(#p98b07fe218)" style="fill: none; stroke: #00019a; stroke-width: 1.4"/>
    <path d="M 801.655281 424.029123 
L 801.655281 288.971305 
" clip-path="url(#p98b07fe218)" style="fill: none; stroke: #00019a; stroke-width: 1.4"/>
    <path d="M 850.523281 422.605127 
L 850.523281 290.242896 
" clip-path="url(#p98b07fe218)" style="fill: none; stroke: #00019a; stroke-width: 1.4"/>
   </g>
   <g id="LineCollection_3">
    <path d="M 117.503281 486.017953 
L 117.503281 177.325732 
" clip-path="url(#p98b07fe218)" style="fill: none; stroke: #fe0000; stroke-width: 1.4"/>
    <path d="M 166.371281 510.603778 
L 166.371281 134.698125 
" clip-path="url(#p98b07fe218)" style="fill: none; stroke: #fe0000; stroke-width: 1.4"/>
    <path d="M 264.107281 521.685351 
L 264.107281 143.873407 
" clip-path="url(#p98b07fe218)" style="fill: none; stroke: #fe0000; stroke-width: 1.4"/>
    <path d="M 312.975281 491.758343 
L 312.975281 177.242846 
" clip-path="url(#p98b07fe218)" style="fill: none; stroke: #fe0000; stroke-width: 1.4"/>
    <path d="M 361.843281 475.116525 
L 361.843281 210.629276 
" clip-path="url(#p98b07fe218)" style="fill: none; stroke: #fe0000; stroke-width: 1.4"/>
    <path d="M 410.711281 496.457402 
L 410.711281 201.915614 
" clip-path="url(#p98b07fe218)" style="fill: none; stroke: #fe0000; stroke-width: 1.4"/>
    <path d="M 459.579281 495.479163 
L 459.579281 209.749687 
" clip-path="url(#p98b07fe218)" style="fill: none; stroke: #fe0000; stroke-width: 1.4"/>
    <path d="M 508.447281 486.955231 
L 508.447281 222.597117 
" clip-path="url(#p98b07fe218)" style="fill: none; stroke: #fe0000; stroke-width: 1.4"/>
    <path d="M 557.315281 487.386501 
L 557.315281 226.01708 
" clip-path="url(#p98b07fe218)" style="fill: none; stroke: #fe0000; stroke-width: 1.4"/>
    <path d="M 606.183281 455.384673 
L 606.183281 261.772882 
" clip-path="url(#p98b07fe218)" style="fill: none; stroke: #fe0000; stroke-width: 1.4"/>
    <path d="M 655.051281 540.41051 
L 655.051281 174.485601 
" clip-path="url(#p98b07fe218)" style="fill: none; stroke: #fe0000; stroke-width: 1.4"/>
    <path d="M 703.919281 454.349517 
L 703.919281 261.068493 
" clip-path="url(#p98b07fe218)" style="fill: none; stroke: #fe0000; stroke-width: 1.4"/>
    <path d="M 752.787281 550.054862 
L 752.787281 165.533667 
" clip-path="url(#p98b07fe218)" style="fill: none; stroke: #fe0000; stroke-width: 1.4"/>
    <path d="M 801.655281 447.224137 
L 801.655281 264.815048 
" clip-path="url(#p98b07fe218)" style="fill: none; stroke: #fe0000; stroke-width: 1.4"/>
    <path d="M 850.523281 438.663414 
L 850.523281 280.115049 
" clip-path="url(#p98b07fe218)" style="fill: none; stroke: #fe0000; stroke-width: 1.4"/>
   </g>
   <g id="LineCollection_4">
    <path d="M 117.503281 497.34838 
L 117.503281 162.869863 
" clip-path="url(#p98b07fe218)" style="fill: none; stroke: #ffa500; stroke-width: 1.4"/>
    <path d="M 166.371281 511.16718 
L 166.371281 138.324111 
" clip-path="url(#p98b07fe218)" style="fill: none; stroke: #ffa500; stroke-width: 1.4"/>
    <path d="M 264.107281 535.984082 
L 264.107281 111.656091 
" clip-path="url(#p98b07fe218)" style="fill: none; stroke: #ffa500; stroke-width: 1.4"/>
    <path d="M 312.975281 515.19467 
L 312.975281 150.54796 
" clip-path="url(#p98b07fe218)" style="fill: none; stroke: #ffa500; stroke-width: 1.4"/>
    <path d="M 361.843281 457.862987 
L 361.843281 218.607532 
" clip-path="url(#p98b07fe218)" style="fill: none; stroke: #ffa500; stroke-width: 1.4"/>
    <path d="M 410.711281 458.877251 
L 410.711281 220.672104 
" clip-path="url(#p98b07fe218)" style="fill: none; stroke: #ffa500; stroke-width: 1.4"/>
    <path d="M 459.579281 479.462898 
L 459.579281 205.719659 
" clip-path="url(#p98b07fe218)" style="fill: none; stroke: #ffa500; stroke-width: 1.4"/>
    <path d="M 508.447281 479.590272 
L 508.447281 221.666141 
" clip-path="url(#p98b07fe218)" style="fill: none; stroke: #ffa500; stroke-width: 1.4"/>
    <path d="M 557.315281 486.329275 
L 557.315281 225.612461 
" clip-path="url(#p98b07fe218)" style="fill: none; stroke: #ffa500; stroke-width: 1.4"/>
    <path d="M 606.183281 445.807205 
L 606.183281 278.577344 
" clip-path="url(#p98b07fe218)" style="fill: none; stroke: #ffa500; stroke-width: 1.4"/>
    <path d="M 655.051281 563.727404 
L 655.051281 154.396355 
" clip-path="url(#p98b07fe218)" style="fill: none; stroke: #ffa500; stroke-width: 1.4"/>
    <path d="M 703.919281 448.360601 
L 703.919281 275.389742 
" clip-path="url(#p98b07fe218)" style="fill: none; stroke: #ffa500; stroke-width: 1.4"/>
    <path d="M 752.787281 554.866685 
L 752.787281 168.935869 
" clip-path="url(#p98b07fe218)" style="fill: none; stroke: #ffa500; stroke-width: 1.4"/>
    <path d="M 801.655281 430.330056 
L 801.655281 294.322038 
" clip-path="url(#p98b07fe218)" style="fill: none; stroke: #ffa500; stroke-width: 1.4"/>
    <path d="M 850.523281 444.028265 
L 850.523281 277.45245 
" clip-path="url(#p98b07fe218)" style="fill: none; stroke: #ffa500; stroke-width: 1.4"/>
   </g>
   <g id="line2d_22">
    <path d="M 117.503281 327.45 
L 166.371281 331.586516 
L 264.107281 351.89139 
L 312.975281 353.946077 
L 361.843281 356.432732 
L 410.711281 355.135913 
L 459.579281 355.148917 
L 508.447281 355.373527 
L 557.315281 356.219932 
L 606.183281 355.940702 
L 655.051281 356.603348 
L 703.919281 356.682816 
L 752.787281 356.473217 
L 801.655281 356.452878 
L 850.523281 356.679367 
" clip-path="url(#p98b07fe218)" style="fill: none; stroke: #03ac13; stroke-width: 1.4; stroke-linecap: square"/>
    <defs>
     <path id="m6af13c793e" d="M 0 12 
C 3.182437 12 6.234958 10.735604 8.485281 8.485281 
C 10.735604 6.234958 12 3.182437 12 0 
C 12 -3.182437 10.735604 -6.234958 8.485281 -8.485281 
C 6.234958 -10.735604 3.182437 -12 0 -12 
C -3.182437 -12 -6.234958 -10.735604 -8.485281 -8.485281 
C -10.735604 -6.234958 -12 -3.182437 -12 0 
C -12 3.182437 -10.735604 6.234958 -8.485281 8.485281 
C -6.234958 10.735604 -3.182437 12 0 12 
z
" style="stroke: #03ac13; stroke-width: 1.4"/>
    </defs>
    <g clip-path="url(#p98b07fe218)">
     <use xlink:href="#m6af13c793e" x="117.503281" y="327.45" style="fill-opacity: 0; stroke: #03ac13; stroke-width: 1.4"/>
     <use xlink:href="#m6af13c793e" x="166.371281" y="331.586516" style="fill-opacity: 0; stroke: #03ac13; stroke-width: 1.4"/>
     <use xlink:href="#m6af13c793e" x="264.107281" y="351.89139" style="fill-opacity: 0; stroke: #03ac13; stroke-width: 1.4"/>
     <use xlink:href="#m6af13c793e" x="312.975281" y="353.946077" style="fill-opacity: 0; stroke: #03ac13; stroke-width: 1.4"/>
     <use xlink:href="#m6af13c793e" x="361.843281" y="356.432732" style="fill-opacity: 0; stroke: #03ac13; stroke-width: 1.4"/>
     <use xlink:href="#m6af13c793e" x="410.711281" y="355.135913" style="fill-opacity: 0; stroke: #03ac13; stroke-width: 1.4"/>
     <use xlink:href="#m6af13c793e" x="459.579281" y="355.148917" style="fill-opacity: 0; stroke: #03ac13; stroke-width: 1.4"/>
     <use xlink:href="#m6af13c793e" x="508.447281" y="355.373527" style="fill-opacity: 0; stroke: #03ac13; stroke-width: 1.4"/>
     <use xlink:href="#m6af13c793e" x="557.315281" y="356.219932" style="fill-opacity: 0; stroke: #03ac13; stroke-width: 1.4"/>
     <use xlink:href="#m6af13c793e" x="606.183281" y="355.940702" style="fill-opacity: 0; stroke: #03ac13; stroke-width: 1.4"/>
     <use xlink:href="#m6af13c793e" x="655.051281" y="356.603348" style="fill-opacity: 0; stroke: #03ac13; stroke-width: 1.4"/>
     <use xlink:href="#m6af13c793e" x="703.919281" y="356.682816" style="fill-opacity: 0; stroke: #03ac13; stroke-width: 1.4"/>
     <use xlink:href="#m6af13c793e" x="752.787281" y="356.473217" style="fill-opacity: 0; stroke: #03ac13; stroke-width: 1.4"/>
     <use xlink:href="#m6af13c793e" x="801.655281" y="356.452878" style="fill-opacity: 0; stroke: #03ac13; stroke-width: 1.4"/>
     <use xlink:href="#m6af13c793e" x="850.523281" y="356.679367" style="fill-opacity: 0; stroke: #03ac13; stroke-width: 1.4"/>
    </g>
   </g>
   <g id="line2d_23">
    <path d="M 117.503281 330.616279 
L 166.371281 325.0124 
L 264.107281 338.399227 
L 312.975281 347.876232 
L 361.843281 351.220584 
L 410.711281 352.957769 
L 459.579281 353.275117 
L 508.447281 353.855698 
L 557.315281 354.046279 
L 606.183281 354.817785 
L 655.051281 353.124474 
L 703.919281 355.144189 
L 752.787281 353.724452 
L 801.655281 356.500214 
L 850.523281 356.424012 
" clip-path="url(#p98b07fe218)" style="fill: none; stroke: #00019a; stroke-width: 1.4; stroke-linecap: square"/>
    <defs>
     <path id="m4ce241973f" d="M -0 12 
L 12 -12 
L -12 -12 
z
" style="stroke: #00019a; stroke-width: 1.4; stroke-linejoin: miter"/>
    </defs>
    <g clip-path="url(#p98b07fe218)">
     <use xlink:href="#m4ce241973f" x="117.503281" y="330.616279" style="fill-opacity: 0; stroke: #00019a; stroke-width: 1.4; stroke-linejoin: miter"/>
     <use xlink:href="#m4ce241973f" x="166.371281" y="325.0124" style="fill-opacity: 0; stroke: #00019a; stroke-width: 1.4; stroke-linejoin: miter"/>
     <use xlink:href="#m4ce241973f" x="264.107281" y="338.399227" style="fill-opacity: 0; stroke: #00019a; stroke-width: 1.4; stroke-linejoin: miter"/>
     <use xlink:href="#m4ce241973f" x="312.975281" y="347.876232" style="fill-opacity: 0; stroke: #00019a; stroke-width: 1.4; stroke-linejoin: miter"/>
     <use xlink:href="#m4ce241973f" x="361.843281" y="351.220584" style="fill-opacity: 0; stroke: #00019a; stroke-width: 1.4; stroke-linejoin: miter"/>
     <use xlink:href="#m4ce241973f" x="410.711281" y="352.957769" style="fill-opacity: 0; stroke: #00019a; stroke-width: 1.4; stroke-linejoin: miter"/>
     <use xlink:href="#m4ce241973f" x="459.579281" y="353.275117" style="fill-opacity: 0; stroke: #00019a; stroke-width: 1.4; stroke-linejoin: miter"/>
     <use xlink:href="#m4ce241973f" x="508.447281" y="353.855698" style="fill-opacity: 0; stroke: #00019a; stroke-width: 1.4; stroke-linejoin: miter"/>
     <use xlink:href="#m4ce241973f" x="557.315281" y="354.046279" style="fill-opacity: 0; stroke: #00019a; stroke-width: 1.4; stroke-linejoin: miter"/>
     <use xlink:href="#m4ce241973f" x="606.183281" y="354.817785" style="fill-opacity: 0; stroke: #00019a; stroke-width: 1.4; stroke-linejoin: miter"/>
     <use xlink:href="#m4ce241973f" x="655.051281" y="353.124474" style="fill-opacity: 0; stroke: #00019a; stroke-width: 1.4; stroke-linejoin: miter"/>
     <use xlink:href="#m4ce241973f" x="703.919281" y="355.144189" style="fill-opacity: 0; stroke: #00019a; stroke-width: 1.4; stroke-linejoin: miter"/>
     <use xlink:href="#m4ce241973f" x="752.787281" y="353.724452" style="fill-opacity: 0; stroke: #00019a; stroke-width: 1.4; stroke-linejoin: miter"/>
     <use xlink:href="#m4ce241973f" x="801.655281" y="356.500214" style="fill-opacity: 0; stroke: #00019a; stroke-width: 1.4; stroke-linejoin: miter"/>
     <use xlink:href="#m4ce241973f" x="850.523281" y="356.424012" style="fill-opacity: 0; stroke: #00019a; stroke-width: 1.4; stroke-linejoin: miter"/>
    </g>
   </g>
   <g id="line2d_24">
    <path d="M 117.503281 331.671843 
L 166.371281 322.650952 
L 264.107281 332.779379 
L 312.975281 334.500595 
L 361.843281 342.8729 
L 410.711281 349.186508 
L 459.579281 352.614425 
L 508.447281 354.776174 
L 557.315281 356.70179 
L 606.183281 358.578777 
L 655.051281 357.448056 
L 703.919281 357.709005 
L 752.787281 357.794265 
L 801.655281 356.019592 
L 850.523281 359.389232 
" clip-path="url(#p98b07fe218)" style="fill: none; stroke: #fe0000; stroke-width: 1.4; stroke-linecap: square"/>
    <defs>
     <path id="m43650b4522" d="M -12 12 
L 12 12 
L 12 -12 
L -12 -12 
z
" style="stroke: #fe0000; stroke-width: 1.4; stroke-linejoin: miter"/>
    </defs>
    <g clip-path="url(#p98b07fe218)">
     <use xlink:href="#m43650b4522" x="117.503281" y="331.671843" style="fill-opacity: 0; stroke: #fe0000; stroke-width: 1.4; stroke-linejoin: miter"/>
     <use xlink:href="#m43650b4522" x="166.371281" y="322.650952" style="fill-opacity: 0; stroke: #fe0000; stroke-width: 1.4; stroke-linejoin: miter"/>
     <use xlink:href="#m43650b4522" x="264.107281" y="332.779379" style="fill-opacity: 0; stroke: #fe0000; stroke-width: 1.4; stroke-linejoin: miter"/>
     <use xlink:href="#m43650b4522" x="312.975281" y="334.500595" style="fill-opacity: 0; stroke: #fe0000; stroke-width: 1.4; stroke-linejoin: miter"/>
     <use xlink:href="#m43650b4522" x="361.843281" y="342.8729" style="fill-opacity: 0; stroke: #fe0000; stroke-width: 1.4; stroke-linejoin: miter"/>
     <use xlink:href="#m43650b4522" x="410.711281" y="349.186508" style="fill-opacity: 0; stroke: #fe0000; stroke-width: 1.4; stroke-linejoin: miter"/>
     <use xlink:href="#m43650b4522" x="459.579281" y="352.614425" style="fill-opacity: 0; stroke: #fe0000; stroke-width: 1.4; stroke-linejoin: miter"/>
     <use xlink:href="#m43650b4522" x="508.447281" y="354.776174" style="fill-opacity: 0; stroke: #fe0000; stroke-width: 1.4; stroke-linejoin: miter"/>
     <use xlink:href="#m43650b4522" x="557.315281" y="356.70179" style="fill-opacity: 0; stroke: #fe0000; stroke-width: 1.4; stroke-linejoin: miter"/>
     <use xlink:href="#m43650b4522" x="606.183281" y="358.578777" style="fill-opacity: 0; stroke: #fe0000; stroke-width: 1.4; stroke-linejoin: miter"/>
     <use xlink:href="#m43650b4522" x="655.051281" y="357.448056" style="fill-opacity: 0; stroke: #fe0000; stroke-width: 1.4; stroke-linejoin: miter"/>
     <use xlink:href="#m43650b4522" x="703.919281" y="357.709005" style="fill-opacity: 0; stroke: #fe0000; stroke-width: 1.4; stroke-linejoin: miter"/>
     <use xlink:href="#m43650b4522" x="752.787281" y="357.794265" style="fill-opacity: 0; stroke: #fe0000; stroke-width: 1.4; stroke-linejoin: miter"/>
     <use xlink:href="#m43650b4522" x="801.655281" y="356.019592" style="fill-opacity: 0; stroke: #fe0000; stroke-width: 1.4; stroke-linejoin: miter"/>
     <use xlink:href="#m43650b4522" x="850.523281" y="359.389232" style="fill-opacity: 0; stroke: #fe0000; stroke-width: 1.4; stroke-linejoin: miter"/>
    </g>
   </g>
   <g id="line2d_25">
    <path d="M 117.503281 330.109122 
L 166.371281 324.745646 
L 264.107281 323.820087 
L 312.975281 332.871315 
L 361.843281 338.23526 
L 410.711281 339.774677 
L 459.579281 342.591278 
L 508.447281 350.628207 
L 557.315281 355.970868 
L 606.183281 362.192275 
L 655.051281 359.06188 
L 703.919281 361.875172 
L 752.787281 361.901277 
L 801.655281 362.326047 
L 850.523281 360.740358 
" clip-path="url(#p98b07fe218)" style="fill: none; stroke: #ffa500; stroke-width: 1.4; stroke-linecap: square"/>
    <defs>
     <path id="mbdd30b2bd0" d="M 0 -12 
L -12 12 
L 12 12 
z
" style="stroke: #ffa500; stroke-width: 1.4; stroke-linejoin: miter"/>
    </defs>
    <g clip-path="url(#p98b07fe218)">
     <use xlink:href="#mbdd30b2bd0" x="117.503281" y="330.109122" style="fill-opacity: 0; stroke: #ffa500; stroke-width: 1.4; stroke-linejoin: miter"/>
     <use xlink:href="#mbdd30b2bd0" x="166.371281" y="324.745646" style="fill-opacity: 0; stroke: #ffa500; stroke-width: 1.4; stroke-linejoin: miter"/>
     <use xlink:href="#mbdd30b2bd0" x="264.107281" y="323.820087" style="fill-opacity: 0; stroke: #ffa500; stroke-width: 1.4; stroke-linejoin: miter"/>
     <use xlink:href="#mbdd30b2bd0" x="312.975281" y="332.871315" style="fill-opacity: 0; stroke: #ffa500; stroke-width: 1.4; stroke-linejoin: miter"/>
     <use xlink:href="#mbdd30b2bd0" x="361.843281" y="338.23526" style="fill-opacity: 0; stroke: #ffa500; stroke-width: 1.4; stroke-linejoin: miter"/>
     <use xlink:href="#mbdd30b2bd0" x="410.711281" y="339.774677" style="fill-opacity: 0; stroke: #ffa500; stroke-width: 1.4; stroke-linejoin: miter"/>
     <use xlink:href="#mbdd30b2bd0" x="459.579281" y="342.591278" style="fill-opacity: 0; stroke: #ffa500; stroke-width: 1.4; stroke-linejoin: miter"/>
     <use xlink:href="#mbdd30b2bd0" x="508.447281" y="350.628207" style="fill-opacity: 0; stroke: #ffa500; stroke-width: 1.4; stroke-linejoin: miter"/>
     <use xlink:href="#mbdd30b2bd0" x="557.315281" y="355.970868" style="fill-opacity: 0; stroke: #ffa500; stroke-width: 1.4; stroke-linejoin: miter"/>
     <use xlink:href="#mbdd30b2bd0" x="606.183281" y="362.192275" style="fill-opacity: 0; stroke: #ffa500; stroke-width: 1.4; stroke-linejoin: miter"/>
     <use xlink:href="#mbdd30b2bd0" x="655.051281" y="359.06188" style="fill-opacity: 0; stroke: #ffa500; stroke-width: 1.4; stroke-linejoin: miter"/>
     <use xlink:href="#mbdd30b2bd0" x="703.919281" y="361.875172" style="fill-opacity: 0; stroke: #ffa500; stroke-width: 1.4; stroke-linejoin: miter"/>
     <use xlink:href="#mbdd30b2bd0" x="752.787281" y="361.901277" style="fill-opacity: 0; stroke: #ffa500; stroke-width: 1.4; stroke-linejoin: miter"/>
     <use xlink:href="#mbdd30b2bd0" x="801.655281" y="362.326047" style="fill-opacity: 0; stroke: #ffa500; stroke-width: 1.4; stroke-linejoin: miter"/>
     <use xlink:href="#mbdd30b2bd0" x="850.523281" y="360.740358" style="fill-opacity: 0; stroke: #ffa500; stroke-width: 1.4; stroke-linejoin: miter"/>
    </g>
   </g>
   <g id="patch_3">
    <path d="M 117.503281 647.7 
L 117.503281 7.2 
" style="fill: none; stroke: #000000; stroke-width: 2.4; stroke-linejoin: miter; stroke-linecap: square"/>
   </g>
   <g id="patch_4">
    <path d="M 850.523281 647.7 
L 850.523281 7.2 
" style="fill: none; stroke: #000000; stroke-width: 2.4; stroke-linejoin: miter; stroke-linecap: square"/>
   </g>
   <g id="patch_5">
    <path d="M 117.503281 647.7 
L 850.523281 647.7 
" style="fill: none; stroke: #000000; stroke-width: 2.4; stroke-linejoin: miter; stroke-linecap: square"/>
   </g>
   <g id="patch_6">
    <path d="M 117.503281 7.2 
L 850.523281 7.2 
" style="fill: none; stroke: #000000; stroke-width: 2.4; stroke-linejoin: miter; stroke-linecap: square"/>
   </g>
  </g>
  <g id="legend_1">
   <g id="patch_7">
    <path d="M 865.923281 424.28375 
L 996.706406 424.28375 
Q 1001.106406 424.28375 1001.106406 419.88375 
L 1001.106406 292.91625 
Q 1001.106406 288.51625 996.706406 288.51625 
L 865.923281 288.51625 
Q 861.523281 288.51625 861.523281 292.91625 
L 861.523281 419.88375 
Q 861.523281 424.28375 865.923281 424.28375 
L 865.923281 424.28375 
z
" style="fill: none; opacity: 0"/>
   </g>
   <g id="LineCollection_5">
    <path d="M 892.323281 317.332812 
L 892.323281 295.332812 
" style="fill: none; stroke: #03ac13; stroke-width: 1.4"/>
   </g>
   <g id="line2d_26">
    <path d="M 870.323281 306.332812 
L 914.323281 306.332812 
" style="fill: none; stroke: #03ac13; stroke-width: 1.4; stroke-linecap: square"/>
   </g>
   <g id="line2d_27">
    <g>
     <use xlink:href="#m6af13c793e" x="892.323281" y="306.332812" style="fill-opacity: 0; stroke: #03ac13; stroke-width: 1.4"/>
    </g>
   </g>
   <g id="text_24">
    <!-- d = 1 -->
    <g transform="translate(931.923281 314.032812) scale(0.22 -0.22)">
     <defs>
      <path id="DejaVuSans-64" d="M 2906 2969 
L 2906 4863 
L 3481 4863 
L 3481 0 
L 2906 0 
L 2906 525 
Q 2725 213 2448 61 
Q 2172 -91 1784 -91 
Q 1150 -91 751 415 
Q 353 922 353 1747 
Q 353 2572 751 3078 
Q 1150 3584 1784 3584 
Q 2172 3584 2448 3432 
Q 2725 3281 2906 2969 
z
M 947 1747 
Q 947 1113 1208 752 
Q 1469 391 1925 391 
Q 2381 391 2643 752 
Q 2906 1113 2906 1747 
Q 2906 2381 2643 2742 
Q 2381 3103 1925 3103 
Q 1469 3103 1208 2742 
Q 947 2381 947 1747 
z
" transform="scale(0.015625)"/>
      <path id="DejaVuSans-20" transform="scale(0.015625)"/>
      <path id="DejaVuSans-3d" d="M 678 2906 
L 4684 2906 
L 4684 2381 
L 678 2381 
L 678 2906 
z
M 678 1631 
L 4684 1631 
L 4684 1100 
L 678 1100 
L 678 1631 
z
" transform="scale(0.015625)"/>
     </defs>
     <use xlink:href="#DejaVuSans-64"/>
     <use xlink:href="#DejaVuSans-20" x="63.476562"/>
     <use xlink:href="#DejaVuSans-3d" x="95.263672"/>
     <use xlink:href="#DejaVuSans-20" x="179.052734"/>
     <use xlink:href="#DejaVuSans-31" x="210.839844"/>
    </g>
   </g>
   <g id="LineCollection_6">
    <path d="M 892.323281 349.624687 
L 892.323281 327.624687 
" style="fill: none; stroke: #00019a; stroke-width: 1.4"/>
   </g>
   <g id="line2d_28">
    <path d="M 870.323281 338.624687 
L 914.323281 338.624687 
" style="fill: none; stroke: #00019a; stroke-width: 1.4; stroke-linecap: square"/>
   </g>
   <g id="line2d_29">
    <g>
     <use xlink:href="#m4ce241973f" x="892.323281" y="338.624687" style="fill-opacity: 0; stroke: #00019a; stroke-width: 1.4; stroke-linejoin: miter"/>
    </g>
   </g>
   <g id="text_25">
    <!-- d = 2 -->
    <g transform="translate(931.923281 346.324687) scale(0.22 -0.22)">
     <use xlink:href="#DejaVuSans-64"/>
     <use xlink:href="#DejaVuSans-20" x="63.476562"/>
     <use xlink:href="#DejaVuSans-3d" x="95.263672"/>
     <use xlink:href="#DejaVuSans-20" x="179.052734"/>
     <use xlink:href="#DejaVuSans-32" x="210.839844"/>
    </g>
   </g>
   <g id="LineCollection_7">
    <path d="M 892.323281 381.916562 
L 892.323281 359.916562 
" style="fill: none; stroke: #fe0000; stroke-width: 1.4"/>
   </g>
   <g id="line2d_30">
    <path d="M 870.323281 370.916562 
L 914.323281 370.916562 
" style="fill: none; stroke: #fe0000; stroke-width: 1.4; stroke-linecap: square"/>
   </g>
   <g id="line2d_31">
    <g>
     <use xlink:href="#m43650b4522" x="892.323281" y="370.916562" style="fill-opacity: 0; stroke: #fe0000; stroke-width: 1.4; stroke-linejoin: miter"/>
    </g>
   </g>
   <g id="text_26">
    <!-- d = 3 -->
    <g transform="translate(931.923281 378.616562) scale(0.22 -0.22)">
     <use xlink:href="#DejaVuSans-64"/>
     <use xlink:href="#DejaVuSans-20" x="63.476562"/>
     <use xlink:href="#DejaVuSans-3d" x="95.263672"/>
     <use xlink:href="#DejaVuSans-20" x="179.052734"/>
     <use xlink:href="#DejaVuSans-33" x="210.839844"/>
    </g>
   </g>
   <g id="LineCollection_8">
    <path d="M 892.323281 414.208438 
L 892.323281 392.208438 
" style="fill: none; stroke: #ffa500; stroke-width: 1.4"/>
   </g>
   <g id="line2d_32">
    <path d="M 870.323281 403.208438 
L 914.323281 403.208438 
" style="fill: none; stroke: #ffa500; stroke-width: 1.4; stroke-linecap: square"/>
   </g>
   <g id="line2d_33">
    <g>
     <use xlink:href="#mbdd30b2bd0" x="892.323281" y="403.208438" style="fill-opacity: 0; stroke: #ffa500; stroke-width: 1.4; stroke-linejoin: miter"/>
    </g>
   </g>
   <g id="text_27">
    <!-- d = 4 -->
    <g transform="translate(931.923281 410.908437) scale(0.22 -0.22)">
     <use xlink:href="#DejaVuSans-64"/>
     <use xlink:href="#DejaVuSans-20" x="63.476562"/>
     <use xlink:href="#DejaVuSans-3d" x="95.263672"/>
     <use xlink:href="#DejaVuSans-20" x="179.052734"/>
     <use xlink:href="#DejaVuSans-34" x="210.839844"/>
    </g>
   </g>
  </g>
 </g>
 <defs>
  <clipPath id="p98b07fe218">
   <rect x="117.503281" y="7.2" width="733.02" height="640.5"/>
  </clipPath>
 </defs>
</svg>
