<?xml version="1.0" encoding="utf-8" standalone="no"?>
<!DOCTYPE svg PUBLIC "-//W3C//DTD SVG 1.1//EN"
  "http://www.w3.org/Graphics/SVG/1.1/DTD/svg11.dtd">
<svg xmlns:xlink="http://www.w3.org/1999/xlink" width="1008.369687pt" height="712.72625pt" viewBox="0 0 1008.369687 712.72625" xmlns="http://www.w3.org/2000/svg" version="1.1">
 <metadata>
  <rdf:RDF xmlns:dc="http://purl.org/dc/elements/1.1/" xmlns:cc="http://creativecommons.org/ns#" xmlns:rdf="http://www.w3.org/1999/02/22-rdf-syntax-ns#">
   <cc:Work>
    <dc:type rdf:resource="http://purl.org/dc/dcmitype/StillImage"/>
    <dc:date>2024-11-25T14:04:43.904857</dc:date>
    <dc:format>image/svg+xml</dc:format>
    <dc:creator>
     <cc:Agent>
      <dc:title>Matplotlib v3.9.1, https://matplotlib.org/</dc:title>
     </cc:Agent>
    </dc:creator>
   </cc:Work>
  </rdf:RDF>
 </metadata>
 <defs>
  <style type="text/css">*{stroke-linejoin: round; stroke-linecap: butt}</style>
 </defs>
 <g id="figure_1">
  <g id="patch_1">
   <path d="M 0 712.72625 
L 1008.369688 712.72625 
L 1008.369688 0 
L 0 0 
z
" style="fill: #ffffff"/>
  </g>
  <g id="axes_1">
   <g id="patch_2">
    <path d="M 128.366563 647.7 
L 850.586563 647.7 
L 850.586563 7.2 
L 128.366563 7.2 
z
" style="fill: #ffffff"/>
   </g>
   <g id="matplotlib.axis_1">
    <g id="xtick_1">
     <g id="line2d_1">
      <defs>
       <path id="m5a7aba6f4f" d="M 0 0 
L 0 -10 
" style="stroke: #000000; stroke-width: 1.4"/>
      </defs>
      <g>
       <use xlink:href="#m5a7aba6f4f" x="128.366563" y="647.7" style="stroke: #000000; stroke-width: 1.4"/>
      </g>
     </g>
     <g id="text_1">
      <!-- 0 -->
      <g transform="translate(120.413438 670.196094) scale(0.25 -0.25)">
       <defs>
        <path id="DejaVuSans-30" d="M 2034 4250 
Q 1547 4250 1301 3770 
Q 1056 3291 1056 2328 
Q 1056 1369 1301 889 
Q 1547 409 2034 409 
Q 2525 409 2770 889 
Q 3016 1369 3016 2328 
Q 3016 3291 2770 3770 
Q 2525 4250 2034 4250 
z
M 2034 4750 
Q 2819 4750 3233 4129 
Q 3647 3509 3647 2328 
Q 3647 1150 3233 529 
Q 2819 -91 2034 -91 
Q 1250 -91 836 529 
Q 422 1150 422 2328 
Q 422 3509 836 4129 
Q 1250 4750 2034 4750 
z
" transform="scale(0.015625)"/>
       </defs>
       <use xlink:href="#DejaVuSans-30"/>
      </g>
     </g>
    </g>
    <g id="xtick_2">
     <g id="line2d_2">
      <g>
       <use xlink:href="#m5a7aba6f4f" x="176.514563" y="647.7" style="stroke: #000000; stroke-width: 1.4"/>
      </g>
     </g>
     <g id="text_2">
      <!-- 1 -->
      <g transform="translate(168.561438 670.196094) scale(0.25 -0.25)">
       <defs>
        <path id="DejaVuSans-31" d="M 794 531 
L 1825 531 
L 1825 4091 
L 703 3866 
L 703 4441 
L 1819 4666 
L 2450 4666 
L 2450 531 
L 3481 531 
L 3481 0 
L 794 0 
L 794 531 
z
" transform="scale(0.015625)"/>
       </defs>
       <use xlink:href="#DejaVuSans-31"/>
      </g>
     </g>
    </g>
    <g id="xtick_3">
     <g id="line2d_3">
      <g>
       <use xlink:href="#m5a7aba6f4f" x="224.662563" y="647.7" style="stroke: #000000; stroke-width: 1.4"/>
      </g>
     </g>
     <g id="text_3">
      <!-- 2 -->
      <g transform="translate(216.709438 670.196094) scale(0.25 -0.25)">
       <defs>
        <path id="DejaVuSans-32" d="M 1228 531 
L 3431 531 
L 3431 0 
L 469 0 
L 469 531 
Q 828 903 1448 1529 
Q 2069 2156 2228 2338 
Q 2531 2678 2651 2914 
Q 2772 3150 2772 3378 
Q 2772 3750 2511 3984 
Q 2250 4219 1831 4219 
Q 1534 4219 1204 4116 
Q 875 4013 500 3803 
L 500 4441 
Q 881 4594 1212 4672 
Q 1544 4750 1819 4750 
Q 2544 4750 2975 4387 
Q 3406 4025 3406 3419 
Q 3406 3131 3298 2873 
Q 3191 2616 2906 2266 
Q 2828 2175 2409 1742 
Q 1991 1309 1228 531 
z
" transform="scale(0.015625)"/>
       </defs>
       <use xlink:href="#DejaVuSans-32"/>
      </g>
     </g>
    </g>
    <g id="xtick_4">
     <g id="line2d_4">
      <g>
       <use xlink:href="#m5a7aba6f4f" x="272.810563" y="647.7" style="stroke: #000000; stroke-width: 1.4"/>
      </g>
     </g>
     <g id="text_4">
      <!-- 3 -->
      <g transform="translate(264.857438 670.196094) scale(0.25 -0.25)">
       <defs>
        <path id="DejaVuSans-33" d="M 2597 2516 
Q 3050 2419 3304 2112 
Q 3559 1806 3559 1356 
Q 3559 666 3084 287 
Q 2609 -91 1734 -91 
Q 1441 -91 1130 -33 
Q 819 25 488 141 
L 488 750 
Q 750 597 1062 519 
Q 1375 441 1716 441 
Q 2309 441 2620 675 
Q 2931 909 2931 1356 
Q 2931 1769 2642 2001 
Q 2353 2234 1838 2234 
L 1294 2234 
L 1294 2753 
L 1863 2753 
Q 2328 2753 2575 2939 
Q 2822 3125 2822 3475 
Q 2822 3834 2567 4026 
Q 2313 4219 1838 4219 
Q 1578 4219 1281 4162 
Q 984 4106 628 3988 
L 628 4550 
Q 988 4650 1302 4700 
Q 1616 4750 1894 4750 
Q 2613 4750 3031 4423 
Q 3450 4097 3450 3541 
Q 3450 3153 3228 2886 
Q 3006 2619 2597 2516 
z
" transform="scale(0.015625)"/>
       </defs>
       <use xlink:href="#DejaVuSans-33"/>
      </g>
     </g>
    </g>
    <g id="xtick_5">
     <g id="line2d_5">
      <g>
       <use xlink:href="#m5a7aba6f4f" x="320.958563" y="647.7" style="stroke: #000000; stroke-width: 1.4"/>
      </g>
     </g>
     <g id="text_5">
      <!-- 4 -->
      <g transform="translate(313.005438 670.196094) scale(0.25 -0.25)">
       <defs>
        <path id="DejaVuSans-34" d="M 2419 4116 
L 825 1625 
L 2419 1625 
L 2419 4116 
z
M 2253 4666 
L 3047 4666 
L 3047 1625 
L 3713 1625 
L 3713 1100 
L 3047 1100 
L 3047 0 
L 2419 0 
L 2419 1100 
L 313 1100 
L 313 1709 
L 2253 4666 
z
" transform="scale(0.015625)"/>
       </defs>
       <use xlink:href="#DejaVuSans-34"/>
      </g>
     </g>
    </g>
    <g id="xtick_6">
     <g id="line2d_6">
      <g>
       <use xlink:href="#m5a7aba6f4f" x="369.106562" y="647.7" style="stroke: #000000; stroke-width: 1.4"/>
      </g>
     </g>
     <g id="text_6">
      <!-- 5 -->
      <g transform="translate(361.153437 670.196094) scale(0.25 -0.25)">
       <defs>
        <path id="DejaVuSans-35" d="M 691 4666 
L 3169 4666 
L 3169 4134 
L 1269 4134 
L 1269 2991 
Q 1406 3038 1543 3061 
Q 1681 3084 1819 3084 
Q 2600 3084 3056 2656 
Q 3513 2228 3513 1497 
Q 3513 744 3044 326 
Q 2575 -91 1722 -91 
Q 1428 -91 1123 -41 
Q 819 9 494 109 
L 494 744 
Q 775 591 1075 516 
Q 1375 441 1709 441 
Q 2250 441 2565 725 
Q 2881 1009 2881 1497 
Q 2881 1984 2565 2268 
Q 2250 2553 1709 2553 
Q 1456 2553 1204 2497 
Q 953 2441 691 2322 
L 691 4666 
z
" transform="scale(0.015625)"/>
       </defs>
       <use xlink:href="#DejaVuSans-35"/>
      </g>
     </g>
    </g>
    <g id="xtick_7">
     <g id="line2d_7">
      <g>
       <use xlink:href="#m5a7aba6f4f" x="417.254563" y="647.7" style="stroke: #000000; stroke-width: 1.4"/>
      </g>
     </g>
     <g id="text_7">
      <!-- 6 -->
      <g transform="translate(409.301438 670.196094) scale(0.25 -0.25)">
       <defs>
        <path id="DejaVuSans-36" d="M 2113 2584 
Q 1688 2584 1439 2293 
Q 1191 2003 1191 1497 
Q 1191 994 1439 701 
Q 1688 409 2113 409 
Q 2538 409 2786 701 
Q 3034 994 3034 1497 
Q 3034 2003 2786 2293 
Q 2538 2584 2113 2584 
z
M 3366 4563 
L 3366 3988 
Q 3128 4100 2886 4159 
Q 2644 4219 2406 4219 
Q 1781 4219 1451 3797 
Q 1122 3375 1075 2522 
Q 1259 2794 1537 2939 
Q 1816 3084 2150 3084 
Q 2853 3084 3261 2657 
Q 3669 2231 3669 1497 
Q 3669 778 3244 343 
Q 2819 -91 2113 -91 
Q 1303 -91 875 529 
Q 447 1150 447 2328 
Q 447 3434 972 4092 
Q 1497 4750 2381 4750 
Q 2619 4750 2861 4703 
Q 3103 4656 3366 4563 
z
" transform="scale(0.015625)"/>
       </defs>
       <use xlink:href="#DejaVuSans-36"/>
      </g>
     </g>
    </g>
    <g id="xtick_8">
     <g id="line2d_8">
      <g>
       <use xlink:href="#m5a7aba6f4f" x="465.402563" y="647.7" style="stroke: #000000; stroke-width: 1.4"/>
      </g>
     </g>
     <g id="text_8">
      <!-- 7 -->
      <g transform="translate(457.449438 670.196094) scale(0.25 -0.25)">
       <defs>
        <path id="DejaVuSans-37" d="M 525 4666 
L 3525 4666 
L 3525 4397 
L 1831 0 
L 1172 0 
L 2766 4134 
L 525 4134 
L 525 4666 
z
" transform="scale(0.015625)"/>
       </defs>
       <use xlink:href="#DejaVuSans-37"/>
      </g>
     </g>
    </g>
    <g id="xtick_9">
     <g id="line2d_9">
      <g>
       <use xlink:href="#m5a7aba6f4f" x="513.550563" y="647.7" style="stroke: #000000; stroke-width: 1.4"/>
      </g>
     </g>
     <g id="text_9">
      <!-- 8 -->
      <g transform="translate(505.597438 670.196094) scale(0.25 -0.25)">
       <defs>
        <path id="DejaVuSans-38" d="M 2034 2216 
Q 1584 2216 1326 1975 
Q 1069 1734 1069 1313 
Q 1069 891 1326 650 
Q 1584 409 2034 409 
Q 2484 409 2743 651 
Q 3003 894 3003 1313 
Q 3003 1734 2745 1975 
Q 2488 2216 2034 2216 
z
M 1403 2484 
Q 997 2584 770 2862 
Q 544 3141 544 3541 
Q 544 4100 942 4425 
Q 1341 4750 2034 4750 
Q 2731 4750 3128 4425 
Q 3525 4100 3525 3541 
Q 3525 3141 3298 2862 
Q 3072 2584 2669 2484 
Q 3125 2378 3379 2068 
Q 3634 1759 3634 1313 
Q 3634 634 3220 271 
Q 2806 -91 2034 -91 
Q 1263 -91 848 271 
Q 434 634 434 1313 
Q 434 1759 690 2068 
Q 947 2378 1403 2484 
z
M 1172 3481 
Q 1172 3119 1398 2916 
Q 1625 2713 2034 2713 
Q 2441 2713 2670 2916 
Q 2900 3119 2900 3481 
Q 2900 3844 2670 4047 
Q 2441 4250 2034 4250 
Q 1625 4250 1398 4047 
Q 1172 3844 1172 3481 
z
" transform="scale(0.015625)"/>
       </defs>
       <use xlink:href="#DejaVuSans-38"/>
      </g>
     </g>
    </g>
    <g id="xtick_10">
     <g id="line2d_10">
      <g>
       <use xlink:href="#m5a7aba6f4f" x="561.698563" y="647.7" style="stroke: #000000; stroke-width: 1.4"/>
      </g>
     </g>
     <g id="text_10">
      <!-- 9 -->
      <g transform="translate(553.745438 670.196094) scale(0.25 -0.25)">
       <defs>
        <path id="DejaVuSans-39" d="M 703 97 
L 703 672 
Q 941 559 1184 500 
Q 1428 441 1663 441 
Q 2288 441 2617 861 
Q 2947 1281 2994 2138 
Q 2813 1869 2534 1725 
Q 2256 1581 1919 1581 
Q 1219 1581 811 2004 
Q 403 2428 403 3163 
Q 403 3881 828 4315 
Q 1253 4750 1959 4750 
Q 2769 4750 3195 4129 
Q 3622 3509 3622 2328 
Q 3622 1225 3098 567 
Q 2575 -91 1691 -91 
Q 1453 -91 1209 -44 
Q 966 3 703 97 
z
M 1959 2075 
Q 2384 2075 2632 2365 
Q 2881 2656 2881 3163 
Q 2881 3666 2632 3958 
Q 2384 4250 1959 4250 
Q 1534 4250 1286 3958 
Q 1038 3666 1038 3163 
Q 1038 2656 1286 2365 
Q 1534 2075 1959 2075 
z
" transform="scale(0.015625)"/>
       </defs>
       <use xlink:href="#DejaVuSans-39"/>
      </g>
     </g>
    </g>
    <g id="xtick_11">
     <g id="line2d_11">
      <g>
       <use xlink:href="#m5a7aba6f4f" x="609.846563" y="647.7" style="stroke: #000000; stroke-width: 1.4"/>
      </g>
     </g>
     <g id="text_11">
      <!-- 10 -->
      <g transform="translate(593.940313 670.196094) scale(0.25 -0.25)">
       <use xlink:href="#DejaVuSans-31"/>
       <use xlink:href="#DejaVuSans-30" x="63.623047"/>
      </g>
     </g>
    </g>
    <g id="xtick_12">
     <g id="line2d_12">
      <g>
       <use xlink:href="#m5a7aba6f4f" x="657.994563" y="647.7" style="stroke: #000000; stroke-width: 1.4"/>
      </g>
     </g>
     <g id="text_12">
      <!-- 11 -->
      <g transform="translate(642.088313 670.196094) scale(0.25 -0.25)">
       <use xlink:href="#DejaVuSans-31"/>
       <use xlink:href="#DejaVuSans-31" x="63.623047"/>
      </g>
     </g>
    </g>
    <g id="xtick_13">
     <g id="line2d_13">
      <g>
       <use xlink:href="#m5a7aba6f4f" x="706.142563" y="647.7" style="stroke: #000000; stroke-width: 1.4"/>
      </g>
     </g>
     <g id="text_13">
      <!-- 12 -->
      <g transform="translate(690.236313 670.196094) scale(0.25 -0.25)">
       <use xlink:href="#DejaVuSans-31"/>
       <use xlink:href="#DejaVuSans-32" x="63.623047"/>
      </g>
     </g>
    </g>
    <g id="xtick_14">
     <g id="line2d_14">
      <g>
       <use xlink:href="#m5a7aba6f4f" x="754.290563" y="647.7" style="stroke: #000000; stroke-width: 1.4"/>
      </g>
     </g>
     <g id="text_14">
      <!-- 13 -->
      <g transform="translate(738.384313 670.196094) scale(0.25 -0.25)">
       <use xlink:href="#DejaVuSans-31"/>
       <use xlink:href="#DejaVuSans-33" x="63.623047"/>
      </g>
     </g>
    </g>
    <g id="xtick_15">
     <g id="line2d_15">
      <g>
       <use xlink:href="#m5a7aba6f4f" x="802.438562" y="647.7" style="stroke: #000000; stroke-width: 1.4"/>
      </g>
     </g>
     <g id="text_15">
      <!-- 14 -->
      <g transform="translate(786.532312 670.196094) scale(0.25 -0.25)">
       <use xlink:href="#DejaVuSans-31"/>
       <use xlink:href="#DejaVuSans-34" x="63.623047"/>
      </g>
     </g>
    </g>
    <g id="xtick_16">
     <g id="line2d_16">
      <g>
       <use xlink:href="#m5a7aba6f4f" x="850.586563" y="647.7" style="stroke: #000000; stroke-width: 1.4"/>
      </g>
     </g>
     <g id="text_16">
      <!-- 15 -->
      <g transform="translate(834.680313 670.196094) scale(0.25 -0.25)">
       <use xlink:href="#DejaVuSans-31"/>
       <use xlink:href="#DejaVuSans-35" x="63.623047"/>
      </g>
     </g>
    </g>
    <g id="text_17">
     <!-- $\alpha_a$ -->
     <g transform="translate(474.356562 699.911094) scale(0.27 -0.27)">
      <defs>
       <path id="DejaVuSans-Oblique-3b1" d="M 2619 1628 
L 2622 2350 
Q 2625 3088 2069 3091 
Q 1653 3094 1394 2747 
Q 1069 2319 959 1747 
Q 825 1059 994 731 
Q 1169 397 1547 397 
Q 1966 397 2319 1063 
L 2619 1628 
z
M 2166 3578 
Q 3141 3594 3128 2584 
Q 3128 2584 3616 3500 
L 4128 3500 
L 3119 1603 
L 3109 919 
Q 3109 766 3194 638 
Q 3291 488 3391 488 
L 3669 488 
L 3575 0 
L 3228 0 
Q 2934 0 2722 263 
Q 2622 394 2619 669 
Q 2416 334 2066 50 
Q 1900 -81 1453 -78 
Q 722 -72 456 397 
Q 184 884 353 1747 
Q 534 2675 1009 3097 
Q 1544 3569 2166 3578 
z
" transform="scale(0.015625)"/>
       <path id="DejaVuSans-Oblique-61" d="M 3438 1997 
L 3047 0 
L 2472 0 
L 2578 531 
Q 2325 219 2001 64 
Q 1678 -91 1281 -91 
Q 834 -91 548 182 
Q 263 456 263 884 
Q 263 1497 752 1853 
Q 1241 2209 2100 2209 
L 2900 2209 
L 2931 2363 
Q 2938 2388 2941 2417 
Q 2944 2447 2944 2509 
Q 2944 2788 2717 2942 
Q 2491 3097 2081 3097 
Q 1800 3097 1504 3025 
Q 1209 2953 897 2809 
L 997 3341 
Q 1322 3463 1633 3523 
Q 1944 3584 2234 3584 
Q 2853 3584 3176 3315 
Q 3500 3047 3500 2534 
Q 3500 2431 3484 2292 
Q 3469 2153 3438 1997 
z
M 2816 1759 
L 2241 1759 
Q 1534 1759 1195 1570 
Q 856 1381 856 984 
Q 856 709 1029 553 
Q 1203 397 1509 397 
Q 1978 397 2328 733 
Q 2678 1069 2791 1631 
L 2816 1759 
z
" transform="scale(0.015625)"/>
      </defs>
      <use xlink:href="#DejaVuSans-Oblique-3b1" transform="translate(0 0.84375)"/>
      <use xlink:href="#DejaVuSans-Oblique-61" transform="translate(65.917969 -15.5625) scale(0.7)"/>
     </g>
    </g>
   </g>
   <g id="matplotlib.axis_2">
    <g id="ytick_1">
     <g id="line2d_17">
      <defs>
       <path id="m67c9e80f17" d="M 0 0 
L 10 0 
" style="stroke: #000000; stroke-width: 1.4"/>
      </defs>
      <g>
       <use xlink:href="#m67c9e80f17" x="128.366563" y="646.007431" style="stroke: #000000; stroke-width: 1.4"/>
      </g>
     </g>
     <g id="text_18">
      <!-- 0.0000 -->
      <g transform="translate(37.39 655.505478) scale(0.25 -0.25)">
       <defs>
        <path id="DejaVuSans-2e" d="M 684 794 
L 1344 794 
L 1344 0 
L 684 0 
L 684 794 
z
" transform="scale(0.015625)"/>
       </defs>
       <use xlink:href="#DejaVuSans-30"/>
       <use xlink:href="#DejaVuSans-2e" x="63.623047"/>
       <use xlink:href="#DejaVuSans-30" x="95.410156"/>
       <use xlink:href="#DejaVuSans-30" x="159.033203"/>
       <use xlink:href="#DejaVuSans-30" x="222.65625"/>
       <use xlink:href="#DejaVuSans-30" x="286.279297"/>
      </g>
     </g>
    </g>
    <g id="ytick_2">
     <g id="line2d_18">
      <g>
       <use xlink:href="#m67c9e80f17" x="128.366563" y="569.248713" style="stroke: #000000; stroke-width: 1.4"/>
      </g>
     </g>
     <g id="text_19">
      <!-- 0.0025 -->
      <g transform="translate(37.39 578.746759) scale(0.25 -0.25)">
       <use xlink:href="#DejaVuSans-30"/>
       <use xlink:href="#DejaVuSans-2e" x="63.623047"/>
       <use xlink:href="#DejaVuSans-30" x="95.410156"/>
       <use xlink:href="#DejaVuSans-30" x="159.033203"/>
       <use xlink:href="#DejaVuSans-32" x="222.65625"/>
       <use xlink:href="#DejaVuSans-35" x="286.279297"/>
      </g>
     </g>
    </g>
    <g id="ytick_3">
     <g id="line2d_19">
      <g>
       <use xlink:href="#m67c9e80f17" x="128.366563" y="492.489994" style="stroke: #000000; stroke-width: 1.4"/>
      </g>
     </g>
     <g id="text_20">
      <!-- 0.0050 -->
      <g transform="translate(37.39 501.988041) scale(0.25 -0.25)">
       <use xlink:href="#DejaVuSans-30"/>
       <use xlink:href="#DejaVuSans-2e" x="63.623047"/>
       <use xlink:href="#DejaVuSans-30" x="95.410156"/>
       <use xlink:href="#DejaVuSans-30" x="159.033203"/>
       <use xlink:href="#DejaVuSans-35" x="222.65625"/>
       <use xlink:href="#DejaVuSans-30" x="286.279297"/>
      </g>
     </g>
    </g>
    <g id="ytick_4">
     <g id="line2d_20">
      <g>
       <use xlink:href="#m67c9e80f17" x="128.366563" y="415.731275" style="stroke: #000000; stroke-width: 1.4"/>
      </g>
     </g>
     <g id="text_21">
      <!-- 0.0075 -->
      <g transform="translate(37.39 425.229322) scale(0.25 -0.25)">
       <use xlink:href="#DejaVuSans-30"/>
       <use xlink:href="#DejaVuSans-2e" x="63.623047"/>
       <use xlink:href="#DejaVuSans-30" x="95.410156"/>
       <use xlink:href="#DejaVuSans-30" x="159.033203"/>
       <use xlink:href="#DejaVuSans-37" x="222.65625"/>
       <use xlink:href="#DejaVuSans-35" x="286.279297"/>
      </g>
     </g>
    </g>
    <g id="ytick_5">
     <g id="line2d_21">
      <g>
       <use xlink:href="#m67c9e80f17" x="128.366563" y="338.972556" style="stroke: #000000; stroke-width: 1.4"/>
      </g>
     </g>
     <g id="text_22">
      <!-- 0.0100 -->
      <g transform="translate(37.39 348.470603) scale(0.25 -0.25)">
       <use xlink:href="#DejaVuSans-30"/>
       <use xlink:href="#DejaVuSans-2e" x="63.623047"/>
       <use xlink:href="#DejaVuSans-30" x="95.410156"/>
       <use xlink:href="#DejaVuSans-31" x="159.033203"/>
       <use xlink:href="#DejaVuSans-30" x="222.65625"/>
       <use xlink:href="#DejaVuSans-30" x="286.279297"/>
      </g>
     </g>
    </g>
    <g id="ytick_6">
     <g id="line2d_22">
      <g>
       <use xlink:href="#m67c9e80f17" x="128.366563" y="262.213838" style="stroke: #000000; stroke-width: 1.4"/>
      </g>
     </g>
     <g id="text_23">
      <!-- 0.0125 -->
      <g transform="translate(37.39 271.711885) scale(0.25 -0.25)">
       <use xlink:href="#DejaVuSans-30"/>
       <use xlink:href="#DejaVuSans-2e" x="63.623047"/>
       <use xlink:href="#DejaVuSans-30" x="95.410156"/>
       <use xlink:href="#DejaVuSans-31" x="159.033203"/>
       <use xlink:href="#DejaVuSans-32" x="222.65625"/>
       <use xlink:href="#DejaVuSans-35" x="286.279297"/>
      </g>
     </g>
    </g>
    <g id="ytick_7">
     <g id="line2d_23">
      <g>
       <use xlink:href="#m67c9e80f17" x="128.366563" y="185.455119" style="stroke: #000000; stroke-width: 1.4"/>
      </g>
     </g>
     <g id="text_24">
      <!-- 0.0150 -->
      <g transform="translate(37.39 194.953166) scale(0.25 -0.25)">
       <use xlink:href="#DejaVuSans-30"/>
       <use xlink:href="#DejaVuSans-2e" x="63.623047"/>
       <use xlink:href="#DejaVuSans-30" x="95.410156"/>
       <use xlink:href="#DejaVuSans-31" x="159.033203"/>
       <use xlink:href="#DejaVuSans-35" x="222.65625"/>
       <use xlink:href="#DejaVuSans-30" x="286.279297"/>
      </g>
     </g>
    </g>
    <g id="ytick_8">
     <g id="line2d_24">
      <g>
       <use xlink:href="#m67c9e80f17" x="128.366563" y="108.6964" style="stroke: #000000; stroke-width: 1.4"/>
      </g>
     </g>
     <g id="text_25">
      <!-- 0.0175 -->
      <g transform="translate(37.39 118.194447) scale(0.25 -0.25)">
       <use xlink:href="#DejaVuSans-30"/>
       <use xlink:href="#DejaVuSans-2e" x="63.623047"/>
       <use xlink:href="#DejaVuSans-30" x="95.410156"/>
       <use xlink:href="#DejaVuSans-31" x="159.033203"/>
       <use xlink:href="#DejaVuSans-37" x="222.65625"/>
       <use xlink:href="#DejaVuSans-35" x="286.279297"/>
      </g>
     </g>
    </g>
    <g id="ytick_9">
     <g id="line2d_25">
      <g>
       <use xlink:href="#m67c9e80f17" x="128.366563" y="31.937682" style="stroke: #000000; stroke-width: 1.4"/>
      </g>
     </g>
     <g id="text_26">
      <!-- 0.0200 -->
      <g transform="translate(37.39 41.435728) scale(0.25 -0.25)">
       <use xlink:href="#DejaVuSans-30"/>
       <use xlink:href="#DejaVuSans-2e" x="63.623047"/>
       <use xlink:href="#DejaVuSans-30" x="95.410156"/>
       <use xlink:href="#DejaVuSans-32" x="159.033203"/>
       <use xlink:href="#DejaVuSans-30" x="222.65625"/>
       <use xlink:href="#DejaVuSans-30" x="286.279297"/>
      </g>
     </g>
    </g>
    <g id="text_27">
     <!-- $ \xi_R $ -->
     <g transform="translate(27.72 342.03) rotate(-90) scale(0.27 -0.27)">
      <defs>
       <path id="DejaVuSans-Oblique-3be" d="M 2016 397 
Q 2428 394 2628 159 
Q 2844 -88 2772 -463 
Q 2700 -822 2422 -1072 
Q 2119 -1344 1609 -1344 
Q 1656 -1109 1700 -872 
Q 1913 -888 2072 -750 
Q 2194 -641 2216 -525 
Q 2247 -359 2175 -222 
Q 2100 -91 1922 -91 
Q -25 -91 241 1275 
Q 422 2213 1516 2488 
Q 663 2600 822 3413 
Q 941 4028 1678 4284 
L 1028 4284 
L 1141 4863 
L 3606 4863 
L 3494 4284 
Q 1528 4284 1350 3375 
Q 1234 2778 2881 2750 
L 2778 2219 
Q 1009 2288 819 1275 
Q 659 428 2016 397 
z
" transform="scale(0.015625)"/>
       <path id="DejaVuSans-Oblique-52" d="M 1613 4147 
L 1294 2491 
L 2106 2491 
Q 2584 2491 2879 2755 
Q 3175 3019 3175 3444 
Q 3175 3784 2976 3965 
Q 2778 4147 2406 4147 
L 1613 4147 
z
M 2772 2241 
Q 2972 2194 3105 2009 
Q 3238 1825 3413 1275 
L 3809 0 
L 3144 0 
L 2778 1197 
Q 2638 1659 2453 1815 
Q 2269 1972 1888 1972 
L 1191 1972 
L 806 0 
L 172 0 
L 1081 4666 
L 2503 4666 
Q 3150 4666 3495 4373 
Q 3841 4081 3841 3531 
Q 3841 3044 3547 2687 
Q 3253 2331 2772 2241 
z
" transform="scale(0.015625)"/>
      </defs>
      <use xlink:href="#DejaVuSans-Oblique-3be" transform="translate(0 0.015625)"/>
      <use xlink:href="#DejaVuSans-Oblique-52" transform="translate(55.761719 -16.390625) scale(0.7)"/>
     </g>
    </g>
   </g>
   <g id="LineCollection_1">
    <path d="M 128.366563 226.867656 
L 128.366563 158.943701 
" clip-path="url(#pc5354c16b0)" style="fill: none; stroke: #03ac13; stroke-width: 1.4"/>
    <path d="M 176.514563 212.333323 
L 176.514563 144.162805 
" clip-path="url(#pc5354c16b0)" style="fill: none; stroke: #03ac13; stroke-width: 1.4"/>
    <path d="M 272.810563 523.990984 
L 272.810563 483.630812 
" clip-path="url(#pc5354c16b0)" style="fill: none; stroke: #03ac13; stroke-width: 1.4"/>
    <path d="M 320.958563 553.158365 
L 320.958563 522.137785 
" clip-path="url(#pc5354c16b0)" style="fill: none; stroke: #03ac13; stroke-width: 1.4"/>
    <path d="M 369.106562 567.347812 
L 369.106562 536.220799 
" clip-path="url(#pc5354c16b0)" style="fill: none; stroke: #03ac13; stroke-width: 1.4"/>
    <path d="M 417.254563 569.908316 
L 417.254563 541.240601 
" clip-path="url(#pc5354c16b0)" style="fill: none; stroke: #03ac13; stroke-width: 1.4"/>
    <path d="M 465.402563 570.56521 
L 465.402563 542.053923 
" clip-path="url(#pc5354c16b0)" style="fill: none; stroke: #03ac13; stroke-width: 1.4"/>
    <path d="M 513.550563 569.299643 
L 513.550563 538.614064 
" clip-path="url(#pc5354c16b0)" style="fill: none; stroke: #03ac13; stroke-width: 1.4"/>
    <path d="M 561.698563 580.633636 
L 561.698563 551.376878 
" clip-path="url(#pc5354c16b0)" style="fill: none; stroke: #03ac13; stroke-width: 1.4"/>
    <path d="M 609.846563 595.224176 
L 609.846563 573.093201 
" clip-path="url(#pc5354c16b0)" style="fill: none; stroke: #03ac13; stroke-width: 1.4"/>
    <path d="M 657.994563 570.795213 
L 657.994563 545.465722 
" clip-path="url(#pc5354c16b0)" style="fill: none; stroke: #03ac13; stroke-width: 1.4"/>
    <path d="M 706.142563 614.274638 
L 706.142563 579.556884 
" clip-path="url(#pc5354c16b0)" style="fill: none; stroke: #03ac13; stroke-width: 1.4"/>
    <path d="M 754.290563 575.711384 
L 754.290563 551.230257 
" clip-path="url(#pc5354c16b0)" style="fill: none; stroke: #03ac13; stroke-width: 1.4"/>
    <path d="M 802.438562 592.343679 
L 802.438562 565.076218 
" clip-path="url(#pc5354c16b0)" style="fill: none; stroke: #03ac13; stroke-width: 1.4"/>
    <path d="M 850.586563 618.586364 
L 850.586563 593.696201 
" clip-path="url(#pc5354c16b0)" style="fill: none; stroke: #03ac13; stroke-width: 1.4"/>
   </g>
   <g id="LineCollection_2">
    <path d="M 128.366563 229.704566 
L 128.366563 167.941309 
" clip-path="url(#pc5354c16b0)" style="fill: none; stroke: #00019a; stroke-width: 1.4"/>
    <path d="M 176.514563 143.044907 
L 176.514563 69.59816 
" clip-path="url(#pc5354c16b0)" style="fill: none; stroke: #00019a; stroke-width: 1.4"/>
    <path d="M 272.810563 299.905566 
L 272.810563 232.356133 
" clip-path="url(#pc5354c16b0)" style="fill: none; stroke: #00019a; stroke-width: 1.4"/>
    <path d="M 320.958563 448.941357 
L 320.958563 389.192296 
" clip-path="url(#pc5354c16b0)" style="fill: none; stroke: #00019a; stroke-width: 1.4"/>
    <path d="M 369.106562 466.106699 
L 369.106562 411.891367 
" clip-path="url(#pc5354c16b0)" style="fill: none; stroke: #00019a; stroke-width: 1.4"/>
    <path d="M 417.254563 508.126356 
L 417.254563 457.243272 
" clip-path="url(#pc5354c16b0)" style="fill: none; stroke: #00019a; stroke-width: 1.4"/>
    <path d="M 465.402563 498.874232 
L 465.402563 457.313506 
" clip-path="url(#pc5354c16b0)" style="fill: none; stroke: #00019a; stroke-width: 1.4"/>
    <path d="M 513.550563 505.985118 
L 513.550563 463.818108 
" clip-path="url(#pc5354c16b0)" style="fill: none; stroke: #00019a; stroke-width: 1.4"/>
    <path d="M 561.698563 516.164338 
L 561.698563 471.344112 
" clip-path="url(#pc5354c16b0)" style="fill: none; stroke: #00019a; stroke-width: 1.4"/>
    <path d="M 609.846563 541.561555 
L 609.846563 499.551061 
" clip-path="url(#pc5354c16b0)" style="fill: none; stroke: #00019a; stroke-width: 1.4"/>
    <path d="M 657.994563 488.231426 
L 657.994563 445.159191 
" clip-path="url(#pc5354c16b0)" style="fill: none; stroke: #00019a; stroke-width: 1.4"/>
    <path d="M 706.142563 548.264928 
L 706.142563 520.330233 
" clip-path="url(#pc5354c16b0)" style="fill: none; stroke: #00019a; stroke-width: 1.4"/>
    <path d="M 754.290563 498.71073 
L 754.290563 460.869519 
" clip-path="url(#pc5354c16b0)" style="fill: none; stroke: #00019a; stroke-width: 1.4"/>
    <path d="M 802.438562 562.711403 
L 802.438562 525.644547 
" clip-path="url(#pc5354c16b0)" style="fill: none; stroke: #00019a; stroke-width: 1.4"/>
    <path d="M 850.586563 554.482988 
L 850.586563 523.643162 
" clip-path="url(#pc5354c16b0)" style="fill: none; stroke: #00019a; stroke-width: 1.4"/>
   </g>
   <g id="LineCollection_3">
    <path d="M 128.366563 216.047142 
L 128.366563 140.17186 
" clip-path="url(#pc5354c16b0)" style="fill: none; stroke: #fe0000; stroke-width: 1.4"/>
    <path d="M 176.514563 108.546866 
L 176.514563 36.313636 
" clip-path="url(#pc5354c16b0)" style="fill: none; stroke: #fe0000; stroke-width: 1.4"/>
    <path d="M 272.810563 204.168142 
L 272.810563 160.040285 
" clip-path="url(#pc5354c16b0)" style="fill: none; stroke: #fe0000; stroke-width: 1.4"/>
    <path d="M 320.958563 256.627254 
L 320.958563 201.632258 
" clip-path="url(#pc5354c16b0)" style="fill: none; stroke: #fe0000; stroke-width: 1.4"/>
    <path d="M 369.106562 372.358529 
L 369.106562 294.402396 
" clip-path="url(#pc5354c16b0)" style="fill: none; stroke: #fe0000; stroke-width: 1.4"/>
    <path d="M 417.254563 444.806854 
L 417.254563 385.196106 
" clip-path="url(#pc5354c16b0)" style="fill: none; stroke: #fe0000; stroke-width: 1.4"/>
    <path d="M 465.402563 496.996706 
L 465.402563 451.511934 
" clip-path="url(#pc5354c16b0)" style="fill: none; stroke: #fe0000; stroke-width: 1.4"/>
    <path d="M 513.550563 522.510864 
L 513.550563 478.072116 
" clip-path="url(#pc5354c16b0)" style="fill: none; stroke: #fe0000; stroke-width: 1.4"/>
    <path d="M 561.698563 522.919211 
L 561.698563 490.084035 
" clip-path="url(#pc5354c16b0)" style="fill: none; stroke: #fe0000; stroke-width: 1.4"/>
    <path d="M 609.846563 573.705806 
L 609.846563 538.913334 
" clip-path="url(#pc5354c16b0)" style="fill: none; stroke: #fe0000; stroke-width: 1.4"/>
    <path d="M 657.994563 535.771391 
L 657.994563 509.949634 
" clip-path="url(#pc5354c16b0)" style="fill: none; stroke: #fe0000; stroke-width: 1.4"/>
    <path d="M 706.142563 538.287681 
L 706.142563 524.288385 
" clip-path="url(#pc5354c16b0)" style="fill: none; stroke: #fe0000; stroke-width: 1.4"/>
    <path d="M 754.290563 533.273461 
L 754.290563 509.080183 
" clip-path="url(#pc5354c16b0)" style="fill: none; stroke: #fe0000; stroke-width: 1.4"/>
    <path d="M 802.438562 534.482616 
L 802.438562 512.840341 
" clip-path="url(#pc5354c16b0)" style="fill: none; stroke: #fe0000; stroke-width: 1.4"/>
    <path d="M 850.586563 572.3186 
L 850.586563 545.311656 
" clip-path="url(#pc5354c16b0)" style="fill: none; stroke: #fe0000; stroke-width: 1.4"/>
   </g>
   <g id="LineCollection_4">
    <path d="M 128.366563 200.121756 
L 128.366563 128.883316 
" clip-path="url(#pc5354c16b0)" style="fill: none; stroke: #ffa500; stroke-width: 1.4"/>
    <path d="M 176.514563 128.402386 
L 176.514563 60.168527 
" clip-path="url(#pc5354c16b0)" style="fill: none; stroke: #ffa500; stroke-width: 1.4"/>
    <path d="M 272.810563 111.215393 
L 272.810563 54.337629 
" clip-path="url(#pc5354c16b0)" style="fill: none; stroke: #ffa500; stroke-width: 1.4"/>
    <path d="M 320.958563 215.374004 
L 320.958563 172.131335 
" clip-path="url(#pc5354c16b0)" style="fill: none; stroke: #ffa500; stroke-width: 1.4"/>
    <path d="M 369.106562 282.897822 
L 369.106562 238.577205 
" clip-path="url(#pc5354c16b0)" style="fill: none; stroke: #ffa500; stroke-width: 1.4"/>
    <path d="M 417.254563 340.779365 
L 417.254563 275.067463 
" clip-path="url(#pc5354c16b0)" style="fill: none; stroke: #ffa500; stroke-width: 1.4"/>
    <path d="M 465.402563 422.314442 
L 465.402563 342.791193 
" clip-path="url(#pc5354c16b0)" style="fill: none; stroke: #ffa500; stroke-width: 1.4"/>
    <path d="M 513.550563 471.197394 
L 513.550563 400.12788 
" clip-path="url(#pc5354c16b0)" style="fill: none; stroke: #ffa500; stroke-width: 1.4"/>
    <path d="M 561.698563 554.756241 
L 561.698563 497.227453 
" clip-path="url(#pc5354c16b0)" style="fill: none; stroke: #ffa500; stroke-width: 1.4"/>
    <path d="M 609.846563 613.771196 
L 609.846563 571.541815 
" clip-path="url(#pc5354c16b0)" style="fill: none; stroke: #ffa500; stroke-width: 1.4"/>
    <path d="M 657.994563 576.17133 
L 657.994563 539.812987 
" clip-path="url(#pc5354c16b0)" style="fill: none; stroke: #ffa500; stroke-width: 1.4"/>
    <path d="M 706.142563 607.652291 
L 706.142563 577.693916 
" clip-path="url(#pc5354c16b0)" style="fill: none; stroke: #ffa500; stroke-width: 1.4"/>
    <path d="M 754.290563 588.893395 
L 754.290563 564.61517 
" clip-path="url(#pc5354c16b0)" style="fill: none; stroke: #ffa500; stroke-width: 1.4"/>
    <path d="M 802.438562 616.60872 
L 802.438562 602.201221 
" clip-path="url(#pc5354c16b0)" style="fill: none; stroke: #ffa500; stroke-width: 1.4"/>
    <path d="M 850.586563 599.344619 
L 850.586563 574.67059 
" clip-path="url(#pc5354c16b0)" style="fill: none; stroke: #ffa500; stroke-width: 1.4"/>
   </g>
   <g id="line2d_26">
    <path d="M 128.366563 192.905679 
L 176.514563 178.248064 
L 272.810563 503.810898 
L 320.958563 537.648075 
L 369.106562 551.784306 
L 417.254563 555.574459 
L 465.402563 556.309566 
L 513.550563 553.956854 
L 561.698563 566.005257 
L 609.846563 584.158688 
L 657.994563 558.130467 
L 706.142563 596.915761 
L 754.290563 563.47082 
L 802.438562 578.709949 
L 850.586563 606.141282 
" clip-path="url(#pc5354c16b0)" style="fill: none; stroke: #03ac13; stroke-width: 1.4; stroke-linecap: square"/>
    <defs>
     <path id="m0a32aa258c" d="M 0 12 
C 3.182437 12 6.234958 10.735604 8.485281 8.485281 
C 10.735604 6.234958 12 3.182437 12 0 
C 12 -3.182437 10.735604 -6.234958 8.485281 -8.485281 
C 6.234958 -10.735604 3.182437 -12 0 -12 
C -3.182437 -12 -6.234958 -10.735604 -8.485281 -8.485281 
C -10.735604 -6.234958 -12 -3.182437 -12 0 
C -12 3.182437 -10.735604 6.234958 -8.485281 8.485281 
C -6.234958 10.735604 -3.182437 12 0 12 
z
" style="stroke: #03ac13; stroke-width: 1.4"/>
    </defs>
    <g clip-path="url(#pc5354c16b0)">
     <use xlink:href="#m0a32aa258c" x="128.366563" y="192.905679" style="fill-opacity: 0; stroke: #03ac13; stroke-width: 1.4"/>
     <use xlink:href="#m0a32aa258c" x="176.514563" y="178.248064" style="fill-opacity: 0; stroke: #03ac13; stroke-width: 1.4"/>
     <use xlink:href="#m0a32aa258c" x="272.810563" y="503.810898" style="fill-opacity: 0; stroke: #03ac13; stroke-width: 1.4"/>
     <use xlink:href="#m0a32aa258c" x="320.958563" y="537.648075" style="fill-opacity: 0; stroke: #03ac13; stroke-width: 1.4"/>
     <use xlink:href="#m0a32aa258c" x="369.106562" y="551.784306" style="fill-opacity: 0; stroke: #03ac13; stroke-width: 1.4"/>
     <use xlink:href="#m0a32aa258c" x="417.254563" y="555.574459" style="fill-opacity: 0; stroke: #03ac13; stroke-width: 1.4"/>
     <use xlink:href="#m0a32aa258c" x="465.402563" y="556.309566" style="fill-opacity: 0; stroke: #03ac13; stroke-width: 1.4"/>
     <use xlink:href="#m0a32aa258c" x="513.550563" y="553.956854" style="fill-opacity: 0; stroke: #03ac13; stroke-width: 1.4"/>
     <use xlink:href="#m0a32aa258c" x="561.698563" y="566.005257" style="fill-opacity: 0; stroke: #03ac13; stroke-width: 1.4"/>
     <use xlink:href="#m0a32aa258c" x="609.846563" y="584.158688" style="fill-opacity: 0; stroke: #03ac13; stroke-width: 1.4"/>
     <use xlink:href="#m0a32aa258c" x="657.994563" y="558.130467" style="fill-opacity: 0; stroke: #03ac13; stroke-width: 1.4"/>
     <use xlink:href="#m0a32aa258c" x="706.142563" y="596.915761" style="fill-opacity: 0; stroke: #03ac13; stroke-width: 1.4"/>
     <use xlink:href="#m0a32aa258c" x="754.290563" y="563.47082" style="fill-opacity: 0; stroke: #03ac13; stroke-width: 1.4"/>
     <use xlink:href="#m0a32aa258c" x="802.438562" y="578.709949" style="fill-opacity: 0; stroke: #03ac13; stroke-width: 1.4"/>
     <use xlink:href="#m0a32aa258c" x="850.586563" y="606.141282" style="fill-opacity: 0; stroke: #03ac13; stroke-width: 1.4"/>
    </g>
   </g>
   <g id="line2d_27">
    <path d="M 128.366563 198.822937 
L 176.514563 106.321534 
L 272.810563 266.130849 
L 320.958563 419.066827 
L 369.106562 438.999033 
L 417.254563 482.684814 
L 465.402563 478.093869 
L 513.550563 484.901613 
L 561.698563 493.754225 
L 609.846563 520.556308 
L 657.994563 466.695308 
L 706.142563 534.29758 
L 754.290563 479.790125 
L 802.438562 544.177975 
L 850.586563 539.063075 
" clip-path="url(#pc5354c16b0)" style="fill: none; stroke: #00019a; stroke-width: 1.4; stroke-linecap: square"/>
    <defs>
     <path id="maa465db08a" d="M -0 12 
L 12 -12 
L -12 -12 
z
" style="stroke: #00019a; stroke-width: 1.4; stroke-linejoin: miter"/>
    </defs>
    <g clip-path="url(#pc5354c16b0)">
     <use xlink:href="#maa465db08a" x="128.366563" y="198.822937" style="fill-opacity: 0; stroke: #00019a; stroke-width: 1.4; stroke-linejoin: miter"/>
     <use xlink:href="#maa465db08a" x="176.514563" y="106.321534" style="fill-opacity: 0; stroke: #00019a; stroke-width: 1.4; stroke-linejoin: miter"/>
     <use xlink:href="#maa465db08a" x="272.810563" y="266.130849" style="fill-opacity: 0; stroke: #00019a; stroke-width: 1.4; stroke-linejoin: miter"/>
     <use xlink:href="#maa465db08a" x="320.958563" y="419.066827" style="fill-opacity: 0; stroke: #00019a; stroke-width: 1.4; stroke-linejoin: miter"/>
     <use xlink:href="#maa465db08a" x="369.106562" y="438.999033" style="fill-opacity: 0; stroke: #00019a; stroke-width: 1.4; stroke-linejoin: miter"/>
     <use xlink:href="#maa465db08a" x="417.254563" y="482.684814" style="fill-opacity: 0; stroke: #00019a; stroke-width: 1.4; stroke-linejoin: miter"/>
     <use xlink:href="#maa465db08a" x="465.402563" y="478.093869" style="fill-opacity: 0; stroke: #00019a; stroke-width: 1.4; stroke-linejoin: miter"/>
     <use xlink:href="#maa465db08a" x="513.550563" y="484.901613" style="fill-opacity: 0; stroke: #00019a; stroke-width: 1.4; stroke-linejoin: miter"/>
     <use xlink:href="#maa465db08a" x="561.698563" y="493.754225" style="fill-opacity: 0; stroke: #00019a; stroke-width: 1.4; stroke-linejoin: miter"/>
     <use xlink:href="#maa465db08a" x="609.846563" y="520.556308" style="fill-opacity: 0; stroke: #00019a; stroke-width: 1.4; stroke-linejoin: miter"/>
     <use xlink:href="#maa465db08a" x="657.994563" y="466.695308" style="fill-opacity: 0; stroke: #00019a; stroke-width: 1.4; stroke-linejoin: miter"/>
     <use xlink:href="#maa465db08a" x="706.142563" y="534.29758" style="fill-opacity: 0; stroke: #00019a; stroke-width: 1.4; stroke-linejoin: miter"/>
     <use xlink:href="#maa465db08a" x="754.290563" y="479.790125" style="fill-opacity: 0; stroke: #00019a; stroke-width: 1.4; stroke-linejoin: miter"/>
     <use xlink:href="#maa465db08a" x="802.438562" y="544.177975" style="fill-opacity: 0; stroke: #00019a; stroke-width: 1.4; stroke-linejoin: miter"/>
     <use xlink:href="#maa465db08a" x="850.586563" y="539.063075" style="fill-opacity: 0; stroke: #00019a; stroke-width: 1.4; stroke-linejoin: miter"/>
    </g>
   </g>
   <g id="line2d_28">
    <path d="M 128.366563 178.109501 
L 176.514563 72.430251 
L 272.810563 182.104214 
L 320.958563 229.129756 
L 369.106562 333.380463 
L 417.254563 415.00148 
L 465.402563 474.25432 
L 513.550563 500.29149 
L 561.698563 506.501623 
L 609.846563 556.30957 
L 657.994563 522.860513 
L 706.142563 531.288033 
L 754.290563 521.176822 
L 802.438562 523.661478 
L 850.586563 558.815128 
" clip-path="url(#pc5354c16b0)" style="fill: none; stroke: #fe0000; stroke-width: 1.4; stroke-linecap: square"/>
    <defs>
     <path id="mc4e426c027" d="M -12 12 
L 12 12 
L 12 -12 
L -12 -12 
z
" style="stroke: #fe0000; stroke-width: 1.4; stroke-linejoin: miter"/>
    </defs>
    <g clip-path="url(#pc5354c16b0)">
     <use xlink:href="#mc4e426c027" x="128.366563" y="178.109501" style="fill-opacity: 0; stroke: #fe0000; stroke-width: 1.4; stroke-linejoin: miter"/>
     <use xlink:href="#mc4e426c027" x="176.514563" y="72.430251" style="fill-opacity: 0; stroke: #fe0000; stroke-width: 1.4; stroke-linejoin: miter"/>
     <use xlink:href="#mc4e426c027" x="272.810563" y="182.104214" style="fill-opacity: 0; stroke: #fe0000; stroke-width: 1.4; stroke-linejoin: miter"/>
     <use xlink:href="#mc4e426c027" x="320.958563" y="229.129756" style="fill-opacity: 0; stroke: #fe0000; stroke-width: 1.4; stroke-linejoin: miter"/>
     <use xlink:href="#mc4e426c027" x="369.106562" y="333.380463" style="fill-opacity: 0; stroke: #fe0000; stroke-width: 1.4; stroke-linejoin: miter"/>
     <use xlink:href="#mc4e426c027" x="417.254563" y="415.00148" style="fill-opacity: 0; stroke: #fe0000; stroke-width: 1.4; stroke-linejoin: miter"/>
     <use xlink:href="#mc4e426c027" x="465.402563" y="474.25432" style="fill-opacity: 0; stroke: #fe0000; stroke-width: 1.4; stroke-linejoin: miter"/>
     <use xlink:href="#mc4e426c027" x="513.550563" y="500.29149" style="fill-opacity: 0; stroke: #fe0000; stroke-width: 1.4; stroke-linejoin: miter"/>
     <use xlink:href="#mc4e426c027" x="561.698563" y="506.501623" style="fill-opacity: 0; stroke: #fe0000; stroke-width: 1.4; stroke-linejoin: miter"/>
     <use xlink:href="#mc4e426c027" x="609.846563" y="556.30957" style="fill-opacity: 0; stroke: #fe0000; stroke-width: 1.4; stroke-linejoin: miter"/>
     <use xlink:href="#mc4e426c027" x="657.994563" y="522.860513" style="fill-opacity: 0; stroke: #fe0000; stroke-width: 1.4; stroke-linejoin: miter"/>
     <use xlink:href="#mc4e426c027" x="706.142563" y="531.288033" style="fill-opacity: 0; stroke: #fe0000; stroke-width: 1.4; stroke-linejoin: miter"/>
     <use xlink:href="#mc4e426c027" x="754.290563" y="521.176822" style="fill-opacity: 0; stroke: #fe0000; stroke-width: 1.4; stroke-linejoin: miter"/>
     <use xlink:href="#mc4e426c027" x="802.438562" y="523.661478" style="fill-opacity: 0; stroke: #fe0000; stroke-width: 1.4; stroke-linejoin: miter"/>
     <use xlink:href="#mc4e426c027" x="850.586563" y="558.815128" style="fill-opacity: 0; stroke: #fe0000; stroke-width: 1.4; stroke-linejoin: miter"/>
    </g>
   </g>
   <g id="line2d_29">
    <path d="M 128.366563 164.502536 
L 176.514563 94.285456 
L 272.810563 82.776511 
L 320.958563 193.752669 
L 369.106562 260.737513 
L 417.254563 307.923414 
L 465.402563 382.552818 
L 513.550563 435.662637 
L 561.698563 525.991847 
L 609.846563 592.656506 
L 657.994563 557.992158 
L 706.142563 592.673104 
L 754.290563 576.754282 
L 802.438562 609.40497 
L 850.586563 587.007605 
" clip-path="url(#pc5354c16b0)" style="fill: none; stroke: #ffa500; stroke-width: 1.4; stroke-linecap: square"/>
    <defs>
     <path id="m0e4c848fb6" d="M 0 -12 
L -12 12 
L 12 12 
z
" style="stroke: #ffa500; stroke-width: 1.4; stroke-linejoin: miter"/>
    </defs>
    <g clip-path="url(#pc5354c16b0)">
     <use xlink:href="#m0e4c848fb6" x="128.366563" y="164.502536" style="fill-opacity: 0; stroke: #ffa500; stroke-width: 1.4; stroke-linejoin: miter"/>
     <use xlink:href="#m0e4c848fb6" x="176.514563" y="94.285456" style="fill-opacity: 0; stroke: #ffa500; stroke-width: 1.4; stroke-linejoin: miter"/>
     <use xlink:href="#m0e4c848fb6" x="272.810563" y="82.776511" style="fill-opacity: 0; stroke: #ffa500; stroke-width: 1.4; stroke-linejoin: miter"/>
     <use xlink:href="#m0e4c848fb6" x="320.958563" y="193.752669" style="fill-opacity: 0; stroke: #ffa500; stroke-width: 1.4; stroke-linejoin: miter"/>
     <use xlink:href="#m0e4c848fb6" x="369.106562" y="260.737513" style="fill-opacity: 0; stroke: #ffa500; stroke-width: 1.4; stroke-linejoin: miter"/>
     <use xlink:href="#m0e4c848fb6" x="417.254563" y="307.923414" style="fill-opacity: 0; stroke: #ffa500; stroke-width: 1.4; stroke-linejoin: miter"/>
     <use xlink:href="#m0e4c848fb6" x="465.402563" y="382.552818" style="fill-opacity: 0; stroke: #ffa500; stroke-width: 1.4; stroke-linejoin: miter"/>
     <use xlink:href="#m0e4c848fb6" x="513.550563" y="435.662637" style="fill-opacity: 0; stroke: #ffa500; stroke-width: 1.4; stroke-linejoin: miter"/>
     <use xlink:href="#m0e4c848fb6" x="561.698563" y="525.991847" style="fill-opacity: 0; stroke: #ffa500; stroke-width: 1.4; stroke-linejoin: miter"/>
     <use xlink:href="#m0e4c848fb6" x="609.846563" y="592.656506" style="fill-opacity: 0; stroke: #ffa500; stroke-width: 1.4; stroke-linejoin: miter"/>
     <use xlink:href="#m0e4c848fb6" x="657.994563" y="557.992158" style="fill-opacity: 0; stroke: #ffa500; stroke-width: 1.4; stroke-linejoin: miter"/>
     <use xlink:href="#m0e4c848fb6" x="706.142563" y="592.673104" style="fill-opacity: 0; stroke: #ffa500; stroke-width: 1.4; stroke-linejoin: miter"/>
     <use xlink:href="#m0e4c848fb6" x="754.290563" y="576.754282" style="fill-opacity: 0; stroke: #ffa500; stroke-width: 1.4; stroke-linejoin: miter"/>
     <use xlink:href="#m0e4c848fb6" x="802.438562" y="609.40497" style="fill-opacity: 0; stroke: #ffa500; stroke-width: 1.4; stroke-linejoin: miter"/>
     <use xlink:href="#m0e4c848fb6" x="850.586563" y="587.007605" style="fill-opacity: 0; stroke: #ffa500; stroke-width: 1.4; stroke-linejoin: miter"/>
    </g>
   </g>
   <g id="patch_3">
    <path d="M 128.366563 647.7 
L 128.366563 7.2 
" style="fill: none; stroke: #000000; stroke-width: 2.4; stroke-linejoin: miter; stroke-linecap: square"/>
   </g>
   <g id="patch_4">
    <path d="M 850.586563 647.7 
L 850.586563 7.2 
" style="fill: none; stroke: #000000; stroke-width: 2.4; stroke-linejoin: miter; stroke-linecap: square"/>
   </g>
   <g id="patch_5">
    <path d="M 128.366563 647.7 
L 850.586563 647.7 
" style="fill: none; stroke: #000000; stroke-width: 2.4; stroke-linejoin: miter; stroke-linecap: square"/>
   </g>
   <g id="patch_6">
    <path d="M 128.366563 7.2 
L 850.586563 7.2 
" style="fill: none; stroke: #000000; stroke-width: 2.4; stroke-linejoin: miter; stroke-linecap: square"/>
   </g>
  </g>
  <g id="legend_1">
   <g id="patch_7">
    <path d="M 865.986562 424.28375 
L 996.769688 424.28375 
Q 1001.169688 424.28375 1001.169688 419.88375 
L 1001.169688 292.91625 
Q 1001.169688 288.51625 996.769688 288.51625 
L 865.986562 288.51625 
Q 861.586563 288.51625 861.586563 292.91625 
L 861.586563 419.88375 
Q 861.586563 424.28375 865.986562 424.28375 
L 865.986562 424.28375 
z
" style="fill: none; opacity: 0"/>
   </g>
   <g id="LineCollection_5">
    <path d="M 892.386562 317.332812 
L 892.386562 295.332812 
" style="fill: none; stroke: #03ac13; stroke-width: 1.4"/>
   </g>
   <g id="line2d_30">
    <path d="M 870.386562 306.332812 
L 914.386562 306.332812 
" style="fill: none; stroke: #03ac13; stroke-width: 1.4; stroke-linecap: square"/>
   </g>
   <g id="line2d_31">
    <g>
     <use xlink:href="#m0a32aa258c" x="892.386562" y="306.332812" style="fill-opacity: 0; stroke: #03ac13; stroke-width: 1.4"/>
    </g>
   </g>
   <g id="text_28">
    <!-- d = 1 -->
    <g transform="translate(931.986562 314.032812) scale(0.22 -0.22)">
     <defs>
      <path id="DejaVuSans-64" d="M 2906 2969 
L 2906 4863 
L 3481 4863 
L 3481 0 
L 2906 0 
L 2906 525 
Q 2725 213 2448 61 
Q 2172 -91 1784 -91 
Q 1150 -91 751 415 
Q 353 922 353 1747 
Q 353 2572 751 3078 
Q 1150 3584 1784 3584 
Q 2172 3584 2448 3432 
Q 2725 3281 2906 2969 
z
M 947 1747 
Q 947 1113 1208 752 
Q 1469 391 1925 391 
Q 2381 391 2643 752 
Q 2906 1113 2906 1747 
Q 2906 2381 2643 2742 
Q 2381 3103 1925 3103 
Q 1469 3103 1208 2742 
Q 947 2381 947 1747 
z
" transform="scale(0.015625)"/>
      <path id="DejaVuSans-20" transform="scale(0.015625)"/>
      <path id="DejaVuSans-3d" d="M 678 2906 
L 4684 2906 
L 4684 2381 
L 678 2381 
L 678 2906 
z
M 678 1631 
L 4684 1631 
L 4684 1100 
L 678 1100 
L 678 1631 
z
" transform="scale(0.015625)"/>
     </defs>
     <use xlink:href="#DejaVuSans-64"/>
     <use xlink:href="#DejaVuSans-20" x="63.476562"/>
     <use xlink:href="#DejaVuSans-3d" x="95.263672"/>
     <use xlink:href="#DejaVuSans-20" x="179.052734"/>
     <use xlink:href="#DejaVuSans-31" x="210.839844"/>
    </g>
   </g>
   <g id="LineCollection_6">
    <path d="M 892.386562 349.624687 
L 892.386562 327.624687 
" style="fill: none; stroke: #00019a; stroke-width: 1.4"/>
   </g>
   <g id="line2d_32">
    <path d="M 870.386562 338.624687 
L 914.386562 338.624687 
" style="fill: none; stroke: #00019a; stroke-width: 1.4; stroke-linecap: square"/>
   </g>
   <g id="line2d_33">
    <g>
     <use xlink:href="#maa465db08a" x="892.386562" y="338.624687" style="fill-opacity: 0; stroke: #00019a; stroke-width: 1.4; stroke-linejoin: miter"/>
    </g>
   </g>
   <g id="text_29">
    <!-- d = 2 -->
    <g transform="translate(931.986562 346.324687) scale(0.22 -0.22)">
     <use xlink:href="#DejaVuSans-64"/>
     <use xlink:href="#DejaVuSans-20" x="63.476562"/>
     <use xlink:href="#DejaVuSans-3d" x="95.263672"/>
     <use xlink:href="#DejaVuSans-20" x="179.052734"/>
     <use xlink:href="#DejaVuSans-32" x="210.839844"/>
    </g>
   </g>
   <g id="LineCollection_7">
    <path d="M 892.386562 381.916562 
L 892.386562 359.916562 
" style="fill: none; stroke: #fe0000; stroke-width: 1.4"/>
   </g>
   <g id="line2d_34">
    <path d="M 870.386562 370.916562 
L 914.386562 370.916562 
" style="fill: none; stroke: #fe0000; stroke-width: 1.4; stroke-linecap: square"/>
   </g>
   <g id="line2d_35">
    <g>
     <use xlink:href="#mc4e426c027" x="892.386562" y="370.916562" style="fill-opacity: 0; stroke: #fe0000; stroke-width: 1.4; stroke-linejoin: miter"/>
    </g>
   </g>
   <g id="text_30">
    <!-- d = 3 -->
    <g transform="translate(931.986562 378.616562) scale(0.22 -0.22)">
     <use xlink:href="#DejaVuSans-64"/>
     <use xlink:href="#DejaVuSans-20" x="63.476562"/>
     <use xlink:href="#DejaVuSans-3d" x="95.263672"/>
     <use xlink:href="#DejaVuSans-20" x="179.052734"/>
     <use xlink:href="#DejaVuSans-33" x="210.839844"/>
    </g>
   </g>
   <g id="LineCollection_8">
    <path d="M 892.386562 414.208438 
L 892.386562 392.208438 
" style="fill: none; stroke: #ffa500; stroke-width: 1.4"/>
   </g>
   <g id="line2d_36">
    <path d="M 870.386562 403.208438 
L 914.386562 403.208438 
" style="fill: none; stroke: #ffa500; stroke-width: 1.4; stroke-linecap: square"/>
   </g>
   <g id="line2d_37">
    <g>
     <use xlink:href="#m0e4c848fb6" x="892.386562" y="403.208438" style="fill-opacity: 0; stroke: #ffa500; stroke-width: 1.4; stroke-linejoin: miter"/>
    </g>
   </g>
   <g id="text_31">
    <!-- d = 4 -->
    <g transform="translate(931.986562 410.908437) scale(0.22 -0.22)">
     <use xlink:href="#DejaVuSans-64"/>
     <use xlink:href="#DejaVuSans-20" x="63.476562"/>
     <use xlink:href="#DejaVuSans-3d" x="95.263672"/>
     <use xlink:href="#DejaVuSans-20" x="179.052734"/>
     <use xlink:href="#DejaVuSans-34" x="210.839844"/>
    </g>
   </g>
  </g>
 </g>
 <defs>
  <clipPath id="pc5354c16b0">
   <rect x="128.366563" y="7.2" width="722.22" height="640.5"/>
  </clipPath>
 </defs>
</svg>
