<?xml version="1.0" encoding="utf-8" standalone="no"?>
<!DOCTYPE svg PUBLIC "-//W3C//DTD SVG 1.1//EN"
  "http://www.w3.org/Graphics/SVG/1.1/DTD/svg11.dtd">
<svg xmlns:xlink="http://www.w3.org/1999/xlink" width="864.581875pt" height="712.504297pt" viewBox="0 0 864.581875 712.504297" xmlns="http://www.w3.org/2000/svg" version="1.1">
 <metadata>
  <rdf:RDF xmlns:dc="http://purl.org/dc/elements/1.1/" xmlns:cc="http://creativecommons.org/ns#" xmlns:rdf="http://www.w3.org/1999/02/22-rdf-syntax-ns#">
   <cc:Work>
    <dc:type rdf:resource="http://purl.org/dc/dcmitype/StillImage"/>
    <dc:date>2024-11-21T09:51:47.524023</dc:date>
    <dc:format>image/svg+xml</dc:format>
    <dc:creator>
     <cc:Agent>
      <dc:title>Matplotlib v3.9.2, https://matplotlib.org/</dc:title>
     </cc:Agent>
    </dc:creator>
   </cc:Work>
  </rdf:RDF>
 </metadata>
 <defs>
  <style type="text/css">*{stroke-linejoin: round; stroke-linecap: butt}</style>
 </defs>
 <g id="figure_1">
  <g id="patch_1">
   <path d="M 0 712.504297 
L 864.581875 712.504297 
L 864.581875 0 
L 0 0 
z
" style="fill: #ffffff"/>
  </g>
  <g id="axes_1">
   <g id="patch_2">
    <path d="M 75.6725 647.478047 
L 849.42875 647.478047 
L 849.42875 16.698047 
L 75.6725 16.698047 
z
" style="fill: #ffffff"/>
   </g>
   <g id="matplotlib.axis_1">
    <g id="xtick_1">
     <g id="line2d_1">
      <defs>
       <path id="ma9834af369" d="M 0 0 
L 0 -10 
" style="stroke: #000000; stroke-width: 1.4"/>
      </defs>
      <g>
       <use xlink:href="#ma9834af369" x="75.6725" y="647.478047" style="stroke: #000000; stroke-width: 1.4"/>
      </g>
     </g>
     <g id="text_1">
      <!-- 0 -->
      <g transform="translate(67.719375 669.974141) scale(0.25 -0.25)">
       <defs>
        <path id="DejaVuSans-30" d="M 2034 4250 
Q 1547 4250 1301 3770 
Q 1056 3291 1056 2328 
Q 1056 1369 1301 889 
Q 1547 409 2034 409 
Q 2525 409 2770 889 
Q 3016 1369 3016 2328 
Q 3016 3291 2770 3770 
Q 2525 4250 2034 4250 
z
M 2034 4750 
Q 2819 4750 3233 4129 
Q 3647 3509 3647 2328 
Q 3647 1150 3233 529 
Q 2819 -91 2034 -91 
Q 1250 -91 836 529 
Q 422 1150 422 2328 
Q 422 3509 836 4129 
Q 1250 4750 2034 4750 
z
" transform="scale(0.015625)"/>
       </defs>
       <use xlink:href="#DejaVuSans-30"/>
      </g>
     </g>
    </g>
    <g id="xtick_2">
     <g id="line2d_2">
      <g>
       <use xlink:href="#ma9834af369" x="161.645417" y="647.478047" style="stroke: #000000; stroke-width: 1.4"/>
      </g>
     </g>
     <g id="text_2">
      <!-- 1 -->
      <g transform="translate(153.692292 669.974141) scale(0.25 -0.25)">
       <defs>
        <path id="DejaVuSans-31" d="M 794 531 
L 1825 531 
L 1825 4091 
L 703 3866 
L 703 4441 
L 1819 4666 
L 2450 4666 
L 2450 531 
L 3481 531 
L 3481 0 
L 794 0 
L 794 531 
z
" transform="scale(0.015625)"/>
       </defs>
       <use xlink:href="#DejaVuSans-31"/>
      </g>
     </g>
    </g>
    <g id="xtick_3">
     <g id="line2d_3">
      <g>
       <use xlink:href="#ma9834af369" x="247.618333" y="647.478047" style="stroke: #000000; stroke-width: 1.4"/>
      </g>
     </g>
     <g id="text_3">
      <!-- 2 -->
      <g transform="translate(239.665208 669.974141) scale(0.25 -0.25)">
       <defs>
        <path id="DejaVuSans-32" d="M 1228 531 
L 3431 531 
L 3431 0 
L 469 0 
L 469 531 
Q 828 903 1448 1529 
Q 2069 2156 2228 2338 
Q 2531 2678 2651 2914 
Q 2772 3150 2772 3378 
Q 2772 3750 2511 3984 
Q 2250 4219 1831 4219 
Q 1534 4219 1204 4116 
Q 875 4013 500 3803 
L 500 4441 
Q 881 4594 1212 4672 
Q 1544 4750 1819 4750 
Q 2544 4750 2975 4387 
Q 3406 4025 3406 3419 
Q 3406 3131 3298 2873 
Q 3191 2616 2906 2266 
Q 2828 2175 2409 1742 
Q 1991 1309 1228 531 
z
" transform="scale(0.015625)"/>
       </defs>
       <use xlink:href="#DejaVuSans-32"/>
      </g>
     </g>
    </g>
    <g id="xtick_4">
     <g id="line2d_4">
      <g>
       <use xlink:href="#ma9834af369" x="333.59125" y="647.478047" style="stroke: #000000; stroke-width: 1.4"/>
      </g>
     </g>
     <g id="text_4">
      <!-- 3 -->
      <g transform="translate(325.638125 669.974141) scale(0.25 -0.25)">
       <defs>
        <path id="DejaVuSans-33" d="M 2597 2516 
Q 3050 2419 3304 2112 
Q 3559 1806 3559 1356 
Q 3559 666 3084 287 
Q 2609 -91 1734 -91 
Q 1441 -91 1130 -33 
Q 819 25 488 141 
L 488 750 
Q 750 597 1062 519 
Q 1375 441 1716 441 
Q 2309 441 2620 675 
Q 2931 909 2931 1356 
Q 2931 1769 2642 2001 
Q 2353 2234 1838 2234 
L 1294 2234 
L 1294 2753 
L 1863 2753 
Q 2328 2753 2575 2939 
Q 2822 3125 2822 3475 
Q 2822 3834 2567 4026 
Q 2313 4219 1838 4219 
Q 1578 4219 1281 4162 
Q 984 4106 628 3988 
L 628 4550 
Q 988 4650 1302 4700 
Q 1616 4750 1894 4750 
Q 2613 4750 3031 4423 
Q 3450 4097 3450 3541 
Q 3450 3153 3228 2886 
Q 3006 2619 2597 2516 
z
" transform="scale(0.015625)"/>
       </defs>
       <use xlink:href="#DejaVuSans-33"/>
      </g>
     </g>
    </g>
    <g id="xtick_5">
     <g id="line2d_5">
      <g>
       <use xlink:href="#ma9834af369" x="419.564167" y="647.478047" style="stroke: #000000; stroke-width: 1.4"/>
      </g>
     </g>
     <g id="text_5">
      <!-- 4 -->
      <g transform="translate(411.611042 669.974141) scale(0.25 -0.25)">
       <defs>
        <path id="DejaVuSans-34" d="M 2419 4116 
L 825 1625 
L 2419 1625 
L 2419 4116 
z
M 2253 4666 
L 3047 4666 
L 3047 1625 
L 3713 1625 
L 3713 1100 
L 3047 1100 
L 3047 0 
L 2419 0 
L 2419 1100 
L 313 1100 
L 313 1709 
L 2253 4666 
z
" transform="scale(0.015625)"/>
       </defs>
       <use xlink:href="#DejaVuSans-34"/>
      </g>
     </g>
    </g>
    <g id="xtick_6">
     <g id="line2d_6">
      <g>
       <use xlink:href="#ma9834af369" x="505.537083" y="647.478047" style="stroke: #000000; stroke-width: 1.4"/>
      </g>
     </g>
     <g id="text_6">
      <!-- 5 -->
      <g transform="translate(497.583958 669.974141) scale(0.25 -0.25)">
       <defs>
        <path id="DejaVuSans-35" d="M 691 4666 
L 3169 4666 
L 3169 4134 
L 1269 4134 
L 1269 2991 
Q 1406 3038 1543 3061 
Q 1681 3084 1819 3084 
Q 2600 3084 3056 2656 
Q 3513 2228 3513 1497 
Q 3513 744 3044 326 
Q 2575 -91 1722 -91 
Q 1428 -91 1123 -41 
Q 819 9 494 109 
L 494 744 
Q 775 591 1075 516 
Q 1375 441 1709 441 
Q 2250 441 2565 725 
Q 2881 1009 2881 1497 
Q 2881 1984 2565 2268 
Q 2250 2553 1709 2553 
Q 1456 2553 1204 2497 
Q 953 2441 691 2322 
L 691 4666 
z
" transform="scale(0.015625)"/>
       </defs>
       <use xlink:href="#DejaVuSans-35"/>
      </g>
     </g>
    </g>
    <g id="xtick_7">
     <g id="line2d_7">
      <g>
       <use xlink:href="#ma9834af369" x="591.51" y="647.478047" style="stroke: #000000; stroke-width: 1.4"/>
      </g>
     </g>
     <g id="text_7">
      <!-- 6 -->
      <g transform="translate(583.556875 669.974141) scale(0.25 -0.25)">
       <defs>
        <path id="DejaVuSans-36" d="M 2113 2584 
Q 1688 2584 1439 2293 
Q 1191 2003 1191 1497 
Q 1191 994 1439 701 
Q 1688 409 2113 409 
Q 2538 409 2786 701 
Q 3034 994 3034 1497 
Q 3034 2003 2786 2293 
Q 2538 2584 2113 2584 
z
M 3366 4563 
L 3366 3988 
Q 3128 4100 2886 4159 
Q 2644 4219 2406 4219 
Q 1781 4219 1451 3797 
Q 1122 3375 1075 2522 
Q 1259 2794 1537 2939 
Q 1816 3084 2150 3084 
Q 2853 3084 3261 2657 
Q 3669 2231 3669 1497 
Q 3669 778 3244 343 
Q 2819 -91 2113 -91 
Q 1303 -91 875 529 
Q 447 1150 447 2328 
Q 447 3434 972 4092 
Q 1497 4750 2381 4750 
Q 2619 4750 2861 4703 
Q 3103 4656 3366 4563 
z
" transform="scale(0.015625)"/>
       </defs>
       <use xlink:href="#DejaVuSans-36"/>
      </g>
     </g>
    </g>
    <g id="xtick_8">
     <g id="line2d_8">
      <g>
       <use xlink:href="#ma9834af369" x="677.482917" y="647.478047" style="stroke: #000000; stroke-width: 1.4"/>
      </g>
     </g>
     <g id="text_8">
      <!-- 7 -->
      <g transform="translate(669.529792 669.974141) scale(0.25 -0.25)">
       <defs>
        <path id="DejaVuSans-37" d="M 525 4666 
L 3525 4666 
L 3525 4397 
L 1831 0 
L 1172 0 
L 2766 4134 
L 525 4134 
L 525 4666 
z
" transform="scale(0.015625)"/>
       </defs>
       <use xlink:href="#DejaVuSans-37"/>
      </g>
     </g>
    </g>
    <g id="xtick_9">
     <g id="line2d_9">
      <g>
       <use xlink:href="#ma9834af369" x="763.455833" y="647.478047" style="stroke: #000000; stroke-width: 1.4"/>
      </g>
     </g>
     <g id="text_9">
      <!-- 8 -->
      <g transform="translate(755.502708 669.974141) scale(0.25 -0.25)">
       <defs>
        <path id="DejaVuSans-38" d="M 2034 2216 
Q 1584 2216 1326 1975 
Q 1069 1734 1069 1313 
Q 1069 891 1326 650 
Q 1584 409 2034 409 
Q 2484 409 2743 651 
Q 3003 894 3003 1313 
Q 3003 1734 2745 1975 
Q 2488 2216 2034 2216 
z
M 1403 2484 
Q 997 2584 770 2862 
Q 544 3141 544 3541 
Q 544 4100 942 4425 
Q 1341 4750 2034 4750 
Q 2731 4750 3128 4425 
Q 3525 4100 3525 3541 
Q 3525 3141 3298 2862 
Q 3072 2584 2669 2484 
Q 3125 2378 3379 2068 
Q 3634 1759 3634 1313 
Q 3634 634 3220 271 
Q 2806 -91 2034 -91 
Q 1263 -91 848 271 
Q 434 634 434 1313 
Q 434 1759 690 2068 
Q 947 2378 1403 2484 
z
M 1172 3481 
Q 1172 3119 1398 2916 
Q 1625 2713 2034 2713 
Q 2441 2713 2670 2916 
Q 2900 3119 2900 3481 
Q 2900 3844 2670 4047 
Q 2441 4250 2034 4250 
Q 1625 4250 1398 4047 
Q 1172 3844 1172 3481 
z
" transform="scale(0.015625)"/>
       </defs>
       <use xlink:href="#DejaVuSans-38"/>
      </g>
     </g>
    </g>
    <g id="xtick_10">
     <g id="line2d_10">
      <g>
       <use xlink:href="#ma9834af369" x="849.42875" y="647.478047" style="stroke: #000000; stroke-width: 1.4"/>
      </g>
     </g>
     <g id="text_10">
      <!-- 9 -->
      <g transform="translate(841.475625 669.974141) scale(0.25 -0.25)">
       <defs>
        <path id="DejaVuSans-39" d="M 703 97 
L 703 672 
Q 941 559 1184 500 
Q 1428 441 1663 441 
Q 2288 441 2617 861 
Q 2947 1281 2994 2138 
Q 2813 1869 2534 1725 
Q 2256 1581 1919 1581 
Q 1219 1581 811 2004 
Q 403 2428 403 3163 
Q 403 3881 828 4315 
Q 1253 4750 1959 4750 
Q 2769 4750 3195 4129 
Q 3622 3509 3622 2328 
Q 3622 1225 3098 567 
Q 2575 -91 1691 -91 
Q 1453 -91 1209 -44 
Q 966 3 703 97 
z
M 1959 2075 
Q 2384 2075 2632 2365 
Q 2881 2656 2881 3163 
Q 2881 3666 2632 3958 
Q 2384 4250 1959 4250 
Q 1534 4250 1286 3958 
Q 1038 3666 1038 3163 
Q 1038 2656 1286 2365 
Q 1534 2075 1959 2075 
z
" transform="scale(0.015625)"/>
       </defs>
       <use xlink:href="#DejaVuSans-39"/>
      </g>
     </g>
    </g>
    <g id="text_11">
     <!-- $\alpha_a$ -->
     <g transform="translate(447.430625 699.689141) scale(0.27 -0.27)">
      <defs>
       <path id="DejaVuSans-Oblique-3b1" d="M 2619 1628 
L 2622 2350 
Q 2625 3088 2069 3091 
Q 1653 3094 1394 2747 
Q 1069 2319 959 1747 
Q 825 1059 994 731 
Q 1169 397 1547 397 
Q 1966 397 2319 1063 
L 2619 1628 
z
M 2166 3578 
Q 3141 3594 3128 2584 
Q 3128 2584 3616 3500 
L 4128 3500 
L 3119 1603 
L 3109 919 
Q 3109 766 3194 638 
Q 3291 488 3391 488 
L 3669 488 
L 3575 0 
L 3228 0 
Q 2934 0 2722 263 
Q 2622 394 2619 669 
Q 2416 334 2066 50 
Q 1900 -81 1453 -78 
Q 722 -72 456 397 
Q 184 884 353 1747 
Q 534 2675 1009 3097 
Q 1544 3569 2166 3578 
z
" transform="scale(0.015625)"/>
       <path id="DejaVuSans-Oblique-61" d="M 3438 1997 
L 3047 0 
L 2472 0 
L 2578 531 
Q 2325 219 2001 64 
Q 1678 -91 1281 -91 
Q 834 -91 548 182 
Q 263 456 263 884 
Q 263 1497 752 1853 
Q 1241 2209 2100 2209 
L 2900 2209 
L 2931 2363 
Q 2938 2388 2941 2417 
Q 2944 2447 2944 2509 
Q 2944 2788 2717 2942 
Q 2491 3097 2081 3097 
Q 1800 3097 1504 3025 
Q 1209 2953 897 2809 
L 997 3341 
Q 1322 3463 1633 3523 
Q 1944 3584 2234 3584 
Q 2853 3584 3176 3315 
Q 3500 3047 3500 2534 
Q 3500 2431 3484 2292 
Q 3469 2153 3438 1997 
z
M 2816 1759 
L 2241 1759 
Q 1534 1759 1195 1570 
Q 856 1381 856 984 
Q 856 709 1029 553 
Q 1203 397 1509 397 
Q 1978 397 2328 733 
Q 2678 1069 2791 1631 
L 2816 1759 
z
" transform="scale(0.015625)"/>
      </defs>
      <use xlink:href="#DejaVuSans-Oblique-3b1" transform="translate(0 0.84375)"/>
      <use xlink:href="#DejaVuSans-Oblique-61" transform="translate(65.917969 -15.5625) scale(0.7)"/>
     </g>
    </g>
   </g>
   <g id="matplotlib.axis_2">
    <g id="ytick_1">
     <g id="line2d_11">
      <defs>
       <path id="m2c4a014913" d="M 0 0 
L 10 0 
" style="stroke: #000000; stroke-width: 1.4"/>
      </defs>
      <g>
       <use xlink:href="#m2c4a014913" x="75.6725" y="647.478047" style="stroke: #000000; stroke-width: 1.4"/>
      </g>
     </g>
     <g id="text_12">
      <!-- 10 -->
      <g transform="translate(40.36 656.976094) scale(0.25 -0.25)">
       <use xlink:href="#DejaVuSans-31"/>
       <use xlink:href="#DejaVuSans-30" x="63.623047"/>
      </g>
     </g>
    </g>
    <g id="ytick_2">
     <g id="line2d_12">
      <g>
       <use xlink:href="#m2c4a014913" x="75.6725" y="557.366618" style="stroke: #000000; stroke-width: 1.4"/>
      </g>
     </g>
     <g id="text_13">
      <!-- 12 -->
      <g transform="translate(40.36 566.864665) scale(0.25 -0.25)">
       <use xlink:href="#DejaVuSans-31"/>
       <use xlink:href="#DejaVuSans-32" x="63.623047"/>
      </g>
     </g>
    </g>
    <g id="ytick_3">
     <g id="line2d_13">
      <g>
       <use xlink:href="#m2c4a014913" x="75.6725" y="467.25519" style="stroke: #000000; stroke-width: 1.4"/>
      </g>
     </g>
     <g id="text_14">
      <!-- 14 -->
      <g transform="translate(40.36 476.753237) scale(0.25 -0.25)">
       <use xlink:href="#DejaVuSans-31"/>
       <use xlink:href="#DejaVuSans-34" x="63.623047"/>
      </g>
     </g>
    </g>
    <g id="ytick_4">
     <g id="line2d_14">
      <g>
       <use xlink:href="#m2c4a014913" x="75.6725" y="377.143761" style="stroke: #000000; stroke-width: 1.4"/>
      </g>
     </g>
     <g id="text_15">
      <!-- 16 -->
      <g transform="translate(40.36 386.641808) scale(0.25 -0.25)">
       <use xlink:href="#DejaVuSans-31"/>
       <use xlink:href="#DejaVuSans-36" x="63.623047"/>
      </g>
     </g>
    </g>
    <g id="ytick_5">
     <g id="line2d_15">
      <g>
       <use xlink:href="#m2c4a014913" x="75.6725" y="287.032333" style="stroke: #000000; stroke-width: 1.4"/>
      </g>
     </g>
     <g id="text_16">
      <!-- 18 -->
      <g transform="translate(40.36 296.530379) scale(0.25 -0.25)">
       <use xlink:href="#DejaVuSans-31"/>
       <use xlink:href="#DejaVuSans-38" x="63.623047"/>
      </g>
     </g>
    </g>
    <g id="ytick_6">
     <g id="line2d_16">
      <g>
       <use xlink:href="#m2c4a014913" x="75.6725" y="196.920904" style="stroke: #000000; stroke-width: 1.4"/>
      </g>
     </g>
     <g id="text_17">
      <!-- 20 -->
      <g transform="translate(40.36 206.418951) scale(0.25 -0.25)">
       <use xlink:href="#DejaVuSans-32"/>
       <use xlink:href="#DejaVuSans-30" x="63.623047"/>
      </g>
     </g>
    </g>
    <g id="ytick_7">
     <g id="line2d_17">
      <g>
       <use xlink:href="#m2c4a014913" x="75.6725" y="106.809475" style="stroke: #000000; stroke-width: 1.4"/>
      </g>
     </g>
     <g id="text_18">
      <!-- 22 -->
      <g transform="translate(40.36 116.307522) scale(0.25 -0.25)">
       <use xlink:href="#DejaVuSans-32"/>
       <use xlink:href="#DejaVuSans-32" x="63.623047"/>
      </g>
     </g>
    </g>
    <g id="ytick_8">
     <g id="line2d_18">
      <g>
       <use xlink:href="#m2c4a014913" x="75.6725" y="16.698047" style="stroke: #000000; stroke-width: 1.4"/>
      </g>
     </g>
     <g id="text_19">
      <!-- 24 -->
      <g transform="translate(40.36 26.196094) scale(0.25 -0.25)">
       <use xlink:href="#DejaVuSans-32"/>
       <use xlink:href="#DejaVuSans-34" x="63.623047"/>
      </g>
     </g>
    </g>
    <g id="text_20">
     <!-- $\langle \bar{\ell} \rangle$ -->
     <g transform="translate(30.744844 348.288047) rotate(-90) scale(0.27 -0.27)">
      <defs>
       <path id="DejaVuSans-27e8" d="M 572 2006 
L 1453 4856 
L 1984 4856 
L 1103 2006 
L 1984 -844 
L 1453 -844 
L 572 2006 
z
" transform="scale(0.015625)"/>
       <path id="DejaVuSans-304" d="M -2518 4769 
L -650 4769 
L -650 4306 
L -2518 4306 
L -2518 4769 
z
" transform="scale(0.015625)"/>
       <path id="DejaVuSans-Oblique-2113" d="M 950 838 
Q 1078 213 1350 213 
Q 1531 213 1766 572 
L 2181 572 
Q 1994 253 1775 88 
Q 1538 -91 1319 -91 
Q 831 -91 634 344 
L 400 0 
L -88 0 
Q 250 459 500 888 
Q 469 1131 469 1397 
Q 469 1872 566 2347 
Q 931 4131 1256 4497 
Q 1481 4750 1866 4750 
Q 2256 4750 2256 4209 
Q 2253 3966 2197 3675 
Q 1972 2484 950 838 
z
M 947 1656 
Q 1531 2744 1709 3613 
Q 1803 4072 1803 4191 
Q 1803 4406 1725 4406 
Q 1384 4134 1081 2516 
Q 997 2063 947 1656 
z
" transform="scale(0.015625)"/>
       <path id="DejaVuSans-27e9" d="M 1925 2006 
L 1044 -844 
L 513 -844 
L 1394 2006 
L 513 4856 
L 1044 4856 
L 1925 2006 
z
" transform="scale(0.015625)"/>
      </defs>
      <use xlink:href="#DejaVuSans-27e8" transform="translate(0 0.046875)"/>
      <use xlink:href="#DejaVuSans-304" transform="translate(89.68457 19.484375)"/>
      <use xlink:href="#DejaVuSans-Oblique-2113" transform="translate(39.013672 0.046875)"/>
      <use xlink:href="#DejaVuSans-27e9" transform="translate(80.322266 0.046875)"/>
     </g>
    </g>
   </g>
   <g id="LineCollection_1">
    <path d="M 75.6725 558.71453 
L 75.6725 544.819358 
" clip-path="url(#p264948fbd5)" style="fill: none; stroke: #03ac13; stroke-width: 1.4"/>
    <path d="M 161.645417 440.251263 
L 161.645417 424.969435 
" clip-path="url(#p264948fbd5)" style="fill: none; stroke: #03ac13; stroke-width: 1.4"/>
    <path d="M 247.618333 286.58369 
L 247.618333 264.573264 
" clip-path="url(#p264948fbd5)" style="fill: none; stroke: #03ac13; stroke-width: 1.4"/>
    <path d="M 333.59125 225.636604 
L 333.59125 199.715091 
" clip-path="url(#p264948fbd5)" style="fill: none; stroke: #03ac13; stroke-width: 1.4"/>
    <path d="M 419.564167 200.105839 
L 419.564167 166.464155 
" clip-path="url(#p264948fbd5)" style="fill: none; stroke: #03ac13; stroke-width: 1.4"/>
    <path d="M 505.537083 184.716304 
L 505.537083 155.43336 
" clip-path="url(#p264948fbd5)" style="fill: none; stroke: #03ac13; stroke-width: 1.4"/>
    <path d="M 591.51 163.204893 
L 591.51 127.435068 
" clip-path="url(#p264948fbd5)" style="fill: none; stroke: #03ac13; stroke-width: 1.4"/>
    <path d="M 677.482917 157.355888 
L 677.482917 132.634752 
" clip-path="url(#p264948fbd5)" style="fill: none; stroke: #03ac13; stroke-width: 1.4"/>
    <path d="M 763.455833 160.733915 
L 763.455833 134.295859 
" clip-path="url(#p264948fbd5)" style="fill: none; stroke: #03ac13; stroke-width: 1.4"/>
    <path d="M 849.42875 134.352055 
L 849.42875 105.720839 
" clip-path="url(#p264948fbd5)" style="fill: none; stroke: #03ac13; stroke-width: 1.4"/>
    <path clip-path="url(#p264948fbd5)" style="fill: none; stroke: #03ac13; stroke-width: 1.4"/>
    <path clip-path="url(#p264948fbd5)" style="fill: none; stroke: #03ac13; stroke-width: 1.4"/>
    <path clip-path="url(#p264948fbd5)" style="fill: none; stroke: #03ac13; stroke-width: 1.4"/>
    <path clip-path="url(#p264948fbd5)" style="fill: none; stroke: #03ac13; stroke-width: 1.4"/>
    <path clip-path="url(#p264948fbd5)" style="fill: none; stroke: #03ac13; stroke-width: 1.4"/>
    <path clip-path="url(#p264948fbd5)" style="fill: none; stroke: #03ac13; stroke-width: 1.4"/>
   </g>
   <g id="LineCollection_2">
    <path d="M 75.6725 554.630572 
L 75.6725 538.11138 
" clip-path="url(#p264948fbd5)" style="fill: none; stroke: #00019a; stroke-width: 1.4"/>
    <path d="M 161.645417 559.061217 
L 161.645417 544.445637 
" clip-path="url(#p264948fbd5)" style="fill: none; stroke: #00019a; stroke-width: 1.4"/>
    <path d="M 247.618333 476.744216 
L 247.618333 454.353944 
" clip-path="url(#p264948fbd5)" style="fill: none; stroke: #00019a; stroke-width: 1.4"/>
    <path d="M 333.59125 377.753053 
L 333.59125 358.805796 
" clip-path="url(#p264948fbd5)" style="fill: none; stroke: #00019a; stroke-width: 1.4"/>
    <path d="M 419.564167 318.166832 
L 419.564167 294.259655 
" clip-path="url(#p264948fbd5)" style="fill: none; stroke: #00019a; stroke-width: 1.4"/>
    <path d="M 505.537083 265.247655 
L 505.537083 243.761411 
" clip-path="url(#p264948fbd5)" style="fill: none; stroke: #00019a; stroke-width: 1.4"/>
    <path d="M 591.51 249.891861 
L 591.51 229.880899 
" clip-path="url(#p264948fbd5)" style="fill: none; stroke: #00019a; stroke-width: 1.4"/>
    <path d="M 677.482917 219.777238 
L 677.482917 208.447625 
" clip-path="url(#p264948fbd5)" style="fill: none; stroke: #00019a; stroke-width: 1.4"/>
    <path d="M 763.455833 186.487893 
L 763.455833 168.253747 
" clip-path="url(#p264948fbd5)" style="fill: none; stroke: #00019a; stroke-width: 1.4"/>
    <path d="M 849.42875 171.960803 
L 849.42875 157.433311 
" clip-path="url(#p264948fbd5)" style="fill: none; stroke: #00019a; stroke-width: 1.4"/>
    <path clip-path="url(#p264948fbd5)" style="fill: none; stroke: #00019a; stroke-width: 1.4"/>
    <path clip-path="url(#p264948fbd5)" style="fill: none; stroke: #00019a; stroke-width: 1.4"/>
    <path clip-path="url(#p264948fbd5)" style="fill: none; stroke: #00019a; stroke-width: 1.4"/>
    <path clip-path="url(#p264948fbd5)" style="fill: none; stroke: #00019a; stroke-width: 1.4"/>
    <path clip-path="url(#p264948fbd5)" style="fill: none; stroke: #00019a; stroke-width: 1.4"/>
    <path clip-path="url(#p264948fbd5)" style="fill: none; stroke: #00019a; stroke-width: 1.4"/>
   </g>
   <g id="LineCollection_3">
    <path d="M 75.6725 565.472015 
L 75.6725 550.946306 
" clip-path="url(#p264948fbd5)" style="fill: none; stroke: #fe0000; stroke-width: 1.4"/>
    <path d="M 161.645417 563.69715 
L 161.645417 549.960294 
" clip-path="url(#p264948fbd5)" style="fill: none; stroke: #fe0000; stroke-width: 1.4"/>
    <path d="M 247.618333 553.615185 
L 247.618333 535.179477 
" clip-path="url(#p264948fbd5)" style="fill: none; stroke: #fe0000; stroke-width: 1.4"/>
    <path d="M 333.59125 493.93579 
L 333.59125 469.90586 
" clip-path="url(#p264948fbd5)" style="fill: none; stroke: #fe0000; stroke-width: 1.4"/>
    <path d="M 419.564167 411.04262 
L 419.564167 391.024439 
" clip-path="url(#p264948fbd5)" style="fill: none; stroke: #fe0000; stroke-width: 1.4"/>
    <path d="M 505.537083 359.832232 
L 505.537083 340.544899 
" clip-path="url(#p264948fbd5)" style="fill: none; stroke: #fe0000; stroke-width: 1.4"/>
    <path d="M 591.51 325.088102 
L 591.51 308.359995 
" clip-path="url(#p264948fbd5)" style="fill: none; stroke: #fe0000; stroke-width: 1.4"/>
    <path d="M 677.482917 297.483682 
L 677.482917 279.111476 
" clip-path="url(#p264948fbd5)" style="fill: none; stroke: #fe0000; stroke-width: 1.4"/>
    <path d="M 763.455833 276.547231 
L 763.455833 262.582872 
" clip-path="url(#p264948fbd5)" style="fill: none; stroke: #fe0000; stroke-width: 1.4"/>
    <path d="M 849.42875 239.999256 
L 849.42875 225.645591 
" clip-path="url(#p264948fbd5)" style="fill: none; stroke: #fe0000; stroke-width: 1.4"/>
    <path clip-path="url(#p264948fbd5)" style="fill: none; stroke: #fe0000; stroke-width: 1.4"/>
    <path clip-path="url(#p264948fbd5)" style="fill: none; stroke: #fe0000; stroke-width: 1.4"/>
    <path clip-path="url(#p264948fbd5)" style="fill: none; stroke: #fe0000; stroke-width: 1.4"/>
    <path clip-path="url(#p264948fbd5)" style="fill: none; stroke: #fe0000; stroke-width: 1.4"/>
    <path clip-path="url(#p264948fbd5)" style="fill: none; stroke: #fe0000; stroke-width: 1.4"/>
    <path clip-path="url(#p264948fbd5)" style="fill: none; stroke: #fe0000; stroke-width: 1.4"/>
   </g>
   <g id="LineCollection_4">
    <path d="M 75.6725 563.898372 
L 75.6725 547.864653 
" clip-path="url(#p264948fbd5)" style="fill: none; stroke: #ffa500; stroke-width: 1.4"/>
    <path d="M 161.645417 585.788687 
L 161.645417 566.237915 
" clip-path="url(#p264948fbd5)" style="fill: none; stroke: #ffa500; stroke-width: 1.4"/>
    <path d="M 247.618333 589.363517 
L 247.618333 562.769342 
" clip-path="url(#p264948fbd5)" style="fill: none; stroke: #ffa500; stroke-width: 1.4"/>
    <path d="M 333.59125 563.603139 
L 333.59125 547.158114 
" clip-path="url(#p264948fbd5)" style="fill: none; stroke: #ffa500; stroke-width: 1.4"/>
    <path d="M 419.564167 526.625048 
L 419.564167 507.150695 
" clip-path="url(#p264948fbd5)" style="fill: none; stroke: #ffa500; stroke-width: 1.4"/>
    <path d="M 505.537083 440.939167 
L 505.537083 424.173944 
" clip-path="url(#p264948fbd5)" style="fill: none; stroke: #ffa500; stroke-width: 1.4"/>
    <path d="M 591.51 389.3078 
L 591.51 368.166201 
" clip-path="url(#p264948fbd5)" style="fill: none; stroke: #ffa500; stroke-width: 1.4"/>
    <path d="M 677.482917 344.490546 
L 677.482917 328.526866 
" clip-path="url(#p264948fbd5)" style="fill: none; stroke: #ffa500; stroke-width: 1.4"/>
    <path d="M 763.455833 323.366241 
L 763.455833 301.800616 
" clip-path="url(#p264948fbd5)" style="fill: none; stroke: #ffa500; stroke-width: 1.4"/>
    <path d="M 849.42875 304.008706 
L 849.42875 275.947167 
" clip-path="url(#p264948fbd5)" style="fill: none; stroke: #ffa500; stroke-width: 1.4"/>
    <path clip-path="url(#p264948fbd5)" style="fill: none; stroke: #ffa500; stroke-width: 1.4"/>
    <path clip-path="url(#p264948fbd5)" style="fill: none; stroke: #ffa500; stroke-width: 1.4"/>
    <path clip-path="url(#p264948fbd5)" style="fill: none; stroke: #ffa500; stroke-width: 1.4"/>
    <path clip-path="url(#p264948fbd5)" style="fill: none; stroke: #ffa500; stroke-width: 1.4"/>
    <path clip-path="url(#p264948fbd5)" style="fill: none; stroke: #ffa500; stroke-width: 1.4"/>
    <path clip-path="url(#p264948fbd5)" style="fill: none; stroke: #ffa500; stroke-width: 1.4"/>
   </g>
   <g id="line2d_19">
    <path d="M 75.6725 551.766944 
L 161.645417 432.610349 
L 247.618333 275.578477 
L 333.59125 212.675848 
L 419.564167 183.284997 
L 505.537083 170.074832 
L 591.51 145.319981 
L 677.482917 144.99532 
L 763.455833 147.514887 
L 849.42875 120.036447 
L 865.581875 112.357009 
" clip-path="url(#p264948fbd5)" style="fill: none; stroke: #03ac13; stroke-width: 1.4; stroke-linecap: square"/>
    <defs>
     <path id="mf8760c21ef" d="M 0 12 
C 3.182437 12 6.234958 10.735604 8.485281 8.485281 
C 10.735604 6.234958 12 3.182437 12 0 
C 12 -3.182437 10.735604 -6.234958 8.485281 -8.485281 
C 6.234958 -10.735604 3.182437 -12 0 -12 
C -3.182437 -12 -6.234958 -10.735604 -8.485281 -8.485281 
C -10.735604 -6.234958 -12 -3.182437 -12 0 
C -12 3.182437 -10.735604 6.234958 -8.485281 8.485281 
C -6.234958 10.735604 -3.182437 12 0 12 
z
" style="stroke: #03ac13; stroke-width: 1.4"/>
    </defs>
    <g clip-path="url(#p264948fbd5)">
     <use xlink:href="#mf8760c21ef" x="75.6725" y="551.766944" style="fill-opacity: 0; stroke: #03ac13; stroke-width: 1.4"/>
     <use xlink:href="#mf8760c21ef" x="161.645417" y="432.610349" style="fill-opacity: 0; stroke: #03ac13; stroke-width: 1.4"/>
     <use xlink:href="#mf8760c21ef" x="247.618333" y="275.578477" style="fill-opacity: 0; stroke: #03ac13; stroke-width: 1.4"/>
     <use xlink:href="#mf8760c21ef" x="333.59125" y="212.675848" style="fill-opacity: 0; stroke: #03ac13; stroke-width: 1.4"/>
     <use xlink:href="#mf8760c21ef" x="419.564167" y="183.284997" style="fill-opacity: 0; stroke: #03ac13; stroke-width: 1.4"/>
     <use xlink:href="#mf8760c21ef" x="505.537083" y="170.074832" style="fill-opacity: 0; stroke: #03ac13; stroke-width: 1.4"/>
     <use xlink:href="#mf8760c21ef" x="591.51" y="145.319981" style="fill-opacity: 0; stroke: #03ac13; stroke-width: 1.4"/>
     <use xlink:href="#mf8760c21ef" x="677.482917" y="144.99532" style="fill-opacity: 0; stroke: #03ac13; stroke-width: 1.4"/>
     <use xlink:href="#mf8760c21ef" x="763.455833" y="147.514887" style="fill-opacity: 0; stroke: #03ac13; stroke-width: 1.4"/>
     <use xlink:href="#mf8760c21ef" x="849.42875" y="120.036447" style="fill-opacity: 0; stroke: #03ac13; stroke-width: 1.4"/>
     <use xlink:href="#mf8760c21ef" x="935.401667" y="79.163636" style="fill-opacity: 0; stroke: #03ac13; stroke-width: 1.4"/>
     <use xlink:href="#mf8760c21ef" x="1021.374583" y="97.621576" style="fill-opacity: 0; stroke: #03ac13; stroke-width: 1.4"/>
     <use xlink:href="#mf8760c21ef" x="1107.3475" y="119.916592" style="fill-opacity: 0; stroke: #03ac13; stroke-width: 1.4"/>
     <use xlink:href="#mf8760c21ef" x="1193.320417" y="103.41265" style="fill-opacity: 0; stroke: #03ac13; stroke-width: 1.4"/>
     <use xlink:href="#mf8760c21ef" x="1279.293333" y="107.328309" style="fill-opacity: 0; stroke: #03ac13; stroke-width: 1.4"/>
     <use xlink:href="#mf8760c21ef" x="1365.26625" y="83.229048" style="fill-opacity: 0; stroke: #03ac13; stroke-width: 1.4"/>
    </g>
   </g>
   <g id="line2d_20">
    <path d="M 75.6725 546.370976 
L 161.645417 551.753427 
L 247.618333 465.54908 
L 333.59125 368.279425 
L 419.564167 306.213243 
L 505.537083 254.504533 
L 591.51 239.88638 
L 677.482917 214.112432 
L 763.455833 177.37082 
L 849.42875 164.697057 
L 865.581875 166.890494 
" clip-path="url(#p264948fbd5)" style="fill: none; stroke: #00019a; stroke-width: 1.4; stroke-linecap: square"/>
    <defs>
     <path id="md3eeecb449" d="M -0 12 
L 12 -12 
L -12 -12 
z
" style="stroke: #00019a; stroke-width: 1.4; stroke-linejoin: miter"/>
    </defs>
    <g clip-path="url(#p264948fbd5)">
     <use xlink:href="#md3eeecb449" x="75.6725" y="546.370976" style="fill-opacity: 0; stroke: #00019a; stroke-width: 1.4; stroke-linejoin: miter"/>
     <use xlink:href="#md3eeecb449" x="161.645417" y="551.753427" style="fill-opacity: 0; stroke: #00019a; stroke-width: 1.4; stroke-linejoin: miter"/>
     <use xlink:href="#md3eeecb449" x="247.618333" y="465.54908" style="fill-opacity: 0; stroke: #00019a; stroke-width: 1.4; stroke-linejoin: miter"/>
     <use xlink:href="#md3eeecb449" x="333.59125" y="368.279425" style="fill-opacity: 0; stroke: #00019a; stroke-width: 1.4; stroke-linejoin: miter"/>
     <use xlink:href="#md3eeecb449" x="419.564167" y="306.213243" style="fill-opacity: 0; stroke: #00019a; stroke-width: 1.4; stroke-linejoin: miter"/>
     <use xlink:href="#md3eeecb449" x="505.537083" y="254.504533" style="fill-opacity: 0; stroke: #00019a; stroke-width: 1.4; stroke-linejoin: miter"/>
     <use xlink:href="#md3eeecb449" x="591.51" y="239.88638" style="fill-opacity: 0; stroke: #00019a; stroke-width: 1.4; stroke-linejoin: miter"/>
     <use xlink:href="#md3eeecb449" x="677.482917" y="214.112432" style="fill-opacity: 0; stroke: #00019a; stroke-width: 1.4; stroke-linejoin: miter"/>
     <use xlink:href="#md3eeecb449" x="763.455833" y="177.37082" style="fill-opacity: 0; stroke: #00019a; stroke-width: 1.4; stroke-linejoin: miter"/>
     <use xlink:href="#md3eeecb449" x="849.42875" y="164.697057" style="fill-opacity: 0; stroke: #00019a; stroke-width: 1.4; stroke-linejoin: miter"/>
     <use xlink:href="#md3eeecb449" x="935.401667" y="176.371339" style="fill-opacity: 0; stroke: #00019a; stroke-width: 1.4; stroke-linejoin: miter"/>
     <use xlink:href="#md3eeecb449" x="1021.374583" y="162.08345" style="fill-opacity: 0; stroke: #00019a; stroke-width: 1.4; stroke-linejoin: miter"/>
     <use xlink:href="#md3eeecb449" x="1107.3475" y="170.630895" style="fill-opacity: 0; stroke: #00019a; stroke-width: 1.4; stroke-linejoin: miter"/>
     <use xlink:href="#md3eeecb449" x="1193.320417" y="153.633107" style="fill-opacity: 0; stroke: #00019a; stroke-width: 1.4; stroke-linejoin: miter"/>
     <use xlink:href="#md3eeecb449" x="1279.293333" y="165.657784" style="fill-opacity: 0; stroke: #00019a; stroke-width: 1.4; stroke-linejoin: miter"/>
     <use xlink:href="#md3eeecb449" x="1365.26625" y="160.328906" style="fill-opacity: 0; stroke: #00019a; stroke-width: 1.4; stroke-linejoin: miter"/>
    </g>
   </g>
   <g id="line2d_21">
    <path d="M 75.6725 558.20916 
L 161.645417 556.828722 
L 247.618333 544.397331 
L 333.59125 481.920825 
L 419.564167 401.03353 
L 505.537083 350.188566 
L 591.51 316.724048 
L 677.482917 288.297579 
L 763.455833 269.565051 
L 849.42875 232.822424 
L 865.581875 231.397689 
" clip-path="url(#p264948fbd5)" style="fill: none; stroke: #fe0000; stroke-width: 1.4; stroke-linecap: square"/>
    <defs>
     <path id="md85c178c44" d="M -12 12 
L 12 12 
L 12 -12 
L -12 -12 
z
" style="stroke: #fe0000; stroke-width: 1.4; stroke-linejoin: miter"/>
    </defs>
    <g clip-path="url(#p264948fbd5)">
     <use xlink:href="#md85c178c44" x="75.6725" y="558.20916" style="fill-opacity: 0; stroke: #fe0000; stroke-width: 1.4; stroke-linejoin: miter"/>
     <use xlink:href="#md85c178c44" x="161.645417" y="556.828722" style="fill-opacity: 0; stroke: #fe0000; stroke-width: 1.4; stroke-linejoin: miter"/>
     <use xlink:href="#md85c178c44" x="247.618333" y="544.397331" style="fill-opacity: 0; stroke: #fe0000; stroke-width: 1.4; stroke-linejoin: miter"/>
     <use xlink:href="#md85c178c44" x="333.59125" y="481.920825" style="fill-opacity: 0; stroke: #fe0000; stroke-width: 1.4; stroke-linejoin: miter"/>
     <use xlink:href="#md85c178c44" x="419.564167" y="401.03353" style="fill-opacity: 0; stroke: #fe0000; stroke-width: 1.4; stroke-linejoin: miter"/>
     <use xlink:href="#md85c178c44" x="505.537083" y="350.188566" style="fill-opacity: 0; stroke: #fe0000; stroke-width: 1.4; stroke-linejoin: miter"/>
     <use xlink:href="#md85c178c44" x="591.51" y="316.724048" style="fill-opacity: 0; stroke: #fe0000; stroke-width: 1.4; stroke-linejoin: miter"/>
     <use xlink:href="#md85c178c44" x="677.482917" y="288.297579" style="fill-opacity: 0; stroke: #fe0000; stroke-width: 1.4; stroke-linejoin: miter"/>
     <use xlink:href="#md85c178c44" x="763.455833" y="269.565051" style="fill-opacity: 0; stroke: #fe0000; stroke-width: 1.4; stroke-linejoin: miter"/>
     <use xlink:href="#md85c178c44" x="849.42875" y="232.822424" style="fill-opacity: 0; stroke: #fe0000; stroke-width: 1.4; stroke-linejoin: miter"/>
     <use xlink:href="#md85c178c44" x="935.401667" y="225.23946" style="fill-opacity: 0; stroke: #fe0000; stroke-width: 1.4; stroke-linejoin: miter"/>
     <use xlink:href="#md85c178c44" x="1021.374583" y="242.622144" style="fill-opacity: 0; stroke: #fe0000; stroke-width: 1.4; stroke-linejoin: miter"/>
     <use xlink:href="#md85c178c44" x="1107.3475" y="207.383881" style="fill-opacity: 0; stroke: #fe0000; stroke-width: 1.4; stroke-linejoin: miter"/>
     <use xlink:href="#md85c178c44" x="1193.320417" y="210.973781" style="fill-opacity: 0; stroke: #fe0000; stroke-width: 1.4; stroke-linejoin: miter"/>
     <use xlink:href="#md85c178c44" x="1279.293333" y="194.233945" style="fill-opacity: 0; stroke: #fe0000; stroke-width: 1.4; stroke-linejoin: miter"/>
     <use xlink:href="#md85c178c44" x="1365.26625" y="207.353381" style="fill-opacity: 0; stroke: #fe0000; stroke-width: 1.4; stroke-linejoin: miter"/>
    </g>
   </g>
   <g id="line2d_22">
    <path d="M 75.6725 555.881513 
L 161.645417 576.013301 
L 247.618333 576.066429 
L 333.59125 555.380627 
L 419.564167 516.887871 
L 505.537083 432.556555 
L 591.51 378.737001 
L 677.482917 336.508706 
L 763.455833 312.583428 
L 849.42875 289.977937 
L 865.581875 289.836761 
" clip-path="url(#p264948fbd5)" style="fill: none; stroke: #ffa500; stroke-width: 1.4; stroke-linecap: square"/>
    <defs>
     <path id="m6f93f780f6" d="M 0 -12 
L -12 12 
L 12 12 
z
" style="stroke: #ffa500; stroke-width: 1.4; stroke-linejoin: miter"/>
    </defs>
    <g clip-path="url(#p264948fbd5)">
     <use xlink:href="#m6f93f780f6" x="75.6725" y="555.881513" style="fill-opacity: 0; stroke: #ffa500; stroke-width: 1.4; stroke-linejoin: miter"/>
     <use xlink:href="#m6f93f780f6" x="161.645417" y="576.013301" style="fill-opacity: 0; stroke: #ffa500; stroke-width: 1.4; stroke-linejoin: miter"/>
     <use xlink:href="#m6f93f780f6" x="247.618333" y="576.066429" style="fill-opacity: 0; stroke: #ffa500; stroke-width: 1.4; stroke-linejoin: miter"/>
     <use xlink:href="#m6f93f780f6" x="333.59125" y="555.380627" style="fill-opacity: 0; stroke: #ffa500; stroke-width: 1.4; stroke-linejoin: miter"/>
     <use xlink:href="#m6f93f780f6" x="419.564167" y="516.887871" style="fill-opacity: 0; stroke: #ffa500; stroke-width: 1.4; stroke-linejoin: miter"/>
     <use xlink:href="#m6f93f780f6" x="505.537083" y="432.556555" style="fill-opacity: 0; stroke: #ffa500; stroke-width: 1.4; stroke-linejoin: miter"/>
     <use xlink:href="#m6f93f780f6" x="591.51" y="378.737001" style="fill-opacity: 0; stroke: #ffa500; stroke-width: 1.4; stroke-linejoin: miter"/>
     <use xlink:href="#m6f93f780f6" x="677.482917" y="336.508706" style="fill-opacity: 0; stroke: #ffa500; stroke-width: 1.4; stroke-linejoin: miter"/>
     <use xlink:href="#m6f93f780f6" x="763.455833" y="312.583428" style="fill-opacity: 0; stroke: #ffa500; stroke-width: 1.4; stroke-linejoin: miter"/>
     <use xlink:href="#m6f93f780f6" x="849.42875" y="289.977937" style="fill-opacity: 0; stroke: #ffa500; stroke-width: 1.4; stroke-linejoin: miter"/>
     <use xlink:href="#m6f93f780f6" x="935.401667" y="289.226546" style="fill-opacity: 0; stroke: #ffa500; stroke-width: 1.4; stroke-linejoin: miter"/>
     <use xlink:href="#m6f93f780f6" x="1021.374583" y="279.728392" style="fill-opacity: 0; stroke: #ffa500; stroke-width: 1.4; stroke-linejoin: miter"/>
     <use xlink:href="#m6f93f780f6" x="1107.3475" y="256.199668" style="fill-opacity: 0; stroke: #ffa500; stroke-width: 1.4; stroke-linejoin: miter"/>
     <use xlink:href="#m6f93f780f6" x="1193.320417" y="270.719045" style="fill-opacity: 0; stroke: #ffa500; stroke-width: 1.4; stroke-linejoin: miter"/>
     <use xlink:href="#m6f93f780f6" x="1279.293333" y="239.724652" style="fill-opacity: 0; stroke: #ffa500; stroke-width: 1.4; stroke-linejoin: miter"/>
     <use xlink:href="#m6f93f780f6" x="1365.26625" y="244.760022" style="fill-opacity: 0; stroke: #ffa500; stroke-width: 1.4; stroke-linejoin: miter"/>
    </g>
   </g>
   <g id="patch_3">
    <path d="M 75.6725 647.478047 
L 75.6725 16.698047 
" style="fill: none; stroke: #000000; stroke-width: 2.4; stroke-linejoin: miter; stroke-linecap: square"/>
   </g>
   <g id="patch_4">
    <path d="M 849.42875 647.478047 
L 849.42875 16.698047 
" style="fill: none; stroke: #000000; stroke-width: 2.4; stroke-linejoin: miter; stroke-linecap: square"/>
   </g>
   <g id="patch_5">
    <path d="M 75.6725 647.478047 
L 849.42875 647.478047 
" style="fill: none; stroke: #000000; stroke-width: 2.4; stroke-linejoin: miter; stroke-linecap: square"/>
   </g>
   <g id="patch_6">
    <path d="M 75.6725 16.698047 
L 849.42875 16.698047 
" style="fill: none; stroke: #000000; stroke-width: 2.4; stroke-linejoin: miter; stroke-linecap: square"/>
   </g>
  </g>
 </g>
 <defs>
  <clipPath id="p264948fbd5">
   <rect x="75.6725" y="16.698047" width="773.75625" height="630.78"/>
  </clipPath>
 </defs>
</svg>
