<?xml version="1.0" encoding="utf-8" standalone="no"?>
<!DOCTYPE svg PUBLIC "-//W3C//DTD SVG 1.1//EN"
  "http://www.w3.org/Graphics/SVG/1.1/DTD/svg11.dtd">
<svg xmlns:xlink="http://www.w3.org/1999/xlink" width="1007.211875pt" height="712.504297pt" viewBox="0 0 1007.211875 712.504297" xmlns="http://www.w3.org/2000/svg" version="1.1">
 <metadata>
  <rdf:RDF xmlns:dc="http://purl.org/dc/elements/1.1/" xmlns:cc="http://creativecommons.org/ns#" xmlns:rdf="http://www.w3.org/1999/02/22-rdf-syntax-ns#">
   <cc:Work>
    <dc:type rdf:resource="http://purl.org/dc/dcmitype/StillImage"/>
    <dc:date>2024-11-21T09:56:26.462439</dc:date>
    <dc:format>image/svg+xml</dc:format>
    <dc:creator>
     <cc:Agent>
      <dc:title>Matplotlib v3.9.2, https://matplotlib.org/</dc:title>
     </cc:Agent>
    </dc:creator>
   </cc:Work>
  </rdf:RDF>
 </metadata>
 <defs>
  <style type="text/css">*{stroke-linejoin: round; stroke-linecap: butt}</style>
 </defs>
 <g id="figure_1">
  <g id="patch_1">
   <path d="M 0 712.504297 
L 1007.211875 712.504297 
L 1007.211875 0 
L 0 0 
z
" style="fill: #ffffff"/>
  </g>
  <g id="axes_1">
   <g id="patch_2">
    <path d="M 75.6725 647.478047 
L 849.42875 647.478047 
L 849.42875 16.698047 
L 75.6725 16.698047 
z
" style="fill: #ffffff"/>
   </g>
   <g id="matplotlib.axis_1">
    <g id="xtick_1">
     <g id="line2d_1">
      <defs>
       <path id="m7f93798f82" d="M 0 0 
L 0 -10 
" style="stroke: #000000; stroke-width: 1.4"/>
      </defs>
      <g>
       <use xlink:href="#m7f93798f82" x="75.6725" y="647.478047" style="stroke: #000000; stroke-width: 1.4"/>
      </g>
     </g>
     <g id="text_1">
      <!-- 0 -->
      <g transform="translate(67.719375 669.974141) scale(0.25 -0.25)">
       <defs>
        <path id="DejaVuSans-30" d="M 2034 4250 
Q 1547 4250 1301 3770 
Q 1056 3291 1056 2328 
Q 1056 1369 1301 889 
Q 1547 409 2034 409 
Q 2525 409 2770 889 
Q 3016 1369 3016 2328 
Q 3016 3291 2770 3770 
Q 2525 4250 2034 4250 
z
M 2034 4750 
Q 2819 4750 3233 4129 
Q 3647 3509 3647 2328 
Q 3647 1150 3233 529 
Q 2819 -91 2034 -91 
Q 1250 -91 836 529 
Q 422 1150 422 2328 
Q 422 3509 836 4129 
Q 1250 4750 2034 4750 
z
" transform="scale(0.015625)"/>
       </defs>
       <use xlink:href="#DejaVuSans-30"/>
      </g>
     </g>
    </g>
    <g id="xtick_2">
     <g id="line2d_2">
      <g>
       <use xlink:href="#m7f93798f82" x="127.25625" y="647.478047" style="stroke: #000000; stroke-width: 1.4"/>
      </g>
     </g>
     <g id="text_2">
      <!-- 1 -->
      <g transform="translate(119.303125 669.974141) scale(0.25 -0.25)">
       <defs>
        <path id="DejaVuSans-31" d="M 794 531 
L 1825 531 
L 1825 4091 
L 703 3866 
L 703 4441 
L 1819 4666 
L 2450 4666 
L 2450 531 
L 3481 531 
L 3481 0 
L 794 0 
L 794 531 
z
" transform="scale(0.015625)"/>
       </defs>
       <use xlink:href="#DejaVuSans-31"/>
      </g>
     </g>
    </g>
    <g id="xtick_3">
     <g id="line2d_3">
      <g>
       <use xlink:href="#m7f93798f82" x="178.84" y="647.478047" style="stroke: #000000; stroke-width: 1.4"/>
      </g>
     </g>
     <g id="text_3">
      <!-- 2 -->
      <g transform="translate(170.886875 669.974141) scale(0.25 -0.25)">
       <defs>
        <path id="DejaVuSans-32" d="M 1228 531 
L 3431 531 
L 3431 0 
L 469 0 
L 469 531 
Q 828 903 1448 1529 
Q 2069 2156 2228 2338 
Q 2531 2678 2651 2914 
Q 2772 3150 2772 3378 
Q 2772 3750 2511 3984 
Q 2250 4219 1831 4219 
Q 1534 4219 1204 4116 
Q 875 4013 500 3803 
L 500 4441 
Q 881 4594 1212 4672 
Q 1544 4750 1819 4750 
Q 2544 4750 2975 4387 
Q 3406 4025 3406 3419 
Q 3406 3131 3298 2873 
Q 3191 2616 2906 2266 
Q 2828 2175 2409 1742 
Q 1991 1309 1228 531 
z
" transform="scale(0.015625)"/>
       </defs>
       <use xlink:href="#DejaVuSans-32"/>
      </g>
     </g>
    </g>
    <g id="xtick_4">
     <g id="line2d_4">
      <g>
       <use xlink:href="#m7f93798f82" x="230.42375" y="647.478047" style="stroke: #000000; stroke-width: 1.4"/>
      </g>
     </g>
     <g id="text_4">
      <!-- 3 -->
      <g transform="translate(222.470625 669.974141) scale(0.25 -0.25)">
       <defs>
        <path id="DejaVuSans-33" d="M 2597 2516 
Q 3050 2419 3304 2112 
Q 3559 1806 3559 1356 
Q 3559 666 3084 287 
Q 2609 -91 1734 -91 
Q 1441 -91 1130 -33 
Q 819 25 488 141 
L 488 750 
Q 750 597 1062 519 
Q 1375 441 1716 441 
Q 2309 441 2620 675 
Q 2931 909 2931 1356 
Q 2931 1769 2642 2001 
Q 2353 2234 1838 2234 
L 1294 2234 
L 1294 2753 
L 1863 2753 
Q 2328 2753 2575 2939 
Q 2822 3125 2822 3475 
Q 2822 3834 2567 4026 
Q 2313 4219 1838 4219 
Q 1578 4219 1281 4162 
Q 984 4106 628 3988 
L 628 4550 
Q 988 4650 1302 4700 
Q 1616 4750 1894 4750 
Q 2613 4750 3031 4423 
Q 3450 4097 3450 3541 
Q 3450 3153 3228 2886 
Q 3006 2619 2597 2516 
z
" transform="scale(0.015625)"/>
       </defs>
       <use xlink:href="#DejaVuSans-33"/>
      </g>
     </g>
    </g>
    <g id="xtick_5">
     <g id="line2d_5">
      <g>
       <use xlink:href="#m7f93798f82" x="282.0075" y="647.478047" style="stroke: #000000; stroke-width: 1.4"/>
      </g>
     </g>
     <g id="text_5">
      <!-- 4 -->
      <g transform="translate(274.054375 669.974141) scale(0.25 -0.25)">
       <defs>
        <path id="DejaVuSans-34" d="M 2419 4116 
L 825 1625 
L 2419 1625 
L 2419 4116 
z
M 2253 4666 
L 3047 4666 
L 3047 1625 
L 3713 1625 
L 3713 1100 
L 3047 1100 
L 3047 0 
L 2419 0 
L 2419 1100 
L 313 1100 
L 313 1709 
L 2253 4666 
z
" transform="scale(0.015625)"/>
       </defs>
       <use xlink:href="#DejaVuSans-34"/>
      </g>
     </g>
    </g>
    <g id="xtick_6">
     <g id="line2d_6">
      <g>
       <use xlink:href="#m7f93798f82" x="333.59125" y="647.478047" style="stroke: #000000; stroke-width: 1.4"/>
      </g>
     </g>
     <g id="text_6">
      <!-- 5 -->
      <g transform="translate(325.638125 669.974141) scale(0.25 -0.25)">
       <defs>
        <path id="DejaVuSans-35" d="M 691 4666 
L 3169 4666 
L 3169 4134 
L 1269 4134 
L 1269 2991 
Q 1406 3038 1543 3061 
Q 1681 3084 1819 3084 
Q 2600 3084 3056 2656 
Q 3513 2228 3513 1497 
Q 3513 744 3044 326 
Q 2575 -91 1722 -91 
Q 1428 -91 1123 -41 
Q 819 9 494 109 
L 494 744 
Q 775 591 1075 516 
Q 1375 441 1709 441 
Q 2250 441 2565 725 
Q 2881 1009 2881 1497 
Q 2881 1984 2565 2268 
Q 2250 2553 1709 2553 
Q 1456 2553 1204 2497 
Q 953 2441 691 2322 
L 691 4666 
z
" transform="scale(0.015625)"/>
       </defs>
       <use xlink:href="#DejaVuSans-35"/>
      </g>
     </g>
    </g>
    <g id="xtick_7">
     <g id="line2d_7">
      <g>
       <use xlink:href="#m7f93798f82" x="385.175" y="647.478047" style="stroke: #000000; stroke-width: 1.4"/>
      </g>
     </g>
     <g id="text_7">
      <!-- 6 -->
      <g transform="translate(377.221875 669.974141) scale(0.25 -0.25)">
       <defs>
        <path id="DejaVuSans-36" d="M 2113 2584 
Q 1688 2584 1439 2293 
Q 1191 2003 1191 1497 
Q 1191 994 1439 701 
Q 1688 409 2113 409 
Q 2538 409 2786 701 
Q 3034 994 3034 1497 
Q 3034 2003 2786 2293 
Q 2538 2584 2113 2584 
z
M 3366 4563 
L 3366 3988 
Q 3128 4100 2886 4159 
Q 2644 4219 2406 4219 
Q 1781 4219 1451 3797 
Q 1122 3375 1075 2522 
Q 1259 2794 1537 2939 
Q 1816 3084 2150 3084 
Q 2853 3084 3261 2657 
Q 3669 2231 3669 1497 
Q 3669 778 3244 343 
Q 2819 -91 2113 -91 
Q 1303 -91 875 529 
Q 447 1150 447 2328 
Q 447 3434 972 4092 
Q 1497 4750 2381 4750 
Q 2619 4750 2861 4703 
Q 3103 4656 3366 4563 
z
" transform="scale(0.015625)"/>
       </defs>
       <use xlink:href="#DejaVuSans-36"/>
      </g>
     </g>
    </g>
    <g id="xtick_8">
     <g id="line2d_8">
      <g>
       <use xlink:href="#m7f93798f82" x="436.75875" y="647.478047" style="stroke: #000000; stroke-width: 1.4"/>
      </g>
     </g>
     <g id="text_8">
      <!-- 7 -->
      <g transform="translate(428.805625 669.974141) scale(0.25 -0.25)">
       <defs>
        <path id="DejaVuSans-37" d="M 525 4666 
L 3525 4666 
L 3525 4397 
L 1831 0 
L 1172 0 
L 2766 4134 
L 525 4134 
L 525 4666 
z
" transform="scale(0.015625)"/>
       </defs>
       <use xlink:href="#DejaVuSans-37"/>
      </g>
     </g>
    </g>
    <g id="xtick_9">
     <g id="line2d_9">
      <g>
       <use xlink:href="#m7f93798f82" x="488.3425" y="647.478047" style="stroke: #000000; stroke-width: 1.4"/>
      </g>
     </g>
     <g id="text_9">
      <!-- 8 -->
      <g transform="translate(480.389375 669.974141) scale(0.25 -0.25)">
       <defs>
        <path id="DejaVuSans-38" d="M 2034 2216 
Q 1584 2216 1326 1975 
Q 1069 1734 1069 1313 
Q 1069 891 1326 650 
Q 1584 409 2034 409 
Q 2484 409 2743 651 
Q 3003 894 3003 1313 
Q 3003 1734 2745 1975 
Q 2488 2216 2034 2216 
z
M 1403 2484 
Q 997 2584 770 2862 
Q 544 3141 544 3541 
Q 544 4100 942 4425 
Q 1341 4750 2034 4750 
Q 2731 4750 3128 4425 
Q 3525 4100 3525 3541 
Q 3525 3141 3298 2862 
Q 3072 2584 2669 2484 
Q 3125 2378 3379 2068 
Q 3634 1759 3634 1313 
Q 3634 634 3220 271 
Q 2806 -91 2034 -91 
Q 1263 -91 848 271 
Q 434 634 434 1313 
Q 434 1759 690 2068 
Q 947 2378 1403 2484 
z
M 1172 3481 
Q 1172 3119 1398 2916 
Q 1625 2713 2034 2713 
Q 2441 2713 2670 2916 
Q 2900 3119 2900 3481 
Q 2900 3844 2670 4047 
Q 2441 4250 2034 4250 
Q 1625 4250 1398 4047 
Q 1172 3844 1172 3481 
z
" transform="scale(0.015625)"/>
       </defs>
       <use xlink:href="#DejaVuSans-38"/>
      </g>
     </g>
    </g>
    <g id="xtick_10">
     <g id="line2d_10">
      <g>
       <use xlink:href="#m7f93798f82" x="539.92625" y="647.478047" style="stroke: #000000; stroke-width: 1.4"/>
      </g>
     </g>
     <g id="text_10">
      <!-- 9 -->
      <g transform="translate(531.973125 669.974141) scale(0.25 -0.25)">
       <defs>
        <path id="DejaVuSans-39" d="M 703 97 
L 703 672 
Q 941 559 1184 500 
Q 1428 441 1663 441 
Q 2288 441 2617 861 
Q 2947 1281 2994 2138 
Q 2813 1869 2534 1725 
Q 2256 1581 1919 1581 
Q 1219 1581 811 2004 
Q 403 2428 403 3163 
Q 403 3881 828 4315 
Q 1253 4750 1959 4750 
Q 2769 4750 3195 4129 
Q 3622 3509 3622 2328 
Q 3622 1225 3098 567 
Q 2575 -91 1691 -91 
Q 1453 -91 1209 -44 
Q 966 3 703 97 
z
M 1959 2075 
Q 2384 2075 2632 2365 
Q 2881 2656 2881 3163 
Q 2881 3666 2632 3958 
Q 2384 4250 1959 4250 
Q 1534 4250 1286 3958 
Q 1038 3666 1038 3163 
Q 1038 2656 1286 2365 
Q 1534 2075 1959 2075 
z
" transform="scale(0.015625)"/>
       </defs>
       <use xlink:href="#DejaVuSans-39"/>
      </g>
     </g>
    </g>
    <g id="xtick_11">
     <g id="line2d_11">
      <g>
       <use xlink:href="#m7f93798f82" x="591.51" y="647.478047" style="stroke: #000000; stroke-width: 1.4"/>
      </g>
     </g>
     <g id="text_11">
      <!-- 10 -->
      <g transform="translate(575.60375 669.974141) scale(0.25 -0.25)">
       <use xlink:href="#DejaVuSans-31"/>
       <use xlink:href="#DejaVuSans-30" x="63.623047"/>
      </g>
     </g>
    </g>
    <g id="xtick_12">
     <g id="line2d_12">
      <g>
       <use xlink:href="#m7f93798f82" x="643.09375" y="647.478047" style="stroke: #000000; stroke-width: 1.4"/>
      </g>
     </g>
     <g id="text_12">
      <!-- 11 -->
      <g transform="translate(627.1875 669.974141) scale(0.25 -0.25)">
       <use xlink:href="#DejaVuSans-31"/>
       <use xlink:href="#DejaVuSans-31" x="63.623047"/>
      </g>
     </g>
    </g>
    <g id="xtick_13">
     <g id="line2d_13">
      <g>
       <use xlink:href="#m7f93798f82" x="694.6775" y="647.478047" style="stroke: #000000; stroke-width: 1.4"/>
      </g>
     </g>
     <g id="text_13">
      <!-- 12 -->
      <g transform="translate(678.77125 669.974141) scale(0.25 -0.25)">
       <use xlink:href="#DejaVuSans-31"/>
       <use xlink:href="#DejaVuSans-32" x="63.623047"/>
      </g>
     </g>
    </g>
    <g id="xtick_14">
     <g id="line2d_14">
      <g>
       <use xlink:href="#m7f93798f82" x="746.26125" y="647.478047" style="stroke: #000000; stroke-width: 1.4"/>
      </g>
     </g>
     <g id="text_14">
      <!-- 13 -->
      <g transform="translate(730.355 669.974141) scale(0.25 -0.25)">
       <use xlink:href="#DejaVuSans-31"/>
       <use xlink:href="#DejaVuSans-33" x="63.623047"/>
      </g>
     </g>
    </g>
    <g id="xtick_15">
     <g id="line2d_15">
      <g>
       <use xlink:href="#m7f93798f82" x="797.845" y="647.478047" style="stroke: #000000; stroke-width: 1.4"/>
      </g>
     </g>
     <g id="text_15">
      <!-- 14 -->
      <g transform="translate(781.93875 669.974141) scale(0.25 -0.25)">
       <use xlink:href="#DejaVuSans-31"/>
       <use xlink:href="#DejaVuSans-34" x="63.623047"/>
      </g>
     </g>
    </g>
    <g id="xtick_16">
     <g id="line2d_16">
      <g>
       <use xlink:href="#m7f93798f82" x="849.42875" y="647.478047" style="stroke: #000000; stroke-width: 1.4"/>
      </g>
     </g>
     <g id="text_16">
      <!-- 15 -->
      <g transform="translate(833.5225 669.974141) scale(0.25 -0.25)">
       <use xlink:href="#DejaVuSans-31"/>
       <use xlink:href="#DejaVuSans-35" x="63.623047"/>
      </g>
     </g>
    </g>
    <g id="text_17">
     <!-- $\alpha_a$ -->
     <g transform="translate(447.430625 699.689141) scale(0.27 -0.27)">
      <defs>
       <path id="DejaVuSans-Oblique-3b1" d="M 2619 1628 
L 2622 2350 
Q 2625 3088 2069 3091 
Q 1653 3094 1394 2747 
Q 1069 2319 959 1747 
Q 825 1059 994 731 
Q 1169 397 1547 397 
Q 1966 397 2319 1063 
L 2619 1628 
z
M 2166 3578 
Q 3141 3594 3128 2584 
Q 3128 2584 3616 3500 
L 4128 3500 
L 3119 1603 
L 3109 919 
Q 3109 766 3194 638 
Q 3291 488 3391 488 
L 3669 488 
L 3575 0 
L 3228 0 
Q 2934 0 2722 263 
Q 2622 394 2619 669 
Q 2416 334 2066 50 
Q 1900 -81 1453 -78 
Q 722 -72 456 397 
Q 184 884 353 1747 
Q 534 2675 1009 3097 
Q 1544 3569 2166 3578 
z
" transform="scale(0.015625)"/>
       <path id="DejaVuSans-Oblique-61" d="M 3438 1997 
L 3047 0 
L 2472 0 
L 2578 531 
Q 2325 219 2001 64 
Q 1678 -91 1281 -91 
Q 834 -91 548 182 
Q 263 456 263 884 
Q 263 1497 752 1853 
Q 1241 2209 2100 2209 
L 2900 2209 
L 2931 2363 
Q 2938 2388 2941 2417 
Q 2944 2447 2944 2509 
Q 2944 2788 2717 2942 
Q 2491 3097 2081 3097 
Q 1800 3097 1504 3025 
Q 1209 2953 897 2809 
L 997 3341 
Q 1322 3463 1633 3523 
Q 1944 3584 2234 3584 
Q 2853 3584 3176 3315 
Q 3500 3047 3500 2534 
Q 3500 2431 3484 2292 
Q 3469 2153 3438 1997 
z
M 2816 1759 
L 2241 1759 
Q 1534 1759 1195 1570 
Q 856 1381 856 984 
Q 856 709 1029 553 
Q 1203 397 1509 397 
Q 1978 397 2328 733 
Q 2678 1069 2791 1631 
L 2816 1759 
z
" transform="scale(0.015625)"/>
      </defs>
      <use xlink:href="#DejaVuSans-Oblique-3b1" transform="translate(0 0.84375)"/>
      <use xlink:href="#DejaVuSans-Oblique-61" transform="translate(65.917969 -15.5625) scale(0.7)"/>
     </g>
    </g>
   </g>
   <g id="matplotlib.axis_2">
    <g id="ytick_1">
     <g id="line2d_17">
      <defs>
       <path id="mb8fdcc85cc" d="M 0 0 
L 10 0 
" style="stroke: #000000; stroke-width: 1.4"/>
      </defs>
      <g>
       <use xlink:href="#mb8fdcc85cc" x="75.6725" y="647.478047" style="stroke: #000000; stroke-width: 1.4"/>
      </g>
     </g>
     <g id="text_18">
      <!-- 6 -->
      <g transform="translate(56.26625 656.976094) scale(0.25 -0.25)">
       <use xlink:href="#DejaVuSans-36"/>
      </g>
     </g>
    </g>
    <g id="ytick_2">
     <g id="line2d_18">
      <g>
       <use xlink:href="#mb8fdcc85cc" x="75.6725" y="577.39138" style="stroke: #000000; stroke-width: 1.4"/>
      </g>
     </g>
     <g id="text_19">
      <!-- 8 -->
      <g transform="translate(56.26625 586.889427) scale(0.25 -0.25)">
       <use xlink:href="#DejaVuSans-38"/>
      </g>
     </g>
    </g>
    <g id="ytick_3">
     <g id="line2d_19">
      <g>
       <use xlink:href="#mb8fdcc85cc" x="75.6725" y="507.304714" style="stroke: #000000; stroke-width: 1.4"/>
      </g>
     </g>
     <g id="text_20">
      <!-- 10 -->
      <g transform="translate(40.36 516.80276) scale(0.25 -0.25)">
       <use xlink:href="#DejaVuSans-31"/>
       <use xlink:href="#DejaVuSans-30" x="63.623047"/>
      </g>
     </g>
    </g>
    <g id="ytick_4">
     <g id="line2d_20">
      <g>
       <use xlink:href="#mb8fdcc85cc" x="75.6725" y="437.218047" style="stroke: #000000; stroke-width: 1.4"/>
      </g>
     </g>
     <g id="text_21">
      <!-- 12 -->
      <g transform="translate(40.36 446.716094) scale(0.25 -0.25)">
       <use xlink:href="#DejaVuSans-31"/>
       <use xlink:href="#DejaVuSans-32" x="63.623047"/>
      </g>
     </g>
    </g>
    <g id="ytick_5">
     <g id="line2d_21">
      <g>
       <use xlink:href="#mb8fdcc85cc" x="75.6725" y="367.13138" style="stroke: #000000; stroke-width: 1.4"/>
      </g>
     </g>
     <g id="text_22">
      <!-- 14 -->
      <g transform="translate(40.36 376.629427) scale(0.25 -0.25)">
       <use xlink:href="#DejaVuSans-31"/>
       <use xlink:href="#DejaVuSans-34" x="63.623047"/>
      </g>
     </g>
    </g>
    <g id="ytick_6">
     <g id="line2d_22">
      <g>
       <use xlink:href="#mb8fdcc85cc" x="75.6725" y="297.044714" style="stroke: #000000; stroke-width: 1.4"/>
      </g>
     </g>
     <g id="text_23">
      <!-- 16 -->
      <g transform="translate(40.36 306.54276) scale(0.25 -0.25)">
       <use xlink:href="#DejaVuSans-31"/>
       <use xlink:href="#DejaVuSans-36" x="63.623047"/>
      </g>
     </g>
    </g>
    <g id="ytick_7">
     <g id="line2d_23">
      <g>
       <use xlink:href="#mb8fdcc85cc" x="75.6725" y="226.958047" style="stroke: #000000; stroke-width: 1.4"/>
      </g>
     </g>
     <g id="text_24">
      <!-- 18 -->
      <g transform="translate(40.36 236.456094) scale(0.25 -0.25)">
       <use xlink:href="#DejaVuSans-31"/>
       <use xlink:href="#DejaVuSans-38" x="63.623047"/>
      </g>
     </g>
    </g>
    <g id="ytick_8">
     <g id="line2d_24">
      <g>
       <use xlink:href="#mb8fdcc85cc" x="75.6725" y="156.87138" style="stroke: #000000; stroke-width: 1.4"/>
      </g>
     </g>
     <g id="text_25">
      <!-- 20 -->
      <g transform="translate(40.36 166.369427) scale(0.25 -0.25)">
       <use xlink:href="#DejaVuSans-32"/>
       <use xlink:href="#DejaVuSans-30" x="63.623047"/>
      </g>
     </g>
    </g>
    <g id="ytick_9">
     <g id="line2d_25">
      <g>
       <use xlink:href="#mb8fdcc85cc" x="75.6725" y="86.784714" style="stroke: #000000; stroke-width: 1.4"/>
      </g>
     </g>
     <g id="text_26">
      <!-- 22 -->
      <g transform="translate(40.36 96.28276) scale(0.25 -0.25)">
       <use xlink:href="#DejaVuSans-32"/>
       <use xlink:href="#DejaVuSans-32" x="63.623047"/>
      </g>
     </g>
    </g>
    <g id="ytick_10">
     <g id="line2d_26">
      <g>
       <use xlink:href="#mb8fdcc85cc" x="75.6725" y="16.698047" style="stroke: #000000; stroke-width: 1.4"/>
      </g>
     </g>
     <g id="text_27">
      <!-- 24 -->
      <g transform="translate(40.36 26.196094) scale(0.25 -0.25)">
       <use xlink:href="#DejaVuSans-32"/>
       <use xlink:href="#DejaVuSans-34" x="63.623047"/>
      </g>
     </g>
    </g>
    <g id="text_28">
     <!-- $\langle \bar{\ell} \rangle$ -->
     <g transform="translate(30.744844 348.288047) rotate(-90) scale(0.27 -0.27)">
      <defs>
       <path id="DejaVuSans-27e8" d="M 572 2006 
L 1453 4856 
L 1984 4856 
L 1103 2006 
L 1984 -844 
L 1453 -844 
L 572 2006 
z
" transform="scale(0.015625)"/>
       <path id="DejaVuSans-304" d="M -2518 4769 
L -650 4769 
L -650 4306 
L -2518 4306 
L -2518 4769 
z
" transform="scale(0.015625)"/>
       <path id="DejaVuSans-Oblique-2113" d="M 950 838 
Q 1078 213 1350 213 
Q 1531 213 1766 572 
L 2181 572 
Q 1994 253 1775 88 
Q 1538 -91 1319 -91 
Q 831 -91 634 344 
L 400 0 
L -88 0 
Q 250 459 500 888 
Q 469 1131 469 1397 
Q 469 1872 566 2347 
Q 931 4131 1256 4497 
Q 1481 4750 1866 4750 
Q 2256 4750 2256 4209 
Q 2253 3966 2197 3675 
Q 1972 2484 950 838 
z
M 947 1656 
Q 1531 2744 1709 3613 
Q 1803 4072 1803 4191 
Q 1803 4406 1725 4406 
Q 1384 4134 1081 2516 
Q 997 2063 947 1656 
z
" transform="scale(0.015625)"/>
       <path id="DejaVuSans-27e9" d="M 1925 2006 
L 1044 -844 
L 513 -844 
L 1394 2006 
L 513 4856 
L 1044 4856 
L 1925 2006 
z
" transform="scale(0.015625)"/>
      </defs>
      <use xlink:href="#DejaVuSans-27e8" transform="translate(0 0.046875)"/>
      <use xlink:href="#DejaVuSans-304" transform="translate(89.68457 19.484375)"/>
      <use xlink:href="#DejaVuSans-Oblique-2113" transform="translate(39.013672 0.046875)"/>
      <use xlink:href="#DejaVuSans-27e9" transform="translate(80.322266 0.046875)"/>
     </g>
    </g>
   </g>
   <g id="LineCollection_1">
    <path d="M 75.6725 438.266423 
L 75.6725 427.459066 
" clip-path="url(#p0fc70dc37c)" style="fill: none; stroke: #03ac13; stroke-width: 1.4"/>
    <path d="M 127.25625 346.128326 
L 127.25625 334.24246 
" clip-path="url(#p0fc70dc37c)" style="fill: none; stroke: #03ac13; stroke-width: 1.4"/>
    <path d="M 178.84 226.609103 
L 178.84 209.489882 
" clip-path="url(#p0fc70dc37c)" style="fill: none; stroke: #03ac13; stroke-width: 1.4"/>
    <path d="M 230.42375 179.205814 
L 230.42375 159.044637 
" clip-path="url(#p0fc70dc37c)" style="fill: none; stroke: #03ac13; stroke-width: 1.4"/>
    <path d="M 282.0075 159.348552 
L 282.0075 133.182797 
" clip-path="url(#p0fc70dc37c)" style="fill: none; stroke: #03ac13; stroke-width: 1.4"/>
    <path d="M 333.59125 147.378913 
L 333.59125 124.603291 
" clip-path="url(#p0fc70dc37c)" style="fill: none; stroke: #03ac13; stroke-width: 1.4"/>
    <path d="M 385.175 130.647816 
L 385.175 102.826841 
" clip-path="url(#p0fc70dc37c)" style="fill: none; stroke: #03ac13; stroke-width: 1.4"/>
    <path d="M 436.75875 126.09859 
L 436.75875 106.871039 
" clip-path="url(#p0fc70dc37c)" style="fill: none; stroke: #03ac13; stroke-width: 1.4"/>
    <path d="M 488.3425 128.725945 
L 488.3425 108.163012 
" clip-path="url(#p0fc70dc37c)" style="fill: none; stroke: #03ac13; stroke-width: 1.4"/>
    <path d="M 539.92625 108.20672 
L 539.92625 85.937996 
" clip-path="url(#p0fc70dc37c)" style="fill: none; stroke: #03ac13; stroke-width: 1.4"/>
    <path d="M 591.51 81.993287 
L 591.51 48.571501 
" clip-path="url(#p0fc70dc37c)" style="fill: none; stroke: #03ac13; stroke-width: 1.4"/>
    <path d="M 643.09375 90.867226 
L 643.09375 68.409912 
" clip-path="url(#p0fc70dc37c)" style="fill: none; stroke: #03ac13; stroke-width: 1.4"/>
    <path d="M 694.6775 105.572386 
L 694.6775 88.38589 
" clip-path="url(#p0fc70dc37c)" style="fill: none; stroke: #03ac13; stroke-width: 1.4"/>
    <path d="M 746.26125 94.064594 
L 746.26125 74.220883 
" clip-path="url(#p0fc70dc37c)" style="fill: none; stroke: #03ac13; stroke-width: 1.4"/>
    <path d="M 797.845 94.745454 
L 797.845 79.631048 
" clip-path="url(#p0fc70dc37c)" style="fill: none; stroke: #03ac13; stroke-width: 1.4"/>
    <path d="M 849.42875 80.015232 
L 849.42875 56.873529 
" clip-path="url(#p0fc70dc37c)" style="fill: none; stroke: #03ac13; stroke-width: 1.4"/>
   </g>
   <g id="LineCollection_2">
    <path d="M 75.6725 435.090011 
L 75.6725 422.24175 
" clip-path="url(#p0fc70dc37c)" style="fill: none; stroke: #00019a; stroke-width: 1.4"/>
    <path d="M 127.25625 438.536068 
L 127.25625 427.168395 
" clip-path="url(#p0fc70dc37c)" style="fill: none; stroke: #00019a; stroke-width: 1.4"/>
    <path d="M 178.84 374.511734 
L 178.84 357.097078 
" clip-path="url(#p0fc70dc37c)" style="fill: none; stroke: #00019a; stroke-width: 1.4"/>
    <path d="M 230.42375 297.518608 
L 230.42375 282.781852 
" clip-path="url(#p0fc70dc37c)" style="fill: none; stroke: #00019a; stroke-width: 1.4"/>
    <path d="M 282.0075 251.173769 
L 282.0075 232.579297 
" clip-path="url(#p0fc70dc37c)" style="fill: none; stroke: #00019a; stroke-width: 1.4"/>
    <path d="M 333.59125 210.014409 
L 333.59125 193.302885 
" clip-path="url(#p0fc70dc37c)" style="fill: none; stroke: #00019a; stroke-width: 1.4"/>
    <path d="M 385.175 198.071013 
L 385.175 182.506932 
" clip-path="url(#p0fc70dc37c)" style="fill: none; stroke: #00019a; stroke-width: 1.4"/>
    <path d="M 436.75875 174.648529 
L 436.75875 165.836608 
" clip-path="url(#p0fc70dc37c)" style="fill: none; stroke: #00019a; stroke-width: 1.4"/>
    <path d="M 488.3425 148.756816 
L 488.3425 134.574703 
" clip-path="url(#p0fc70dc37c)" style="fill: none; stroke: #00019a; stroke-width: 1.4"/>
    <path d="M 539.92625 137.457968 
L 539.92625 126.158808 
" clip-path="url(#p0fc70dc37c)" style="fill: none; stroke: #00019a; stroke-width: 1.4"/>
    <path d="M 591.51 148.730302 
L 591.51 133.046469 
" clip-path="url(#p0fc70dc37c)" style="fill: none; stroke: #00019a; stroke-width: 1.4"/>
    <path d="M 643.09375 138.303261 
L 643.09375 121.247905 
" clip-path="url(#p0fc70dc37c)" style="fill: none; stroke: #00019a; stroke-width: 1.4"/>
    <path d="M 694.6775 145.394806 
L 694.6775 127.452384 
" clip-path="url(#p0fc70dc37c)" style="fill: none; stroke: #00019a; stroke-width: 1.4"/>
    <path d="M 746.26125 131.183069 
L 746.26125 115.223117 
" clip-path="url(#p0fc70dc37c)" style="fill: none; stroke: #00019a; stroke-width: 1.4"/>
    <path d="M 797.845 138.413764 
L 797.845 126.697476 
" clip-path="url(#p0fc70dc37c)" style="fill: none; stroke: #00019a; stroke-width: 1.4"/>
    <path d="M 849.42875 136.184413 
L 849.42875 120.637461 
" clip-path="url(#p0fc70dc37c)" style="fill: none; stroke: #00019a; stroke-width: 1.4"/>
   </g>
   <g id="LineCollection_3">
    <path d="M 75.6725 443.522244 
L 75.6725 432.22447 
" clip-path="url(#p0fc70dc37c)" style="fill: none; stroke: #fe0000; stroke-width: 1.4"/>
    <path d="M 127.25625 442.141794 
L 127.25625 431.457573 
" clip-path="url(#p0fc70dc37c)" style="fill: none; stroke: #fe0000; stroke-width: 1.4"/>
    <path d="M 178.84 434.300266 
L 178.84 419.961381 
" clip-path="url(#p0fc70dc37c)" style="fill: none; stroke: #fe0000; stroke-width: 1.4"/>
    <path d="M 230.42375 387.882958 
L 230.42375 369.193012 
" clip-path="url(#p0fc70dc37c)" style="fill: none; stroke: #fe0000; stroke-width: 1.4"/>
    <path d="M 282.0075 323.410493 
L 282.0075 307.840796 
" clip-path="url(#p0fc70dc37c)" style="fill: none; stroke: #fe0000; stroke-width: 1.4"/>
    <path d="M 333.59125 283.580191 
L 333.59125 268.578932 
" clip-path="url(#p0fc70dc37c)" style="fill: none; stroke: #fe0000; stroke-width: 1.4"/>
    <path d="M 385.175 256.556978 
L 385.175 243.546229 
" clip-path="url(#p0fc70dc37c)" style="fill: none; stroke: #fe0000; stroke-width: 1.4"/>
    <path d="M 436.75875 235.086875 
L 436.75875 220.79738 
" clip-path="url(#p0fc70dc37c)" style="fill: none; stroke: #fe0000; stroke-width: 1.4"/>
    <path d="M 488.3425 218.802968 
L 488.3425 207.9418 
" clip-path="url(#p0fc70dc37c)" style="fill: none; stroke: #fe0000; stroke-width: 1.4"/>
    <path d="M 539.92625 190.376765 
L 539.92625 179.212803 
" clip-path="url(#p0fc70dc37c)" style="fill: none; stroke: #fe0000; stroke-width: 1.4"/>
    <path d="M 591.51 188.270865 
L 591.51 169.522983 
" clip-path="url(#p0fc70dc37c)" style="fill: none; stroke: #fe0000; stroke-width: 1.4"/>
    <path d="M 643.09375 196.270803 
L 643.09375 188.562775 
" clip-path="url(#p0fc70dc37c)" style="fill: none; stroke: #fe0000; stroke-width: 1.4"/>
    <path d="M 694.6775 169.609272 
L 694.6775 160.40923 
" clip-path="url(#p0fc70dc37c)" style="fill: none; stroke: #fe0000; stroke-width: 1.4"/>
    <path d="M 746.26125 171.926894 
L 746.26125 163.675898 
" clip-path="url(#p0fc70dc37c)" style="fill: none; stroke: #fe0000; stroke-width: 1.4"/>
    <path d="M 797.845 164.251277 
L 797.845 145.31177 
" clip-path="url(#p0fc70dc37c)" style="fill: none; stroke: #fe0000; stroke-width: 1.4"/>
    <path d="M 849.42875 170.824215 
L 849.42875 159.146843 
" clip-path="url(#p0fc70dc37c)" style="fill: none; stroke: #fe0000; stroke-width: 1.4"/>
   </g>
   <g id="LineCollection_4">
    <path d="M 75.6725 442.2983 
L 75.6725 429.827629 
" clip-path="url(#p0fc70dc37c)" style="fill: none; stroke: #ffa500; stroke-width: 1.4"/>
    <path d="M 127.25625 459.3241 
L 127.25625 444.117945 
" clip-path="url(#p0fc70dc37c)" style="fill: none; stroke: #ffa500; stroke-width: 1.4"/>
    <path d="M 178.84 462.104524 
L 178.84 441.420165 
" clip-path="url(#p0fc70dc37c)" style="fill: none; stroke: #ffa500; stroke-width: 1.4"/>
    <path d="M 230.42375 442.068674 
L 230.42375 429.278099 
" clip-path="url(#p0fc70dc37c)" style="fill: none; stroke: #ffa500; stroke-width: 1.4"/>
    <path d="M 282.0075 413.307936 
L 282.0075 398.161218 
" clip-path="url(#p0fc70dc37c)" style="fill: none; stroke: #ffa500; stroke-width: 1.4"/>
    <path d="M 333.59125 346.663362 
L 333.59125 333.623745 
" clip-path="url(#p0fc70dc37c)" style="fill: none; stroke: #ffa500; stroke-width: 1.4"/>
    <path d="M 385.175 306.505632 
L 385.175 290.062167 
" clip-path="url(#p0fc70dc37c)" style="fill: none; stroke: #ffa500; stroke-width: 1.4"/>
    <path d="M 436.75875 271.647768 
L 436.75875 259.231573 
" clip-path="url(#p0fc70dc37c)" style="fill: none; stroke: #ffa500; stroke-width: 1.4"/>
    <path d="M 488.3425 255.217753 
L 488.3425 238.444489 
" clip-path="url(#p0fc70dc37c)" style="fill: none; stroke: #ffa500; stroke-width: 1.4"/>
    <path d="M 539.92625 240.161893 
L 539.92625 218.336252 
" clip-path="url(#p0fc70dc37c)" style="fill: none; stroke: #ffa500; stroke-width: 1.4"/>
    <path d="M 591.51 237.626264 
L 591.51 219.703051 
" clip-path="url(#p0fc70dc37c)" style="fill: none; stroke: #ffa500; stroke-width: 1.4"/>
    <path d="M 643.09375 227.149575 
L 643.09375 215.404833 
" clip-path="url(#p0fc70dc37c)" style="fill: none; stroke: #ffa500; stroke-width: 1.4"/>
    <path d="M 694.6775 210.566257 
L 694.6775 195.387913 
" clip-path="url(#p0fc70dc37c)" style="fill: none; stroke: #ffa500; stroke-width: 1.4"/>
    <path d="M 746.26125 218.489026 
L 746.26125 210.050842 
" clip-path="url(#p0fc70dc37c)" style="fill: none; stroke: #ffa500; stroke-width: 1.4"/>
    <path d="M 797.845 195.579158 
L 797.845 184.74721 
" clip-path="url(#p0fc70dc37c)" style="fill: none; stroke: #ffa500; stroke-width: 1.4"/>
    <path d="M 849.42875 199.250447 
L 849.42875 188.908719 
" clip-path="url(#p0fc70dc37c)" style="fill: none; stroke: #ffa500; stroke-width: 1.4"/>
   </g>
   <g id="line2d_27">
    <path d="M 75.6725 432.862745 
L 127.25625 340.185393 
L 178.84 218.049492 
L 230.42375 169.125225 
L 282.0075 146.265675 
L 333.59125 135.991102 
L 385.175 116.737329 
L 436.75875 116.484815 
L 488.3425 118.444478 
L 539.92625 97.072358 
L 591.51 65.282394 
L 643.09375 79.638569 
L 694.6775 96.979138 
L 746.26125 84.142738 
L 797.845 87.188251 
L 849.42875 68.444381 
" clip-path="url(#p0fc70dc37c)" style="fill: none; stroke: #03ac13; stroke-width: 1.4; stroke-linecap: square"/>
    <defs>
     <path id="m103f1df92e" d="M 0 12 
C 3.182437 12 6.234958 10.735604 8.485281 8.485281 
C 10.735604 6.234958 12 3.182437 12 0 
C 12 -3.182437 10.735604 -6.234958 8.485281 -8.485281 
C 6.234958 -10.735604 3.182437 -12 0 -12 
C -3.182437 -12 -6.234958 -10.735604 -8.485281 -8.485281 
C -10.735604 -6.234958 -12 -3.182437 -12 0 
C -12 3.182437 -10.735604 6.234958 -8.485281 8.485281 
C -6.234958 10.735604 -3.182437 12 0 12 
z
" style="stroke: #03ac13; stroke-width: 1.4"/>
    </defs>
    <g clip-path="url(#p0fc70dc37c)">
     <use xlink:href="#m103f1df92e" x="75.6725" y="432.862745" style="fill-opacity: 0; stroke: #03ac13; stroke-width: 1.4"/>
     <use xlink:href="#m103f1df92e" x="127.25625" y="340.185393" style="fill-opacity: 0; stroke: #03ac13; stroke-width: 1.4"/>
     <use xlink:href="#m103f1df92e" x="178.84" y="218.049492" style="fill-opacity: 0; stroke: #03ac13; stroke-width: 1.4"/>
     <use xlink:href="#m103f1df92e" x="230.42375" y="169.125225" style="fill-opacity: 0; stroke: #03ac13; stroke-width: 1.4"/>
     <use xlink:href="#m103f1df92e" x="282.0075" y="146.265675" style="fill-opacity: 0; stroke: #03ac13; stroke-width: 1.4"/>
     <use xlink:href="#m103f1df92e" x="333.59125" y="135.991102" style="fill-opacity: 0; stroke: #03ac13; stroke-width: 1.4"/>
     <use xlink:href="#m103f1df92e" x="385.175" y="116.737329" style="fill-opacity: 0; stroke: #03ac13; stroke-width: 1.4"/>
     <use xlink:href="#m103f1df92e" x="436.75875" y="116.484815" style="fill-opacity: 0; stroke: #03ac13; stroke-width: 1.4"/>
     <use xlink:href="#m103f1df92e" x="488.3425" y="118.444478" style="fill-opacity: 0; stroke: #03ac13; stroke-width: 1.4"/>
     <use xlink:href="#m103f1df92e" x="539.92625" y="97.072358" style="fill-opacity: 0; stroke: #03ac13; stroke-width: 1.4"/>
     <use xlink:href="#m103f1df92e" x="591.51" y="65.282394" style="fill-opacity: 0; stroke: #03ac13; stroke-width: 1.4"/>
     <use xlink:href="#m103f1df92e" x="643.09375" y="79.638569" style="fill-opacity: 0; stroke: #03ac13; stroke-width: 1.4"/>
     <use xlink:href="#m103f1df92e" x="694.6775" y="96.979138" style="fill-opacity: 0; stroke: #03ac13; stroke-width: 1.4"/>
     <use xlink:href="#m103f1df92e" x="746.26125" y="84.142738" style="fill-opacity: 0; stroke: #03ac13; stroke-width: 1.4"/>
     <use xlink:href="#m103f1df92e" x="797.845" y="87.188251" style="fill-opacity: 0; stroke: #03ac13; stroke-width: 1.4"/>
     <use xlink:href="#m103f1df92e" x="849.42875" y="68.444381" style="fill-opacity: 0; stroke: #03ac13; stroke-width: 1.4"/>
    </g>
   </g>
   <g id="line2d_28">
    <path d="M 75.6725 428.665881 
L 127.25625 432.852232 
L 178.84 365.804406 
L 230.42375 290.15023 
L 282.0075 241.876533 
L 333.59125 201.658647 
L 385.175 190.288972 
L 436.75875 170.242568 
L 488.3425 141.665759 
L 539.92625 131.808388 
L 591.51 140.888385 
L 643.09375 129.775583 
L 694.6775 136.423595 
L 746.26125 123.203093 
L 797.845 132.55562 
L 849.42875 128.410937 
" clip-path="url(#p0fc70dc37c)" style="fill: none; stroke: #00019a; stroke-width: 1.4; stroke-linecap: square"/>
    <defs>
     <path id="mbaddd290f3" d="M -0 12 
L 12 -12 
L -12 -12 
z
" style="stroke: #00019a; stroke-width: 1.4; stroke-linejoin: miter"/>
    </defs>
    <g clip-path="url(#p0fc70dc37c)">
     <use xlink:href="#mbaddd290f3" x="75.6725" y="428.665881" style="fill-opacity: 0; stroke: #00019a; stroke-width: 1.4; stroke-linejoin: miter"/>
     <use xlink:href="#mbaddd290f3" x="127.25625" y="432.852232" style="fill-opacity: 0; stroke: #00019a; stroke-width: 1.4; stroke-linejoin: miter"/>
     <use xlink:href="#mbaddd290f3" x="178.84" y="365.804406" style="fill-opacity: 0; stroke: #00019a; stroke-width: 1.4; stroke-linejoin: miter"/>
     <use xlink:href="#mbaddd290f3" x="230.42375" y="290.15023" style="fill-opacity: 0; stroke: #00019a; stroke-width: 1.4; stroke-linejoin: miter"/>
     <use xlink:href="#mbaddd290f3" x="282.0075" y="241.876533" style="fill-opacity: 0; stroke: #00019a; stroke-width: 1.4; stroke-linejoin: miter"/>
     <use xlink:href="#mbaddd290f3" x="333.59125" y="201.658647" style="fill-opacity: 0; stroke: #00019a; stroke-width: 1.4; stroke-linejoin: miter"/>
     <use xlink:href="#mbaddd290f3" x="385.175" y="190.288972" style="fill-opacity: 0; stroke: #00019a; stroke-width: 1.4; stroke-linejoin: miter"/>
     <use xlink:href="#mbaddd290f3" x="436.75875" y="170.242568" style="fill-opacity: 0; stroke: #00019a; stroke-width: 1.4; stroke-linejoin: miter"/>
     <use xlink:href="#mbaddd290f3" x="488.3425" y="141.665759" style="fill-opacity: 0; stroke: #00019a; stroke-width: 1.4; stroke-linejoin: miter"/>
     <use xlink:href="#mbaddd290f3" x="539.92625" y="131.808388" style="fill-opacity: 0; stroke: #00019a; stroke-width: 1.4; stroke-linejoin: miter"/>
     <use xlink:href="#mbaddd290f3" x="591.51" y="140.888385" style="fill-opacity: 0; stroke: #00019a; stroke-width: 1.4; stroke-linejoin: miter"/>
     <use xlink:href="#mbaddd290f3" x="643.09375" y="129.775583" style="fill-opacity: 0; stroke: #00019a; stroke-width: 1.4; stroke-linejoin: miter"/>
     <use xlink:href="#mbaddd290f3" x="694.6775" y="136.423595" style="fill-opacity: 0; stroke: #00019a; stroke-width: 1.4; stroke-linejoin: miter"/>
     <use xlink:href="#mbaddd290f3" x="746.26125" y="123.203093" style="fill-opacity: 0; stroke: #00019a; stroke-width: 1.4; stroke-linejoin: miter"/>
     <use xlink:href="#mbaddd290f3" x="797.845" y="132.55562" style="fill-opacity: 0; stroke: #00019a; stroke-width: 1.4; stroke-linejoin: miter"/>
     <use xlink:href="#mbaddd290f3" x="849.42875" y="128.410937" style="fill-opacity: 0; stroke: #00019a; stroke-width: 1.4; stroke-linejoin: miter"/>
    </g>
   </g>
   <g id="line2d_29">
    <path d="M 75.6725 437.873357 
L 127.25625 436.799683 
L 178.84 427.130823 
L 230.42375 378.537985 
L 282.0075 315.625645 
L 333.59125 276.079562 
L 385.175 250.051604 
L 436.75875 227.942127 
L 488.3425 213.372384 
L 539.92625 184.794784 
L 591.51 178.896924 
L 643.09375 192.416789 
L 694.6775 165.009251 
L 746.26125 167.801396 
L 797.845 154.781523 
L 849.42875 164.985529 
" clip-path="url(#p0fc70dc37c)" style="fill: none; stroke: #fe0000; stroke-width: 1.4; stroke-linecap: square"/>
    <defs>
     <path id="mec1fb684a7" d="M -12 12 
L 12 12 
L 12 -12 
L -12 -12 
z
" style="stroke: #fe0000; stroke-width: 1.4; stroke-linejoin: miter"/>
    </defs>
    <g clip-path="url(#p0fc70dc37c)">
     <use xlink:href="#mec1fb684a7" x="75.6725" y="437.873357" style="fill-opacity: 0; stroke: #fe0000; stroke-width: 1.4; stroke-linejoin: miter"/>
     <use xlink:href="#mec1fb684a7" x="127.25625" y="436.799683" style="fill-opacity: 0; stroke: #fe0000; stroke-width: 1.4; stroke-linejoin: miter"/>
     <use xlink:href="#mec1fb684a7" x="178.84" y="427.130823" style="fill-opacity: 0; stroke: #fe0000; stroke-width: 1.4; stroke-linejoin: miter"/>
     <use xlink:href="#mec1fb684a7" x="230.42375" y="378.537985" style="fill-opacity: 0; stroke: #fe0000; stroke-width: 1.4; stroke-linejoin: miter"/>
     <use xlink:href="#mec1fb684a7" x="282.0075" y="315.625645" style="fill-opacity: 0; stroke: #fe0000; stroke-width: 1.4; stroke-linejoin: miter"/>
     <use xlink:href="#mec1fb684a7" x="333.59125" y="276.079562" style="fill-opacity: 0; stroke: #fe0000; stroke-width: 1.4; stroke-linejoin: miter"/>
     <use xlink:href="#mec1fb684a7" x="385.175" y="250.051604" style="fill-opacity: 0; stroke: #fe0000; stroke-width: 1.4; stroke-linejoin: miter"/>
     <use xlink:href="#mec1fb684a7" x="436.75875" y="227.942127" style="fill-opacity: 0; stroke: #fe0000; stroke-width: 1.4; stroke-linejoin: miter"/>
     <use xlink:href="#mec1fb684a7" x="488.3425" y="213.372384" style="fill-opacity: 0; stroke: #fe0000; stroke-width: 1.4; stroke-linejoin: miter"/>
     <use xlink:href="#mec1fb684a7" x="539.92625" y="184.794784" style="fill-opacity: 0; stroke: #fe0000; stroke-width: 1.4; stroke-linejoin: miter"/>
     <use xlink:href="#mec1fb684a7" x="591.51" y="178.896924" style="fill-opacity: 0; stroke: #fe0000; stroke-width: 1.4; stroke-linejoin: miter"/>
     <use xlink:href="#mec1fb684a7" x="643.09375" y="192.416789" style="fill-opacity: 0; stroke: #fe0000; stroke-width: 1.4; stroke-linejoin: miter"/>
     <use xlink:href="#mec1fb684a7" x="694.6775" y="165.009251" style="fill-opacity: 0; stroke: #fe0000; stroke-width: 1.4; stroke-linejoin: miter"/>
     <use xlink:href="#mec1fb684a7" x="746.26125" y="167.801396" style="fill-opacity: 0; stroke: #fe0000; stroke-width: 1.4; stroke-linejoin: miter"/>
     <use xlink:href="#mec1fb684a7" x="797.845" y="154.781523" style="fill-opacity: 0; stroke: #fe0000; stroke-width: 1.4; stroke-linejoin: miter"/>
     <use xlink:href="#mec1fb684a7" x="849.42875" y="164.985529" style="fill-opacity: 0; stroke: #fe0000; stroke-width: 1.4; stroke-linejoin: miter"/>
    </g>
   </g>
   <g id="line2d_30">
    <path d="M 75.6725 436.062965 
L 127.25625 451.721022 
L 178.84 451.762344 
L 230.42375 435.673387 
L 282.0075 405.734577 
L 333.59125 340.143553 
L 385.175 298.2839 
L 436.75875 265.43967 
L 488.3425 246.831121 
L 539.92625 229.249072 
L 591.51 228.664657 
L 643.09375 221.277204 
L 694.6775 202.977085 
L 746.26125 214.269934 
L 797.845 190.163184 
L 849.42875 194.079583 
" clip-path="url(#p0fc70dc37c)" style="fill: none; stroke: #ffa500; stroke-width: 1.4; stroke-linecap: square"/>
    <defs>
     <path id="mba50057c1e" d="M 0 -12 
L -12 12 
L 12 12 
z
" style="stroke: #ffa500; stroke-width: 1.4; stroke-linejoin: miter"/>
    </defs>
    <g clip-path="url(#p0fc70dc37c)">
     <use xlink:href="#mba50057c1e" x="75.6725" y="436.062965" style="fill-opacity: 0; stroke: #ffa500; stroke-width: 1.4; stroke-linejoin: miter"/>
     <use xlink:href="#mba50057c1e" x="127.25625" y="451.721022" style="fill-opacity: 0; stroke: #ffa500; stroke-width: 1.4; stroke-linejoin: miter"/>
     <use xlink:href="#mba50057c1e" x="178.84" y="451.762344" style="fill-opacity: 0; stroke: #ffa500; stroke-width: 1.4; stroke-linejoin: miter"/>
     <use xlink:href="#mba50057c1e" x="230.42375" y="435.673387" style="fill-opacity: 0; stroke: #ffa500; stroke-width: 1.4; stroke-linejoin: miter"/>
     <use xlink:href="#mba50057c1e" x="282.0075" y="405.734577" style="fill-opacity: 0; stroke: #ffa500; stroke-width: 1.4; stroke-linejoin: miter"/>
     <use xlink:href="#mba50057c1e" x="333.59125" y="340.143553" style="fill-opacity: 0; stroke: #ffa500; stroke-width: 1.4; stroke-linejoin: miter"/>
     <use xlink:href="#mba50057c1e" x="385.175" y="298.2839" style="fill-opacity: 0; stroke: #ffa500; stroke-width: 1.4; stroke-linejoin: miter"/>
     <use xlink:href="#mba50057c1e" x="436.75875" y="265.43967" style="fill-opacity: 0; stroke: #ffa500; stroke-width: 1.4; stroke-linejoin: miter"/>
     <use xlink:href="#mba50057c1e" x="488.3425" y="246.831121" style="fill-opacity: 0; stroke: #ffa500; stroke-width: 1.4; stroke-linejoin: miter"/>
     <use xlink:href="#mba50057c1e" x="539.92625" y="229.249072" style="fill-opacity: 0; stroke: #ffa500; stroke-width: 1.4; stroke-linejoin: miter"/>
     <use xlink:href="#mba50057c1e" x="591.51" y="228.664657" style="fill-opacity: 0; stroke: #ffa500; stroke-width: 1.4; stroke-linejoin: miter"/>
     <use xlink:href="#mba50057c1e" x="643.09375" y="221.277204" style="fill-opacity: 0; stroke: #ffa500; stroke-width: 1.4; stroke-linejoin: miter"/>
     <use xlink:href="#mba50057c1e" x="694.6775" y="202.977085" style="fill-opacity: 0; stroke: #ffa500; stroke-width: 1.4; stroke-linejoin: miter"/>
     <use xlink:href="#mba50057c1e" x="746.26125" y="214.269934" style="fill-opacity: 0; stroke: #ffa500; stroke-width: 1.4; stroke-linejoin: miter"/>
     <use xlink:href="#mba50057c1e" x="797.845" y="190.163184" style="fill-opacity: 0; stroke: #ffa500; stroke-width: 1.4; stroke-linejoin: miter"/>
     <use xlink:href="#mba50057c1e" x="849.42875" y="194.079583" style="fill-opacity: 0; stroke: #ffa500; stroke-width: 1.4; stroke-linejoin: miter"/>
    </g>
   </g>
   <g id="patch_3">
    <path d="M 75.6725 647.478047 
L 75.6725 16.698047 
" style="fill: none; stroke: #000000; stroke-width: 2.4; stroke-linejoin: miter; stroke-linecap: square"/>
   </g>
   <g id="patch_4">
    <path d="M 849.42875 647.478047 
L 849.42875 16.698047 
" style="fill: none; stroke: #000000; stroke-width: 2.4; stroke-linejoin: miter; stroke-linecap: square"/>
   </g>
   <g id="patch_5">
    <path d="M 75.6725 647.478047 
L 849.42875 647.478047 
" style="fill: none; stroke: #000000; stroke-width: 2.4; stroke-linejoin: miter; stroke-linecap: square"/>
   </g>
   <g id="patch_6">
    <path d="M 75.6725 16.698047 
L 849.42875 16.698047 
" style="fill: none; stroke: #000000; stroke-width: 2.4; stroke-linejoin: miter; stroke-linecap: square"/>
   </g>
  </g>
  <g id="legend_1">
   <g id="patch_7">
    <path d="M 864.82875 424.061797 
L 995.611875 424.061797 
Q 1000.011875 424.061797 1000.011875 419.661797 
L 1000.011875 292.694297 
Q 1000.011875 288.294297 995.611875 288.294297 
L 864.82875 288.294297 
Q 860.42875 288.294297 860.42875 292.694297 
L 860.42875 419.661797 
Q 860.42875 424.061797 864.82875 424.061797 
L 864.82875 424.061797 
z
" style="fill: none; opacity: 0"/>
   </g>
   <g id="LineCollection_5">
    <path d="M 891.22875 317.110859 
L 891.22875 295.110859 
" style="fill: none; stroke: #03ac13; stroke-width: 1.4"/>
   </g>
   <g id="line2d_31">
    <path d="M 869.22875 306.110859 
L 913.22875 306.110859 
" style="fill: none; stroke: #03ac13; stroke-width: 1.4; stroke-linecap: square"/>
   </g>
   <g id="line2d_32">
    <g>
     <use xlink:href="#m103f1df92e" x="891.22875" y="306.110859" style="fill-opacity: 0; stroke: #03ac13; stroke-width: 1.4"/>
    </g>
   </g>
   <g id="text_29">
    <!-- d = 1 -->
    <g transform="translate(930.82875 313.810859) scale(0.22 -0.22)">
     <defs>
      <path id="DejaVuSans-64" d="M 2906 2969 
L 2906 4863 
L 3481 4863 
L 3481 0 
L 2906 0 
L 2906 525 
Q 2725 213 2448 61 
Q 2172 -91 1784 -91 
Q 1150 -91 751 415 
Q 353 922 353 1747 
Q 353 2572 751 3078 
Q 1150 3584 1784 3584 
Q 2172 3584 2448 3432 
Q 2725 3281 2906 2969 
z
M 947 1747 
Q 947 1113 1208 752 
Q 1469 391 1925 391 
Q 2381 391 2643 752 
Q 2906 1113 2906 1747 
Q 2906 2381 2643 2742 
Q 2381 3103 1925 3103 
Q 1469 3103 1208 2742 
Q 947 2381 947 1747 
z
" transform="scale(0.015625)"/>
      <path id="DejaVuSans-20" transform="scale(0.015625)"/>
      <path id="DejaVuSans-3d" d="M 678 2906 
L 4684 2906 
L 4684 2381 
L 678 2381 
L 678 2906 
z
M 678 1631 
L 4684 1631 
L 4684 1100 
L 678 1100 
L 678 1631 
z
" transform="scale(0.015625)"/>
     </defs>
     <use xlink:href="#DejaVuSans-64"/>
     <use xlink:href="#DejaVuSans-20" x="63.476562"/>
     <use xlink:href="#DejaVuSans-3d" x="95.263672"/>
     <use xlink:href="#DejaVuSans-20" x="179.052734"/>
     <use xlink:href="#DejaVuSans-31" x="210.839844"/>
    </g>
   </g>
   <g id="LineCollection_6">
    <path d="M 891.22875 349.402734 
L 891.22875 327.402734 
" style="fill: none; stroke: #00019a; stroke-width: 1.4"/>
   </g>
   <g id="line2d_33">
    <path d="M 869.22875 338.402734 
L 913.22875 338.402734 
" style="fill: none; stroke: #00019a; stroke-width: 1.4; stroke-linecap: square"/>
   </g>
   <g id="line2d_34">
    <g>
     <use xlink:href="#mbaddd290f3" x="891.22875" y="338.402734" style="fill-opacity: 0; stroke: #00019a; stroke-width: 1.4; stroke-linejoin: miter"/>
    </g>
   </g>
   <g id="text_30">
    <!-- d = 2 -->
    <g transform="translate(930.82875 346.102734) scale(0.22 -0.22)">
     <use xlink:href="#DejaVuSans-64"/>
     <use xlink:href="#DejaVuSans-20" x="63.476562"/>
     <use xlink:href="#DejaVuSans-3d" x="95.263672"/>
     <use xlink:href="#DejaVuSans-20" x="179.052734"/>
     <use xlink:href="#DejaVuSans-32" x="210.839844"/>
    </g>
   </g>
   <g id="LineCollection_7">
    <path d="M 891.22875 381.694609 
L 891.22875 359.694609 
" style="fill: none; stroke: #fe0000; stroke-width: 1.4"/>
   </g>
   <g id="line2d_35">
    <path d="M 869.22875 370.694609 
L 913.22875 370.694609 
" style="fill: none; stroke: #fe0000; stroke-width: 1.4; stroke-linecap: square"/>
   </g>
   <g id="line2d_36">
    <g>
     <use xlink:href="#mec1fb684a7" x="891.22875" y="370.694609" style="fill-opacity: 0; stroke: #fe0000; stroke-width: 1.4; stroke-linejoin: miter"/>
    </g>
   </g>
   <g id="text_31">
    <!-- d = 3 -->
    <g transform="translate(930.82875 378.394609) scale(0.22 -0.22)">
     <use xlink:href="#DejaVuSans-64"/>
     <use xlink:href="#DejaVuSans-20" x="63.476562"/>
     <use xlink:href="#DejaVuSans-3d" x="95.263672"/>
     <use xlink:href="#DejaVuSans-20" x="179.052734"/>
     <use xlink:href="#DejaVuSans-33" x="210.839844"/>
    </g>
   </g>
   <g id="LineCollection_8">
    <path d="M 891.22875 413.986484 
L 891.22875 391.986484 
" style="fill: none; stroke: #ffa500; stroke-width: 1.4"/>
   </g>
   <g id="line2d_37">
    <path d="M 869.22875 402.986484 
L 913.22875 402.986484 
" style="fill: none; stroke: #ffa500; stroke-width: 1.4; stroke-linecap: square"/>
   </g>
   <g id="line2d_38">
    <g>
     <use xlink:href="#mba50057c1e" x="891.22875" y="402.986484" style="fill-opacity: 0; stroke: #ffa500; stroke-width: 1.4; stroke-linejoin: miter"/>
    </g>
   </g>
   <g id="text_32">
    <!-- d = 4 -->
    <g transform="translate(930.82875 410.686484) scale(0.22 -0.22)">
     <use xlink:href="#DejaVuSans-64"/>
     <use xlink:href="#DejaVuSans-20" x="63.476562"/>
     <use xlink:href="#DejaVuSans-3d" x="95.263672"/>
     <use xlink:href="#DejaVuSans-20" x="179.052734"/>
     <use xlink:href="#DejaVuSans-34" x="210.839844"/>
    </g>
   </g>
  </g>
 </g>
 <defs>
  <clipPath id="p0fc70dc37c">
   <rect x="75.6725" y="16.698047" width="773.75625" height="630.78"/>
  </clipPath>
 </defs>
</svg>
