<?xml version="1.0" encoding="utf-8" standalone="no"?>
<!DOCTYPE svg PUBLIC "-//W3C//DTD SVG 1.1//EN"
  "http://www.w3.org/Graphics/SVG/1.1/DTD/svg11.dtd">
<svg xmlns:xlink="http://www.w3.org/1999/xlink" width="1008.462656pt" height="712.72625pt" viewBox="0 0 1008.462656 712.72625" xmlns="http://www.w3.org/2000/svg" version="1.1">
 <metadata>
  <rdf:RDF xmlns:dc="http://purl.org/dc/elements/1.1/" xmlns:cc="http://creativecommons.org/ns#" xmlns:rdf="http://www.w3.org/1999/02/22-rdf-syntax-ns#">
   <cc:Work>
    <dc:type rdf:resource="http://purl.org/dc/dcmitype/StillImage"/>
    <dc:date>2024-11-25T14:04:44.170689</dc:date>
    <dc:format>image/svg+xml</dc:format>
    <dc:creator>
     <cc:Agent>
      <dc:title>Matplotlib v3.9.1, https://matplotlib.org/</dc:title>
     </cc:Agent>
    </dc:creator>
   </cc:Work>
  </rdf:RDF>
 </metadata>
 <defs>
  <style type="text/css">*{stroke-linejoin: round; stroke-linecap: butt}</style>
 </defs>
 <g id="figure_1">
  <g id="patch_1">
   <path d="M 0 712.72625 
L 1008.462656 712.72625 
L 1008.462656 0 
L 0 0 
z
" style="fill: #ffffff"/>
  </g>
  <g id="axes_1">
   <g id="patch_2">
    <path d="M 133.409531 647.7 
L 850.679531 647.7 
L 850.679531 7.2 
L 133.409531 7.2 
z
" style="fill: #ffffff"/>
   </g>
   <g id="matplotlib.axis_1">
    <g id="xtick_1">
     <g id="line2d_1">
      <defs>
       <path id="m54025674fd" d="M 0 0 
L 0 -10 
" style="stroke: #000000; stroke-width: 1.4"/>
      </defs>
      <g>
       <use xlink:href="#m54025674fd" x="133.409531" y="647.7" style="stroke: #000000; stroke-width: 1.4"/>
      </g>
     </g>
     <g id="text_1">
      <!-- 0 -->
      <g transform="translate(125.456406 670.196094) scale(0.25 -0.25)">
       <defs>
        <path id="DejaVuSans-30" d="M 2034 4250 
Q 1547 4250 1301 3770 
Q 1056 3291 1056 2328 
Q 1056 1369 1301 889 
Q 1547 409 2034 409 
Q 2525 409 2770 889 
Q 3016 1369 3016 2328 
Q 3016 3291 2770 3770 
Q 2525 4250 2034 4250 
z
M 2034 4750 
Q 2819 4750 3233 4129 
Q 3647 3509 3647 2328 
Q 3647 1150 3233 529 
Q 2819 -91 2034 -91 
Q 1250 -91 836 529 
Q 422 1150 422 2328 
Q 422 3509 836 4129 
Q 1250 4750 2034 4750 
z
" transform="scale(0.015625)"/>
       </defs>
       <use xlink:href="#DejaVuSans-30"/>
      </g>
     </g>
    </g>
    <g id="xtick_2">
     <g id="line2d_2">
      <g>
       <use xlink:href="#m54025674fd" x="181.227531" y="647.7" style="stroke: #000000; stroke-width: 1.4"/>
      </g>
     </g>
     <g id="text_2">
      <!-- 1 -->
      <g transform="translate(173.274406 670.196094) scale(0.25 -0.25)">
       <defs>
        <path id="DejaVuSans-31" d="M 794 531 
L 1825 531 
L 1825 4091 
L 703 3866 
L 703 4441 
L 1819 4666 
L 2450 4666 
L 2450 531 
L 3481 531 
L 3481 0 
L 794 0 
L 794 531 
z
" transform="scale(0.015625)"/>
       </defs>
       <use xlink:href="#DejaVuSans-31"/>
      </g>
     </g>
    </g>
    <g id="xtick_3">
     <g id="line2d_3">
      <g>
       <use xlink:href="#m54025674fd" x="229.045531" y="647.7" style="stroke: #000000; stroke-width: 1.4"/>
      </g>
     </g>
     <g id="text_3">
      <!-- 2 -->
      <g transform="translate(221.092406 670.196094) scale(0.25 -0.25)">
       <defs>
        <path id="DejaVuSans-32" d="M 1228 531 
L 3431 531 
L 3431 0 
L 469 0 
L 469 531 
Q 828 903 1448 1529 
Q 2069 2156 2228 2338 
Q 2531 2678 2651 2914 
Q 2772 3150 2772 3378 
Q 2772 3750 2511 3984 
Q 2250 4219 1831 4219 
Q 1534 4219 1204 4116 
Q 875 4013 500 3803 
L 500 4441 
Q 881 4594 1212 4672 
Q 1544 4750 1819 4750 
Q 2544 4750 2975 4387 
Q 3406 4025 3406 3419 
Q 3406 3131 3298 2873 
Q 3191 2616 2906 2266 
Q 2828 2175 2409 1742 
Q 1991 1309 1228 531 
z
" transform="scale(0.015625)"/>
       </defs>
       <use xlink:href="#DejaVuSans-32"/>
      </g>
     </g>
    </g>
    <g id="xtick_4">
     <g id="line2d_4">
      <g>
       <use xlink:href="#m54025674fd" x="276.863531" y="647.7" style="stroke: #000000; stroke-width: 1.4"/>
      </g>
     </g>
     <g id="text_4">
      <!-- 3 -->
      <g transform="translate(268.910406 670.196094) scale(0.25 -0.25)">
       <defs>
        <path id="DejaVuSans-33" d="M 2597 2516 
Q 3050 2419 3304 2112 
Q 3559 1806 3559 1356 
Q 3559 666 3084 287 
Q 2609 -91 1734 -91 
Q 1441 -91 1130 -33 
Q 819 25 488 141 
L 488 750 
Q 750 597 1062 519 
Q 1375 441 1716 441 
Q 2309 441 2620 675 
Q 2931 909 2931 1356 
Q 2931 1769 2642 2001 
Q 2353 2234 1838 2234 
L 1294 2234 
L 1294 2753 
L 1863 2753 
Q 2328 2753 2575 2939 
Q 2822 3125 2822 3475 
Q 2822 3834 2567 4026 
Q 2313 4219 1838 4219 
Q 1578 4219 1281 4162 
Q 984 4106 628 3988 
L 628 4550 
Q 988 4650 1302 4700 
Q 1616 4750 1894 4750 
Q 2613 4750 3031 4423 
Q 3450 4097 3450 3541 
Q 3450 3153 3228 2886 
Q 3006 2619 2597 2516 
z
" transform="scale(0.015625)"/>
       </defs>
       <use xlink:href="#DejaVuSans-33"/>
      </g>
     </g>
    </g>
    <g id="xtick_5">
     <g id="line2d_5">
      <g>
       <use xlink:href="#m54025674fd" x="324.681531" y="647.7" style="stroke: #000000; stroke-width: 1.4"/>
      </g>
     </g>
     <g id="text_5">
      <!-- 4 -->
      <g transform="translate(316.728406 670.196094) scale(0.25 -0.25)">
       <defs>
        <path id="DejaVuSans-34" d="M 2419 4116 
L 825 1625 
L 2419 1625 
L 2419 4116 
z
M 2253 4666 
L 3047 4666 
L 3047 1625 
L 3713 1625 
L 3713 1100 
L 3047 1100 
L 3047 0 
L 2419 0 
L 2419 1100 
L 313 1100 
L 313 1709 
L 2253 4666 
z
" transform="scale(0.015625)"/>
       </defs>
       <use xlink:href="#DejaVuSans-34"/>
      </g>
     </g>
    </g>
    <g id="xtick_6">
     <g id="line2d_6">
      <g>
       <use xlink:href="#m54025674fd" x="372.499531" y="647.7" style="stroke: #000000; stroke-width: 1.4"/>
      </g>
     </g>
     <g id="text_6">
      <!-- 5 -->
      <g transform="translate(364.546406 670.196094) scale(0.25 -0.25)">
       <defs>
        <path id="DejaVuSans-35" d="M 691 4666 
L 3169 4666 
L 3169 4134 
L 1269 4134 
L 1269 2991 
Q 1406 3038 1543 3061 
Q 1681 3084 1819 3084 
Q 2600 3084 3056 2656 
Q 3513 2228 3513 1497 
Q 3513 744 3044 326 
Q 2575 -91 1722 -91 
Q 1428 -91 1123 -41 
Q 819 9 494 109 
L 494 744 
Q 775 591 1075 516 
Q 1375 441 1709 441 
Q 2250 441 2565 725 
Q 2881 1009 2881 1497 
Q 2881 1984 2565 2268 
Q 2250 2553 1709 2553 
Q 1456 2553 1204 2497 
Q 953 2441 691 2322 
L 691 4666 
z
" transform="scale(0.015625)"/>
       </defs>
       <use xlink:href="#DejaVuSans-35"/>
      </g>
     </g>
    </g>
    <g id="xtick_7">
     <g id="line2d_7">
      <g>
       <use xlink:href="#m54025674fd" x="420.317531" y="647.7" style="stroke: #000000; stroke-width: 1.4"/>
      </g>
     </g>
     <g id="text_7">
      <!-- 6 -->
      <g transform="translate(412.364406 670.196094) scale(0.25 -0.25)">
       <defs>
        <path id="DejaVuSans-36" d="M 2113 2584 
Q 1688 2584 1439 2293 
Q 1191 2003 1191 1497 
Q 1191 994 1439 701 
Q 1688 409 2113 409 
Q 2538 409 2786 701 
Q 3034 994 3034 1497 
Q 3034 2003 2786 2293 
Q 2538 2584 2113 2584 
z
M 3366 4563 
L 3366 3988 
Q 3128 4100 2886 4159 
Q 2644 4219 2406 4219 
Q 1781 4219 1451 3797 
Q 1122 3375 1075 2522 
Q 1259 2794 1537 2939 
Q 1816 3084 2150 3084 
Q 2853 3084 3261 2657 
Q 3669 2231 3669 1497 
Q 3669 778 3244 343 
Q 2819 -91 2113 -91 
Q 1303 -91 875 529 
Q 447 1150 447 2328 
Q 447 3434 972 4092 
Q 1497 4750 2381 4750 
Q 2619 4750 2861 4703 
Q 3103 4656 3366 4563 
z
" transform="scale(0.015625)"/>
       </defs>
       <use xlink:href="#DejaVuSans-36"/>
      </g>
     </g>
    </g>
    <g id="xtick_8">
     <g id="line2d_8">
      <g>
       <use xlink:href="#m54025674fd" x="468.135531" y="647.7" style="stroke: #000000; stroke-width: 1.4"/>
      </g>
     </g>
     <g id="text_8">
      <!-- 7 -->
      <g transform="translate(460.182406 670.196094) scale(0.25 -0.25)">
       <defs>
        <path id="DejaVuSans-37" d="M 525 4666 
L 3525 4666 
L 3525 4397 
L 1831 0 
L 1172 0 
L 2766 4134 
L 525 4134 
L 525 4666 
z
" transform="scale(0.015625)"/>
       </defs>
       <use xlink:href="#DejaVuSans-37"/>
      </g>
     </g>
    </g>
    <g id="xtick_9">
     <g id="line2d_9">
      <g>
       <use xlink:href="#m54025674fd" x="515.953531" y="647.7" style="stroke: #000000; stroke-width: 1.4"/>
      </g>
     </g>
     <g id="text_9">
      <!-- 8 -->
      <g transform="translate(508.000406 670.196094) scale(0.25 -0.25)">
       <defs>
        <path id="DejaVuSans-38" d="M 2034 2216 
Q 1584 2216 1326 1975 
Q 1069 1734 1069 1313 
Q 1069 891 1326 650 
Q 1584 409 2034 409 
Q 2484 409 2743 651 
Q 3003 894 3003 1313 
Q 3003 1734 2745 1975 
Q 2488 2216 2034 2216 
z
M 1403 2484 
Q 997 2584 770 2862 
Q 544 3141 544 3541 
Q 544 4100 942 4425 
Q 1341 4750 2034 4750 
Q 2731 4750 3128 4425 
Q 3525 4100 3525 3541 
Q 3525 3141 3298 2862 
Q 3072 2584 2669 2484 
Q 3125 2378 3379 2068 
Q 3634 1759 3634 1313 
Q 3634 634 3220 271 
Q 2806 -91 2034 -91 
Q 1263 -91 848 271 
Q 434 634 434 1313 
Q 434 1759 690 2068 
Q 947 2378 1403 2484 
z
M 1172 3481 
Q 1172 3119 1398 2916 
Q 1625 2713 2034 2713 
Q 2441 2713 2670 2916 
Q 2900 3119 2900 3481 
Q 2900 3844 2670 4047 
Q 2441 4250 2034 4250 
Q 1625 4250 1398 4047 
Q 1172 3844 1172 3481 
z
" transform="scale(0.015625)"/>
       </defs>
       <use xlink:href="#DejaVuSans-38"/>
      </g>
     </g>
    </g>
    <g id="xtick_10">
     <g id="line2d_10">
      <g>
       <use xlink:href="#m54025674fd" x="563.771531" y="647.7" style="stroke: #000000; stroke-width: 1.4"/>
      </g>
     </g>
     <g id="text_10">
      <!-- 9 -->
      <g transform="translate(555.818406 670.196094) scale(0.25 -0.25)">
       <defs>
        <path id="DejaVuSans-39" d="M 703 97 
L 703 672 
Q 941 559 1184 500 
Q 1428 441 1663 441 
Q 2288 441 2617 861 
Q 2947 1281 2994 2138 
Q 2813 1869 2534 1725 
Q 2256 1581 1919 1581 
Q 1219 1581 811 2004 
Q 403 2428 403 3163 
Q 403 3881 828 4315 
Q 1253 4750 1959 4750 
Q 2769 4750 3195 4129 
Q 3622 3509 3622 2328 
Q 3622 1225 3098 567 
Q 2575 -91 1691 -91 
Q 1453 -91 1209 -44 
Q 966 3 703 97 
z
M 1959 2075 
Q 2384 2075 2632 2365 
Q 2881 2656 2881 3163 
Q 2881 3666 2632 3958 
Q 2384 4250 1959 4250 
Q 1534 4250 1286 3958 
Q 1038 3666 1038 3163 
Q 1038 2656 1286 2365 
Q 1534 2075 1959 2075 
z
" transform="scale(0.015625)"/>
       </defs>
       <use xlink:href="#DejaVuSans-39"/>
      </g>
     </g>
    </g>
    <g id="xtick_11">
     <g id="line2d_11">
      <g>
       <use xlink:href="#m54025674fd" x="611.589531" y="647.7" style="stroke: #000000; stroke-width: 1.4"/>
      </g>
     </g>
     <g id="text_11">
      <!-- 10 -->
      <g transform="translate(595.683281 670.196094) scale(0.25 -0.25)">
       <use xlink:href="#DejaVuSans-31"/>
       <use xlink:href="#DejaVuSans-30" x="63.623047"/>
      </g>
     </g>
    </g>
    <g id="xtick_12">
     <g id="line2d_12">
      <g>
       <use xlink:href="#m54025674fd" x="659.407531" y="647.7" style="stroke: #000000; stroke-width: 1.4"/>
      </g>
     </g>
     <g id="text_12">
      <!-- 11 -->
      <g transform="translate(643.501281 670.196094) scale(0.25 -0.25)">
       <use xlink:href="#DejaVuSans-31"/>
       <use xlink:href="#DejaVuSans-31" x="63.623047"/>
      </g>
     </g>
    </g>
    <g id="xtick_13">
     <g id="line2d_13">
      <g>
       <use xlink:href="#m54025674fd" x="707.225531" y="647.7" style="stroke: #000000; stroke-width: 1.4"/>
      </g>
     </g>
     <g id="text_13">
      <!-- 12 -->
      <g transform="translate(691.319281 670.196094) scale(0.25 -0.25)">
       <use xlink:href="#DejaVuSans-31"/>
       <use xlink:href="#DejaVuSans-32" x="63.623047"/>
      </g>
     </g>
    </g>
    <g id="xtick_14">
     <g id="line2d_14">
      <g>
       <use xlink:href="#m54025674fd" x="755.043531" y="647.7" style="stroke: #000000; stroke-width: 1.4"/>
      </g>
     </g>
     <g id="text_14">
      <!-- 13 -->
      <g transform="translate(739.137281 670.196094) scale(0.25 -0.25)">
       <use xlink:href="#DejaVuSans-31"/>
       <use xlink:href="#DejaVuSans-33" x="63.623047"/>
      </g>
     </g>
    </g>
    <g id="xtick_15">
     <g id="line2d_15">
      <g>
       <use xlink:href="#m54025674fd" x="802.861531" y="647.7" style="stroke: #000000; stroke-width: 1.4"/>
      </g>
     </g>
     <g id="text_15">
      <!-- 14 -->
      <g transform="translate(786.955281 670.196094) scale(0.25 -0.25)">
       <use xlink:href="#DejaVuSans-31"/>
       <use xlink:href="#DejaVuSans-34" x="63.623047"/>
      </g>
     </g>
    </g>
    <g id="xtick_16">
     <g id="line2d_16">
      <g>
       <use xlink:href="#m54025674fd" x="850.679531" y="647.7" style="stroke: #000000; stroke-width: 1.4"/>
      </g>
     </g>
     <g id="text_16">
      <!-- 15 -->
      <g transform="translate(834.773281 670.196094) scale(0.25 -0.25)">
       <use xlink:href="#DejaVuSans-31"/>
       <use xlink:href="#DejaVuSans-35" x="63.623047"/>
      </g>
     </g>
    </g>
    <g id="text_17">
     <!-- $\alpha_a$ -->
     <g transform="translate(476.924531 699.911094) scale(0.27 -0.27)">
      <defs>
       <path id="DejaVuSans-Oblique-3b1" d="M 2619 1628 
L 2622 2350 
Q 2625 3088 2069 3091 
Q 1653 3094 1394 2747 
Q 1069 2319 959 1747 
Q 825 1059 994 731 
Q 1169 397 1547 397 
Q 1966 397 2319 1063 
L 2619 1628 
z
M 2166 3578 
Q 3141 3594 3128 2584 
Q 3128 2584 3616 3500 
L 4128 3500 
L 3119 1603 
L 3109 919 
Q 3109 766 3194 638 
Q 3291 488 3391 488 
L 3669 488 
L 3575 0 
L 3228 0 
Q 2934 0 2722 263 
Q 2622 394 2619 669 
Q 2416 334 2066 50 
Q 1900 -81 1453 -78 
Q 722 -72 456 397 
Q 184 884 353 1747 
Q 534 2675 1009 3097 
Q 1544 3569 2166 3578 
z
" transform="scale(0.015625)"/>
       <path id="DejaVuSans-Oblique-61" d="M 3438 1997 
L 3047 0 
L 2472 0 
L 2578 531 
Q 2325 219 2001 64 
Q 1678 -91 1281 -91 
Q 834 -91 548 182 
Q 263 456 263 884 
Q 263 1497 752 1853 
Q 1241 2209 2100 2209 
L 2900 2209 
L 2931 2363 
Q 2938 2388 2941 2417 
Q 2944 2447 2944 2509 
Q 2944 2788 2717 2942 
Q 2491 3097 2081 3097 
Q 1800 3097 1504 3025 
Q 1209 2953 897 2809 
L 997 3341 
Q 1322 3463 1633 3523 
Q 1944 3584 2234 3584 
Q 2853 3584 3176 3315 
Q 3500 3047 3500 2534 
Q 3500 2431 3484 2292 
Q 3469 2153 3438 1997 
z
M 2816 1759 
L 2241 1759 
Q 1534 1759 1195 1570 
Q 856 1381 856 984 
Q 856 709 1029 553 
Q 1203 397 1509 397 
Q 1978 397 2328 733 
Q 2678 1069 2791 1631 
L 2816 1759 
z
" transform="scale(0.015625)"/>
      </defs>
      <use xlink:href="#DejaVuSans-Oblique-3b1" transform="translate(0 0.84375)"/>
      <use xlink:href="#DejaVuSans-Oblique-61" transform="translate(65.917969 -15.5625) scale(0.7)"/>
     </g>
    </g>
   </g>
   <g id="matplotlib.axis_2">
    <g id="ytick_1">
     <g id="line2d_17">
      <defs>
       <path id="m0fb501edc6" d="M 0 0 
L 10 0 
" style="stroke: #000000; stroke-width: 1.4"/>
      </defs>
      <g>
       <use xlink:href="#m0fb501edc6" x="133.409531" y="609.264135" style="stroke: #000000; stroke-width: 1.4"/>
      </g>
     </g>
     <g id="text_18">
      <!-- −0.075 -->
      <g transform="translate(37.39 618.762182) scale(0.25 -0.25)">
       <defs>
        <path id="DejaVuSans-2212" d="M 678 2272 
L 4684 2272 
L 4684 1741 
L 678 1741 
L 678 2272 
z
" transform="scale(0.015625)"/>
        <path id="DejaVuSans-2e" d="M 684 794 
L 1344 794 
L 1344 0 
L 684 0 
L 684 794 
z
" transform="scale(0.015625)"/>
       </defs>
       <use xlink:href="#DejaVuSans-2212"/>
       <use xlink:href="#DejaVuSans-30" x="83.789062"/>
       <use xlink:href="#DejaVuSans-2e" x="147.412109"/>
       <use xlink:href="#DejaVuSans-30" x="179.199219"/>
       <use xlink:href="#DejaVuSans-37" x="242.822266"/>
       <use xlink:href="#DejaVuSans-35" x="306.445312"/>
      </g>
     </g>
    </g>
    <g id="ytick_2">
     <g id="line2d_18">
      <g>
       <use xlink:href="#m0fb501edc6" x="133.409531" y="528.864632" style="stroke: #000000; stroke-width: 1.4"/>
      </g>
     </g>
     <g id="text_19">
      <!-- −0.050 -->
      <g transform="translate(37.39 538.362679) scale(0.25 -0.25)">
       <use xlink:href="#DejaVuSans-2212"/>
       <use xlink:href="#DejaVuSans-30" x="83.789062"/>
       <use xlink:href="#DejaVuSans-2e" x="147.412109"/>
       <use xlink:href="#DejaVuSans-30" x="179.199219"/>
       <use xlink:href="#DejaVuSans-35" x="242.822266"/>
       <use xlink:href="#DejaVuSans-30" x="306.445312"/>
      </g>
     </g>
    </g>
    <g id="ytick_3">
     <g id="line2d_19">
      <g>
       <use xlink:href="#m0fb501edc6" x="133.409531" y="448.465129" style="stroke: #000000; stroke-width: 1.4"/>
      </g>
     </g>
     <g id="text_20">
      <!-- −0.025 -->
      <g transform="translate(37.39 457.963176) scale(0.25 -0.25)">
       <use xlink:href="#DejaVuSans-2212"/>
       <use xlink:href="#DejaVuSans-30" x="83.789062"/>
       <use xlink:href="#DejaVuSans-2e" x="147.412109"/>
       <use xlink:href="#DejaVuSans-30" x="179.199219"/>
       <use xlink:href="#DejaVuSans-32" x="242.822266"/>
       <use xlink:href="#DejaVuSans-35" x="306.445312"/>
      </g>
     </g>
    </g>
    <g id="ytick_4">
     <g id="line2d_20">
      <g>
       <use xlink:href="#m0fb501edc6" x="133.409531" y="368.065626" style="stroke: #000000; stroke-width: 1.4"/>
      </g>
     </g>
     <g id="text_21">
      <!-- 0.000 -->
      <g transform="translate(58.339219 377.563672) scale(0.25 -0.25)">
       <use xlink:href="#DejaVuSans-30"/>
       <use xlink:href="#DejaVuSans-2e" x="63.623047"/>
       <use xlink:href="#DejaVuSans-30" x="95.410156"/>
       <use xlink:href="#DejaVuSans-30" x="159.033203"/>
       <use xlink:href="#DejaVuSans-30" x="222.65625"/>
      </g>
     </g>
    </g>
    <g id="ytick_5">
     <g id="line2d_21">
      <g>
       <use xlink:href="#m0fb501edc6" x="133.409531" y="287.666122" style="stroke: #000000; stroke-width: 1.4"/>
      </g>
     </g>
     <g id="text_22">
      <!-- 0.025 -->
      <g transform="translate(58.339219 297.164169) scale(0.25 -0.25)">
       <use xlink:href="#DejaVuSans-30"/>
       <use xlink:href="#DejaVuSans-2e" x="63.623047"/>
       <use xlink:href="#DejaVuSans-30" x="95.410156"/>
       <use xlink:href="#DejaVuSans-32" x="159.033203"/>
       <use xlink:href="#DejaVuSans-35" x="222.65625"/>
      </g>
     </g>
    </g>
    <g id="ytick_6">
     <g id="line2d_22">
      <g>
       <use xlink:href="#m0fb501edc6" x="133.409531" y="207.266619" style="stroke: #000000; stroke-width: 1.4"/>
      </g>
     </g>
     <g id="text_23">
      <!-- 0.050 -->
      <g transform="translate(58.339219 216.764666) scale(0.25 -0.25)">
       <use xlink:href="#DejaVuSans-30"/>
       <use xlink:href="#DejaVuSans-2e" x="63.623047"/>
       <use xlink:href="#DejaVuSans-30" x="95.410156"/>
       <use xlink:href="#DejaVuSans-35" x="159.033203"/>
       <use xlink:href="#DejaVuSans-30" x="222.65625"/>
      </g>
     </g>
    </g>
    <g id="ytick_7">
     <g id="line2d_23">
      <g>
       <use xlink:href="#m0fb501edc6" x="133.409531" y="126.867116" style="stroke: #000000; stroke-width: 1.4"/>
      </g>
     </g>
     <g id="text_24">
      <!-- 0.075 -->
      <g transform="translate(58.339219 136.365163) scale(0.25 -0.25)">
       <use xlink:href="#DejaVuSans-30"/>
       <use xlink:href="#DejaVuSans-2e" x="63.623047"/>
       <use xlink:href="#DejaVuSans-30" x="95.410156"/>
       <use xlink:href="#DejaVuSans-37" x="159.033203"/>
       <use xlink:href="#DejaVuSans-35" x="222.65625"/>
      </g>
     </g>
    </g>
    <g id="ytick_8">
     <g id="line2d_24">
      <g>
       <use xlink:href="#m0fb501edc6" x="133.409531" y="46.467613" style="stroke: #000000; stroke-width: 1.4"/>
      </g>
     </g>
     <g id="text_25">
      <!-- 0.100 -->
      <g transform="translate(58.339219 55.96566) scale(0.25 -0.25)">
       <use xlink:href="#DejaVuSans-30"/>
       <use xlink:href="#DejaVuSans-2e" x="63.623047"/>
       <use xlink:href="#DejaVuSans-31" x="95.410156"/>
       <use xlink:href="#DejaVuSans-30" x="159.033203"/>
       <use xlink:href="#DejaVuSans-30" x="222.65625"/>
      </g>
     </g>
    </g>
    <g id="text_26">
     <!-- $ \xi_\ell $ -->
     <g transform="translate(27.72 339.33) rotate(-90) scale(0.27 -0.27)">
      <defs>
       <path id="DejaVuSans-Oblique-3be" d="M 2016 397 
Q 2428 394 2628 159 
Q 2844 -88 2772 -463 
Q 2700 -822 2422 -1072 
Q 2119 -1344 1609 -1344 
Q 1656 -1109 1700 -872 
Q 1913 -888 2072 -750 
Q 2194 -641 2216 -525 
Q 2247 -359 2175 -222 
Q 2100 -91 1922 -91 
Q -25 -91 241 1275 
Q 422 2213 1516 2488 
Q 663 2600 822 3413 
Q 941 4028 1678 4284 
L 1028 4284 
L 1141 4863 
L 3606 4863 
L 3494 4284 
Q 1528 4284 1350 3375 
Q 1234 2778 2881 2750 
L 2778 2219 
Q 1009 2288 819 1275 
Q 659 428 2016 397 
z
" transform="scale(0.015625)"/>
       <path id="DejaVuSans-Oblique-2113" d="M 950 838 
Q 1078 213 1350 213 
Q 1531 213 1766 572 
L 2181 572 
Q 1994 253 1775 88 
Q 1538 -91 1319 -91 
Q 831 -91 634 344 
L 400 0 
L -88 0 
Q 250 459 500 888 
Q 469 1131 469 1397 
Q 469 1872 566 2347 
Q 931 4131 1256 4497 
Q 1481 4750 1866 4750 
Q 2256 4750 2256 4209 
Q 2253 3966 2197 3675 
Q 1972 2484 950 838 
z
M 947 1656 
Q 1531 2744 1709 3613 
Q 1803 4072 1803 4191 
Q 1803 4406 1725 4406 
Q 1384 4134 1081 2516 
Q 997 2063 947 1656 
z
" transform="scale(0.015625)"/>
      </defs>
      <use xlink:href="#DejaVuSans-Oblique-3be" transform="translate(0 0.015625)"/>
      <use xlink:href="#DejaVuSans-Oblique-2113" transform="translate(55.761719 -16.390625) scale(0.7)"/>
     </g>
    </g>
   </g>
   <g id="LineCollection_1">
    <path d="M 133.409531 575.552241 
L 133.409531 79.689434 
" clip-path="url(#p40cc245c19)" style="fill: none; stroke: #03ac13; stroke-width: 1.4"/>
    <path d="M 181.227531 554.228338 
L 181.227531 99.057327 
" clip-path="url(#p40cc245c19)" style="fill: none; stroke: #03ac13; stroke-width: 1.4"/>
    <path d="M 276.863531 451.204419 
L 276.863531 259.89235 
" clip-path="url(#p40cc245c19)" style="fill: none; stroke: #03ac13; stroke-width: 1.4"/>
    <path d="M 324.681531 436.023593 
L 324.681531 281.252047 
" clip-path="url(#p40cc245c19)" style="fill: none; stroke: #03ac13; stroke-width: 1.4"/>
    <path d="M 372.499531 426.532001 
L 372.499531 292.820002 
" clip-path="url(#p40cc245c19)" style="fill: none; stroke: #03ac13; stroke-width: 1.4"/>
    <path d="M 420.317531 424.385329 
L 420.317531 295.579012 
" clip-path="url(#p40cc245c19)" style="fill: none; stroke: #03ac13; stroke-width: 1.4"/>
    <path d="M 468.135531 431.130528 
L 468.135531 289.149312 
" clip-path="url(#p40cc245c19)" style="fill: none; stroke: #03ac13; stroke-width: 1.4"/>
    <path d="M 515.953531 427.66901 
L 515.953531 291.779843 
" clip-path="url(#p40cc245c19)" style="fill: none; stroke: #03ac13; stroke-width: 1.4"/>
    <path d="M 563.771531 434.423341 
L 563.771531 287.266814 
" clip-path="url(#p40cc245c19)" style="fill: none; stroke: #03ac13; stroke-width: 1.4"/>
    <path d="M 611.589531 419.593693 
L 611.589531 305.232364 
" clip-path="url(#p40cc245c19)" style="fill: none; stroke: #03ac13; stroke-width: 1.4"/>
    <path d="M 659.407531 443.668596 
L 659.407531 276.813481 
" clip-path="url(#p40cc245c19)" style="fill: none; stroke: #03ac13; stroke-width: 1.4"/>
    <path d="M 707.225531 408.054129 
L 707.225531 319.332556 
" clip-path="url(#p40cc245c19)" style="fill: none; stroke: #03ac13; stroke-width: 1.4"/>
    <path d="M 755.043531 441.789467 
L 755.043531 279.910044 
" clip-path="url(#p40cc245c19)" style="fill: none; stroke: #03ac13; stroke-width: 1.4"/>
    <path d="M 802.861531 421.370024 
L 802.861531 302.343114 
" clip-path="url(#p40cc245c19)" style="fill: none; stroke: #03ac13; stroke-width: 1.4"/>
    <path d="M 850.679531 405.012263 
L 850.679531 324.261727 
" clip-path="url(#p40cc245c19)" style="fill: none; stroke: #03ac13; stroke-width: 1.4"/>
   </g>
   <g id="LineCollection_2">
    <path d="M 133.409531 503.405251 
L 133.409531 153.249573 
" clip-path="url(#p40cc245c19)" style="fill: none; stroke: #00019a; stroke-width: 1.4"/>
    <path d="M 181.227531 562.932055 
L 181.227531 76.007611 
" clip-path="url(#p40cc245c19)" style="fill: none; stroke: #00019a; stroke-width: 1.4"/>
    <path d="M 276.863531 540.751789 
L 276.863531 130.751736 
" clip-path="url(#p40cc245c19)" style="fill: none; stroke: #00019a; stroke-width: 1.4"/>
    <path d="M 324.681531 494.933204 
L 324.681531 205.3859 
" clip-path="url(#p40cc245c19)" style="fill: none; stroke: #00019a; stroke-width: 1.4"/>
    <path d="M 372.499531 515.683361 
L 372.499531 189.640181 
" clip-path="url(#p40cc245c19)" style="fill: none; stroke: #00019a; stroke-width: 1.4"/>
    <path d="M 420.317531 489.059212 
L 420.317531 223.418036 
" clip-path="url(#p40cc245c19)" style="fill: none; stroke: #00019a; stroke-width: 1.4"/>
    <path d="M 468.135531 489.15955 
L 468.135531 221.592689 
" clip-path="url(#p40cc245c19)" style="fill: none; stroke: #00019a; stroke-width: 1.4"/>
    <path d="M 515.953531 494.2948 
L 515.953531 218.50984 
" clip-path="url(#p40cc245c19)" style="fill: none; stroke: #00019a; stroke-width: 1.4"/>
    <path d="M 563.771531 477.218281 
L 563.771531 235.890652 
" clip-path="url(#p40cc245c19)" style="fill: none; stroke: #00019a; stroke-width: 1.4"/>
    <path d="M 611.589531 463.094284 
L 611.589531 252.355708 
" clip-path="url(#p40cc245c19)" style="fill: none; stroke: #00019a; stroke-width: 1.4"/>
    <path d="M 659.407531 557.585331 
L 659.407531 152.051394 
" clip-path="url(#p40cc245c19)" style="fill: none; stroke: #00019a; stroke-width: 1.4"/>
    <path d="M 707.225531 444.766684 
L 707.225531 273.119883 
" clip-path="url(#p40cc245c19)" style="fill: none; stroke: #00019a; stroke-width: 1.4"/>
    <path d="M 755.043531 546.844334 
L 755.043531 165.061417 
" clip-path="url(#p40cc245c19)" style="fill: none; stroke: #00019a; stroke-width: 1.4"/>
    <path d="M 802.861531 445.954632 
L 802.861531 273.880166 
" clip-path="url(#p40cc245c19)" style="fill: none; stroke: #00019a; stroke-width: 1.4"/>
    <path d="M 850.679531 444.363456 
L 850.679531 274.206328 
" clip-path="url(#p40cc245c19)" style="fill: none; stroke: #00019a; stroke-width: 1.4"/>
   </g>
   <g id="LineCollection_3">
    <path d="M 133.409531 531.075227 
L 133.409531 122.686643 
" clip-path="url(#p40cc245c19)" style="fill: none; stroke: #fe0000; stroke-width: 1.4"/>
    <path d="M 181.227531 562.01303 
L 181.227531 66.981319 
" clip-path="url(#p40cc245c19)" style="fill: none; stroke: #fe0000; stroke-width: 1.4"/>
    <path d="M 276.863531 573.910192 
L 276.863531 80.038046 
" clip-path="url(#p40cc245c19)" style="fill: none; stroke: #fe0000; stroke-width: 1.4"/>
    <path d="M 324.681531 531.328532 
L 324.681531 129.306788 
" clip-path="url(#p40cc245c19)" style="fill: none; stroke: #fe0000; stroke-width: 1.4"/>
    <path d="M 372.499531 521.204374 
L 372.499531 160.630079 
" clip-path="url(#p40cc245c19)" style="fill: none; stroke: #fe0000; stroke-width: 1.4"/>
    <path d="M 420.317531 540.656538 
L 420.317531 159.381678 
" clip-path="url(#p40cc245c19)" style="fill: none; stroke: #fe0000; stroke-width: 1.4"/>
    <path d="M 468.135531 509.134252 
L 468.135531 202.702966 
" clip-path="url(#p40cc245c19)" style="fill: none; stroke: #fe0000; stroke-width: 1.4"/>
    <path d="M 515.953531 504.396189 
L 515.953531 212.843858 
" clip-path="url(#p40cc245c19)" style="fill: none; stroke: #fe0000; stroke-width: 1.4"/>
    <path d="M 563.771531 532.443876 
L 563.771531 187.318304 
" clip-path="url(#p40cc245c19)" style="fill: none; stroke: #fe0000; stroke-width: 1.4"/>
    <path d="M 611.589531 465.762633 
L 611.589531 260.013748 
" clip-path="url(#p40cc245c19)" style="fill: none; stroke: #fe0000; stroke-width: 1.4"/>
    <path d="M 659.407531 555.9612 
L 659.407531 166.685312 
" clip-path="url(#p40cc245c19)" style="fill: none; stroke: #fe0000; stroke-width: 1.4"/>
    <path d="M 707.225531 490.715604 
L 707.225531 229.936762 
" clip-path="url(#p40cc245c19)" style="fill: none; stroke: #fe0000; stroke-width: 1.4"/>
    <path d="M 755.043531 557.424711 
L 755.043531 165.386461 
" clip-path="url(#p40cc245c19)" style="fill: none; stroke: #fe0000; stroke-width: 1.4"/>
    <path d="M 802.861531 474.208736 
L 802.861531 242.8262 
" clip-path="url(#p40cc245c19)" style="fill: none; stroke: #fe0000; stroke-width: 1.4"/>
    <path d="M 850.679531 477.428283 
L 850.679531 247.595143 
" clip-path="url(#p40cc245c19)" style="fill: none; stroke: #fe0000; stroke-width: 1.4"/>
   </g>
   <g id="LineCollection_4">
    <path d="M 133.409531 539.974695 
L 133.409531 109.094162 
" clip-path="url(#p40cc245c19)" style="fill: none; stroke: #ffa500; stroke-width: 1.4"/>
    <path d="M 181.227531 555.003813 
L 181.227531 79.973616 
" clip-path="url(#p40cc245c19)" style="fill: none; stroke: #ffa500; stroke-width: 1.4"/>
    <path d="M 276.863531 594.984875 
L 276.863531 36.313636 
" clip-path="url(#p40cc245c19)" style="fill: none; stroke: #ffa500; stroke-width: 1.4"/>
    <path d="M 324.681531 568.7287 
L 324.681531 87.625808 
" clip-path="url(#p40cc245c19)" style="fill: none; stroke: #ffa500; stroke-width: 1.4"/>
    <path d="M 372.499531 498.913144 
L 372.499531 169.660248 
" clip-path="url(#p40cc245c19)" style="fill: none; stroke: #ffa500; stroke-width: 1.4"/>
    <path d="M 420.317531 491.79009 
L 420.317531 183.555508 
" clip-path="url(#p40cc245c19)" style="fill: none; stroke: #ffa500; stroke-width: 1.4"/>
    <path d="M 468.135531 500.316425 
L 468.135531 189.264886 
" clip-path="url(#p40cc245c19)" style="fill: none; stroke: #ffa500; stroke-width: 1.4"/>
    <path d="M 515.953531 521.457642 
L 515.953531 181.47758 
" clip-path="url(#p40cc245c19)" style="fill: none; stroke: #ffa500; stroke-width: 1.4"/>
    <path d="M 563.771531 507.890474 
L 563.771531 213.887509 
" clip-path="url(#p40cc245c19)" style="fill: none; stroke: #ffa500; stroke-width: 1.4"/>
    <path d="M 611.589531 476.502706 
L 611.589531 258.121166 
" clip-path="url(#p40cc245c19)" style="fill: none; stroke: #ffa500; stroke-width: 1.4"/>
    <path d="M 659.407531 563.828596 
L 659.407531 164.881145 
" clip-path="url(#p40cc245c19)" style="fill: none; stroke: #ffa500; stroke-width: 1.4"/>
    <path d="M 707.225531 486.607975 
L 707.225531 246.640991 
" clip-path="url(#p40cc245c19)" style="fill: none; stroke: #ffa500; stroke-width: 1.4"/>
    <path d="M 755.043531 618.586364 
L 755.043531 115.078391 
" clip-path="url(#p40cc245c19)" style="fill: none; stroke: #ffa500; stroke-width: 1.4"/>
    <path d="M 802.861531 459.810176 
L 802.861531 274.634291 
" clip-path="url(#p40cc245c19)" style="fill: none; stroke: #ffa500; stroke-width: 1.4"/>
    <path d="M 850.679531 472.116569 
L 850.679531 258.378773 
" clip-path="url(#p40cc245c19)" style="fill: none; stroke: #ffa500; stroke-width: 1.4"/>
   </g>
   <g id="line2d_25">
    <path d="M 133.409531 327.620837 
L 181.227531 326.642833 
L 276.863531 355.548385 
L 324.681531 358.63782 
L 372.499531 359.676001 
L 420.317531 359.98217 
L 468.135531 360.13992 
L 515.953531 359.724426 
L 563.771531 360.845077 
L 611.589531 362.413028 
L 659.407531 360.241038 
L 707.225531 363.693343 
L 755.043531 360.849756 
L 802.861531 361.856569 
L 850.679531 364.636995 
" clip-path="url(#p40cc245c19)" style="fill: none; stroke: #03ac13; stroke-width: 1.4; stroke-linecap: square"/>
    <defs>
     <path id="mfde0d610eb" d="M 0 12 
C 3.182437 12 6.234958 10.735604 8.485281 8.485281 
C 10.735604 6.234958 12 3.182437 12 0 
C 12 -3.182437 10.735604 -6.234958 8.485281 -8.485281 
C 6.234958 -10.735604 3.182437 -12 0 -12 
C -3.182437 -12 -6.234958 -10.735604 -8.485281 -8.485281 
C -10.735604 -6.234958 -12 -3.182437 -12 0 
C -12 3.182437 -10.735604 6.234958 -8.485281 8.485281 
C -6.234958 10.735604 -3.182437 12 0 12 
z
" style="stroke: #03ac13; stroke-width: 1.4"/>
    </defs>
    <g clip-path="url(#p40cc245c19)">
     <use xlink:href="#mfde0d610eb" x="133.409531" y="327.620837" style="fill-opacity: 0; stroke: #03ac13; stroke-width: 1.4"/>
     <use xlink:href="#mfde0d610eb" x="181.227531" y="326.642833" style="fill-opacity: 0; stroke: #03ac13; stroke-width: 1.4"/>
     <use xlink:href="#mfde0d610eb" x="276.863531" y="355.548385" style="fill-opacity: 0; stroke: #03ac13; stroke-width: 1.4"/>
     <use xlink:href="#mfde0d610eb" x="324.681531" y="358.63782" style="fill-opacity: 0; stroke: #03ac13; stroke-width: 1.4"/>
     <use xlink:href="#mfde0d610eb" x="372.499531" y="359.676001" style="fill-opacity: 0; stroke: #03ac13; stroke-width: 1.4"/>
     <use xlink:href="#mfde0d610eb" x="420.317531" y="359.98217" style="fill-opacity: 0; stroke: #03ac13; stroke-width: 1.4"/>
     <use xlink:href="#mfde0d610eb" x="468.135531" y="360.13992" style="fill-opacity: 0; stroke: #03ac13; stroke-width: 1.4"/>
     <use xlink:href="#mfde0d610eb" x="515.953531" y="359.724426" style="fill-opacity: 0; stroke: #03ac13; stroke-width: 1.4"/>
     <use xlink:href="#mfde0d610eb" x="563.771531" y="360.845077" style="fill-opacity: 0; stroke: #03ac13; stroke-width: 1.4"/>
     <use xlink:href="#mfde0d610eb" x="611.589531" y="362.413028" style="fill-opacity: 0; stroke: #03ac13; stroke-width: 1.4"/>
     <use xlink:href="#mfde0d610eb" x="659.407531" y="360.241038" style="fill-opacity: 0; stroke: #03ac13; stroke-width: 1.4"/>
     <use xlink:href="#mfde0d610eb" x="707.225531" y="363.693343" style="fill-opacity: 0; stroke: #03ac13; stroke-width: 1.4"/>
     <use xlink:href="#mfde0d610eb" x="755.043531" y="360.849756" style="fill-opacity: 0; stroke: #03ac13; stroke-width: 1.4"/>
     <use xlink:href="#mfde0d610eb" x="802.861531" y="361.856569" style="fill-opacity: 0; stroke: #03ac13; stroke-width: 1.4"/>
     <use xlink:href="#mfde0d610eb" x="850.679531" y="364.636995" style="fill-opacity: 0; stroke: #03ac13; stroke-width: 1.4"/>
    </g>
   </g>
   <g id="line2d_26">
    <path d="M 133.409531 328.327412 
L 181.227531 319.469833 
L 276.863531 335.751762 
L 324.681531 350.159552 
L 372.499531 352.661771 
L 420.317531 356.238624 
L 468.135531 355.37612 
L 515.953531 356.40232 
L 563.771531 356.554466 
L 611.589531 357.724996 
L 659.407531 354.818363 
L 707.225531 358.943283 
L 755.043531 355.952875 
L 802.861531 359.917399 
L 850.679531 359.284892 
" clip-path="url(#p40cc245c19)" style="fill: none; stroke: #00019a; stroke-width: 1.4; stroke-linecap: square"/>
    <defs>
     <path id="mbfa28e5c6c" d="M -0 12 
L 12 -12 
L -12 -12 
z
" style="stroke: #00019a; stroke-width: 1.4; stroke-linejoin: miter"/>
    </defs>
    <g clip-path="url(#p40cc245c19)">
     <use xlink:href="#mbfa28e5c6c" x="133.409531" y="328.327412" style="fill-opacity: 0; stroke: #00019a; stroke-width: 1.4; stroke-linejoin: miter"/>
     <use xlink:href="#mbfa28e5c6c" x="181.227531" y="319.469833" style="fill-opacity: 0; stroke: #00019a; stroke-width: 1.4; stroke-linejoin: miter"/>
     <use xlink:href="#mbfa28e5c6c" x="276.863531" y="335.751762" style="fill-opacity: 0; stroke: #00019a; stroke-width: 1.4; stroke-linejoin: miter"/>
     <use xlink:href="#mbfa28e5c6c" x="324.681531" y="350.159552" style="fill-opacity: 0; stroke: #00019a; stroke-width: 1.4; stroke-linejoin: miter"/>
     <use xlink:href="#mbfa28e5c6c" x="372.499531" y="352.661771" style="fill-opacity: 0; stroke: #00019a; stroke-width: 1.4; stroke-linejoin: miter"/>
     <use xlink:href="#mbfa28e5c6c" x="420.317531" y="356.238624" style="fill-opacity: 0; stroke: #00019a; stroke-width: 1.4; stroke-linejoin: miter"/>
     <use xlink:href="#mbfa28e5c6c" x="468.135531" y="355.37612" style="fill-opacity: 0; stroke: #00019a; stroke-width: 1.4; stroke-linejoin: miter"/>
     <use xlink:href="#mbfa28e5c6c" x="515.953531" y="356.40232" style="fill-opacity: 0; stroke: #00019a; stroke-width: 1.4; stroke-linejoin: miter"/>
     <use xlink:href="#mbfa28e5c6c" x="563.771531" y="356.554466" style="fill-opacity: 0; stroke: #00019a; stroke-width: 1.4; stroke-linejoin: miter"/>
     <use xlink:href="#mbfa28e5c6c" x="611.589531" y="357.724996" style="fill-opacity: 0; stroke: #00019a; stroke-width: 1.4; stroke-linejoin: miter"/>
     <use xlink:href="#mbfa28e5c6c" x="659.407531" y="354.818363" style="fill-opacity: 0; stroke: #00019a; stroke-width: 1.4; stroke-linejoin: miter"/>
     <use xlink:href="#mbfa28e5c6c" x="707.225531" y="358.943283" style="fill-opacity: 0; stroke: #00019a; stroke-width: 1.4; stroke-linejoin: miter"/>
     <use xlink:href="#mbfa28e5c6c" x="755.043531" y="355.952875" style="fill-opacity: 0; stroke: #00019a; stroke-width: 1.4; stroke-linejoin: miter"/>
     <use xlink:href="#mbfa28e5c6c" x="802.861531" y="359.917399" style="fill-opacity: 0; stroke: #00019a; stroke-width: 1.4; stroke-linejoin: miter"/>
     <use xlink:href="#mbfa28e5c6c" x="850.679531" y="359.284892" style="fill-opacity: 0; stroke: #00019a; stroke-width: 1.4; stroke-linejoin: miter"/>
    </g>
   </g>
   <g id="line2d_27">
    <path d="M 133.409531 326.880935 
L 181.227531 314.497175 
L 276.863531 326.974119 
L 324.681531 330.31766 
L 372.499531 340.917226 
L 420.317531 350.019108 
L 468.135531 355.918609 
L 515.953531 358.620023 
L 563.771531 359.88109 
L 611.589531 362.88819 
L 659.407531 361.323256 
L 707.225531 360.326183 
L 755.043531 361.405586 
L 802.861531 358.517468 
L 850.679531 362.511713 
" clip-path="url(#p40cc245c19)" style="fill: none; stroke: #fe0000; stroke-width: 1.4; stroke-linecap: square"/>
    <defs>
     <path id="mbd19b583e6" d="M -12 12 
L 12 12 
L 12 -12 
L -12 -12 
z
" style="stroke: #fe0000; stroke-width: 1.4; stroke-linejoin: miter"/>
    </defs>
    <g clip-path="url(#p40cc245c19)">
     <use xlink:href="#mbd19b583e6" x="133.409531" y="326.880935" style="fill-opacity: 0; stroke: #fe0000; stroke-width: 1.4; stroke-linejoin: miter"/>
     <use xlink:href="#mbd19b583e6" x="181.227531" y="314.497175" style="fill-opacity: 0; stroke: #fe0000; stroke-width: 1.4; stroke-linejoin: miter"/>
     <use xlink:href="#mbd19b583e6" x="276.863531" y="326.974119" style="fill-opacity: 0; stroke: #fe0000; stroke-width: 1.4; stroke-linejoin: miter"/>
     <use xlink:href="#mbd19b583e6" x="324.681531" y="330.31766" style="fill-opacity: 0; stroke: #fe0000; stroke-width: 1.4; stroke-linejoin: miter"/>
     <use xlink:href="#mbd19b583e6" x="372.499531" y="340.917226" style="fill-opacity: 0; stroke: #fe0000; stroke-width: 1.4; stroke-linejoin: miter"/>
     <use xlink:href="#mbd19b583e6" x="420.317531" y="350.019108" style="fill-opacity: 0; stroke: #fe0000; stroke-width: 1.4; stroke-linejoin: miter"/>
     <use xlink:href="#mbd19b583e6" x="468.135531" y="355.918609" style="fill-opacity: 0; stroke: #fe0000; stroke-width: 1.4; stroke-linejoin: miter"/>
     <use xlink:href="#mbd19b583e6" x="515.953531" y="358.620023" style="fill-opacity: 0; stroke: #fe0000; stroke-width: 1.4; stroke-linejoin: miter"/>
     <use xlink:href="#mbd19b583e6" x="563.771531" y="359.88109" style="fill-opacity: 0; stroke: #fe0000; stroke-width: 1.4; stroke-linejoin: miter"/>
     <use xlink:href="#mbd19b583e6" x="611.589531" y="362.88819" style="fill-opacity: 0; stroke: #fe0000; stroke-width: 1.4; stroke-linejoin: miter"/>
     <use xlink:href="#mbd19b583e6" x="659.407531" y="361.323256" style="fill-opacity: 0; stroke: #fe0000; stroke-width: 1.4; stroke-linejoin: miter"/>
     <use xlink:href="#mbd19b583e6" x="707.225531" y="360.326183" style="fill-opacity: 0; stroke: #fe0000; stroke-width: 1.4; stroke-linejoin: miter"/>
     <use xlink:href="#mbd19b583e6" x="755.043531" y="361.405586" style="fill-opacity: 0; stroke: #fe0000; stroke-width: 1.4; stroke-linejoin: miter"/>
     <use xlink:href="#mbd19b583e6" x="802.861531" y="358.517468" style="fill-opacity: 0; stroke: #fe0000; stroke-width: 1.4; stroke-linejoin: miter"/>
     <use xlink:href="#mbd19b583e6" x="850.679531" y="362.511713" style="fill-opacity: 0; stroke: #fe0000; stroke-width: 1.4; stroke-linejoin: miter"/>
    </g>
   </g>
   <g id="line2d_28">
    <path d="M 133.409531 324.534429 
L 181.227531 317.488715 
L 276.863531 315.649256 
L 324.681531 328.177254 
L 372.499531 334.286696 
L 420.317531 337.672799 
L 468.135531 344.790655 
L 515.953531 351.467611 
L 563.771531 360.888992 
L 611.589531 367.311936 
L 659.407531 364.35487 
L 707.225531 366.624483 
L 755.043531 366.832377 
L 802.861531 367.222234 
L 850.679531 365.247671 
" clip-path="url(#p40cc245c19)" style="fill: none; stroke: #ffa500; stroke-width: 1.4; stroke-linecap: square"/>
    <defs>
     <path id="ma7303c2317" d="M 0 -12 
L -12 12 
L 12 12 
z
" style="stroke: #ffa500; stroke-width: 1.4; stroke-linejoin: miter"/>
    </defs>
    <g clip-path="url(#p40cc245c19)">
     <use xlink:href="#ma7303c2317" x="133.409531" y="324.534429" style="fill-opacity: 0; stroke: #ffa500; stroke-width: 1.4; stroke-linejoin: miter"/>
     <use xlink:href="#ma7303c2317" x="181.227531" y="317.488715" style="fill-opacity: 0; stroke: #ffa500; stroke-width: 1.4; stroke-linejoin: miter"/>
     <use xlink:href="#ma7303c2317" x="276.863531" y="315.649256" style="fill-opacity: 0; stroke: #ffa500; stroke-width: 1.4; stroke-linejoin: miter"/>
     <use xlink:href="#ma7303c2317" x="324.681531" y="328.177254" style="fill-opacity: 0; stroke: #ffa500; stroke-width: 1.4; stroke-linejoin: miter"/>
     <use xlink:href="#ma7303c2317" x="372.499531" y="334.286696" style="fill-opacity: 0; stroke: #ffa500; stroke-width: 1.4; stroke-linejoin: miter"/>
     <use xlink:href="#ma7303c2317" x="420.317531" y="337.672799" style="fill-opacity: 0; stroke: #ffa500; stroke-width: 1.4; stroke-linejoin: miter"/>
     <use xlink:href="#ma7303c2317" x="468.135531" y="344.790655" style="fill-opacity: 0; stroke: #ffa500; stroke-width: 1.4; stroke-linejoin: miter"/>
     <use xlink:href="#ma7303c2317" x="515.953531" y="351.467611" style="fill-opacity: 0; stroke: #ffa500; stroke-width: 1.4; stroke-linejoin: miter"/>
     <use xlink:href="#ma7303c2317" x="563.771531" y="360.888992" style="fill-opacity: 0; stroke: #ffa500; stroke-width: 1.4; stroke-linejoin: miter"/>
     <use xlink:href="#ma7303c2317" x="611.589531" y="367.311936" style="fill-opacity: 0; stroke: #ffa500; stroke-width: 1.4; stroke-linejoin: miter"/>
     <use xlink:href="#ma7303c2317" x="659.407531" y="364.35487" style="fill-opacity: 0; stroke: #ffa500; stroke-width: 1.4; stroke-linejoin: miter"/>
     <use xlink:href="#ma7303c2317" x="707.225531" y="366.624483" style="fill-opacity: 0; stroke: #ffa500; stroke-width: 1.4; stroke-linejoin: miter"/>
     <use xlink:href="#ma7303c2317" x="755.043531" y="366.832377" style="fill-opacity: 0; stroke: #ffa500; stroke-width: 1.4; stroke-linejoin: miter"/>
     <use xlink:href="#ma7303c2317" x="802.861531" y="367.222234" style="fill-opacity: 0; stroke: #ffa500; stroke-width: 1.4; stroke-linejoin: miter"/>
     <use xlink:href="#ma7303c2317" x="850.679531" y="365.247671" style="fill-opacity: 0; stroke: #ffa500; stroke-width: 1.4; stroke-linejoin: miter"/>
    </g>
   </g>
   <g id="patch_3">
    <path d="M 133.409531 647.7 
L 133.409531 7.2 
" style="fill: none; stroke: #000000; stroke-width: 2.4; stroke-linejoin: miter; stroke-linecap: square"/>
   </g>
   <g id="patch_4">
    <path d="M 850.679531 647.7 
L 850.679531 7.2 
" style="fill: none; stroke: #000000; stroke-width: 2.4; stroke-linejoin: miter; stroke-linecap: square"/>
   </g>
   <g id="patch_5">
    <path d="M 133.409531 647.7 
L 850.679531 647.7 
" style="fill: none; stroke: #000000; stroke-width: 2.4; stroke-linejoin: miter; stroke-linecap: square"/>
   </g>
   <g id="patch_6">
    <path d="M 133.409531 7.2 
L 850.679531 7.2 
" style="fill: none; stroke: #000000; stroke-width: 2.4; stroke-linejoin: miter; stroke-linecap: square"/>
   </g>
  </g>
  <g id="legend_1">
   <g id="patch_7">
    <path d="M 866.079531 424.28375 
L 996.862656 424.28375 
Q 1001.262656 424.28375 1001.262656 419.88375 
L 1001.262656 292.91625 
Q 1001.262656 288.51625 996.862656 288.51625 
L 866.079531 288.51625 
Q 861.679531 288.51625 861.679531 292.91625 
L 861.679531 419.88375 
Q 861.679531 424.28375 866.079531 424.28375 
L 866.079531 424.28375 
z
" style="fill: none; opacity: 0"/>
   </g>
   <g id="LineCollection_5">
    <path d="M 892.479531 317.332812 
L 892.479531 295.332812 
" style="fill: none; stroke: #03ac13; stroke-width: 1.4"/>
   </g>
   <g id="line2d_29">
    <path d="M 870.479531 306.332812 
L 914.479531 306.332812 
" style="fill: none; stroke: #03ac13; stroke-width: 1.4; stroke-linecap: square"/>
   </g>
   <g id="line2d_30">
    <g>
     <use xlink:href="#mfde0d610eb" x="892.479531" y="306.332812" style="fill-opacity: 0; stroke: #03ac13; stroke-width: 1.4"/>
    </g>
   </g>
   <g id="text_27">
    <!-- d = 1 -->
    <g transform="translate(932.079531 314.032812) scale(0.22 -0.22)">
     <defs>
      <path id="DejaVuSans-64" d="M 2906 2969 
L 2906 4863 
L 3481 4863 
L 3481 0 
L 2906 0 
L 2906 525 
Q 2725 213 2448 61 
Q 2172 -91 1784 -91 
Q 1150 -91 751 415 
Q 353 922 353 1747 
Q 353 2572 751 3078 
Q 1150 3584 1784 3584 
Q 2172 3584 2448 3432 
Q 2725 3281 2906 2969 
z
M 947 1747 
Q 947 1113 1208 752 
Q 1469 391 1925 391 
Q 2381 391 2643 752 
Q 2906 1113 2906 1747 
Q 2906 2381 2643 2742 
Q 2381 3103 1925 3103 
Q 1469 3103 1208 2742 
Q 947 2381 947 1747 
z
" transform="scale(0.015625)"/>
      <path id="DejaVuSans-20" transform="scale(0.015625)"/>
      <path id="DejaVuSans-3d" d="M 678 2906 
L 4684 2906 
L 4684 2381 
L 678 2381 
L 678 2906 
z
M 678 1631 
L 4684 1631 
L 4684 1100 
L 678 1100 
L 678 1631 
z
" transform="scale(0.015625)"/>
     </defs>
     <use xlink:href="#DejaVuSans-64"/>
     <use xlink:href="#DejaVuSans-20" x="63.476562"/>
     <use xlink:href="#DejaVuSans-3d" x="95.263672"/>
     <use xlink:href="#DejaVuSans-20" x="179.052734"/>
     <use xlink:href="#DejaVuSans-31" x="210.839844"/>
    </g>
   </g>
   <g id="LineCollection_6">
    <path d="M 892.479531 349.624687 
L 892.479531 327.624687 
" style="fill: none; stroke: #00019a; stroke-width: 1.4"/>
   </g>
   <g id="line2d_31">
    <path d="M 870.479531 338.624687 
L 914.479531 338.624687 
" style="fill: none; stroke: #00019a; stroke-width: 1.4; stroke-linecap: square"/>
   </g>
   <g id="line2d_32">
    <g>
     <use xlink:href="#mbfa28e5c6c" x="892.479531" y="338.624687" style="fill-opacity: 0; stroke: #00019a; stroke-width: 1.4; stroke-linejoin: miter"/>
    </g>
   </g>
   <g id="text_28">
    <!-- d = 2 -->
    <g transform="translate(932.079531 346.324687) scale(0.22 -0.22)">
     <use xlink:href="#DejaVuSans-64"/>
     <use xlink:href="#DejaVuSans-20" x="63.476562"/>
     <use xlink:href="#DejaVuSans-3d" x="95.263672"/>
     <use xlink:href="#DejaVuSans-20" x="179.052734"/>
     <use xlink:href="#DejaVuSans-32" x="210.839844"/>
    </g>
   </g>
   <g id="LineCollection_7">
    <path d="M 892.479531 381.916562 
L 892.479531 359.916562 
" style="fill: none; stroke: #fe0000; stroke-width: 1.4"/>
   </g>
   <g id="line2d_33">
    <path d="M 870.479531 370.916562 
L 914.479531 370.916562 
" style="fill: none; stroke: #fe0000; stroke-width: 1.4; stroke-linecap: square"/>
   </g>
   <g id="line2d_34">
    <g>
     <use xlink:href="#mbd19b583e6" x="892.479531" y="370.916562" style="fill-opacity: 0; stroke: #fe0000; stroke-width: 1.4; stroke-linejoin: miter"/>
    </g>
   </g>
   <g id="text_29">
    <!-- d = 3 -->
    <g transform="translate(932.079531 378.616562) scale(0.22 -0.22)">
     <use xlink:href="#DejaVuSans-64"/>
     <use xlink:href="#DejaVuSans-20" x="63.476562"/>
     <use xlink:href="#DejaVuSans-3d" x="95.263672"/>
     <use xlink:href="#DejaVuSans-20" x="179.052734"/>
     <use xlink:href="#DejaVuSans-33" x="210.839844"/>
    </g>
   </g>
   <g id="LineCollection_8">
    <path d="M 892.479531 414.208438 
L 892.479531 392.208438 
" style="fill: none; stroke: #ffa500; stroke-width: 1.4"/>
   </g>
   <g id="line2d_35">
    <path d="M 870.479531 403.208438 
L 914.479531 403.208438 
" style="fill: none; stroke: #ffa500; stroke-width: 1.4; stroke-linecap: square"/>
   </g>
   <g id="line2d_36">
    <g>
     <use xlink:href="#ma7303c2317" x="892.479531" y="403.208438" style="fill-opacity: 0; stroke: #ffa500; stroke-width: 1.4; stroke-linejoin: miter"/>
    </g>
   </g>
   <g id="text_30">
    <!-- d = 4 -->
    <g transform="translate(932.079531 410.908437) scale(0.22 -0.22)">
     <use xlink:href="#DejaVuSans-64"/>
     <use xlink:href="#DejaVuSans-20" x="63.476562"/>
     <use xlink:href="#DejaVuSans-3d" x="95.263672"/>
     <use xlink:href="#DejaVuSans-20" x="179.052734"/>
     <use xlink:href="#DejaVuSans-34" x="210.839844"/>
    </g>
   </g>
  </g>
 </g>
 <defs>
  <clipPath id="p40cc245c19">
   <rect x="133.409531" y="7.2" width="717.27" height="640.5"/>
  </clipPath>
 </defs>
</svg>
